<?xml version="1.0" standalone="no"?>
<!DOCTYPE svg PUBLIC "-//W3C//DTD SVG 20010904//EN"
 "http://www.w3.org/TR/2001/REC-SVG-20010904/DTD/svg10.dtd">
<svg version="1.0" xmlns="http://www.w3.org/2000/svg"
 width="366.000000pt" height="462.000000pt" viewBox="0 0 366.000000 462.000000"
 preserveAspectRatio="xMidYMid meet">

<g transform="translate(0.000000,462.000000) scale(0.100000,-0.100000)"
fill="#000000" stroke="none">
<path d="M1705 4219 c-593 -45 -1106 -459 -1270 -1027 -80 -272 -76 -586 10
-849 35 -104 93 -230 148 -318 40 -64 147 -203 181 -234 l26 -24 0 179 c0 165
4 210 24 272 7 20 4 22 -36 22 -54 0 -92 19 -96 48 -6 37 26 117 59 148 25 24
41 30 96 34 l65 5 74 204 c115 319 125 334 267 394 109 45 197 57 467 64 519
12 755 -45 828 -199 11 -24 55 -139 97 -255 l78 -213 56 0 c75 0 115 -25 142
-88 32 -74 34 -97 10 -121 -16 -16 -34 -21 -71 -21 -27 0 -50 -2 -50 -4 0 -3
5 -17 12 -33 6 -16 14 -113 17 -228 l6 -200 63 75 c146 173 248 370 302 580
61 237 55 522 -14 760 -161 556 -677 983 -1237 1025 -41 3 -92 7 -114 9 -22 1
-85 -1 -140 -5z"/>
<path d="M1440 2959 c-41 -4 -93 -14 -115 -21 -36 -12 -44 -20 -82 -98 -52
-105 -117 -269 -136 -344 l-15 -55 32 -6 c65 -11 471 -25 718 -25 259 0 635
16 682 28 l25 7 -38 110 c-20 61 -65 167 -98 237 l-61 127 -54 15 c-29 9 -96
20 -148 26 -111 11 -601 11 -710 -1z"/>
<path d="M960 2138 c-28 -15 -38 -43 -39 -109 -1 -67 8 -71 128 -63 l101 7 55
-37 c48 -31 61 -36 92 -30 40 8 73 35 73 62 0 37 -36 78 -81 91 -24 7 -83 28
-130 47 -102 40 -164 50 -199 32z"/>
<path d="M2570 2136 c-25 -7 -74 -25 -109 -40 -36 -14 -72 -26 -81 -26 -18 0
-120 -101 -120 -119 0 -19 45 -41 85 -41 28 0 53 9 80 28 39 26 44 27 157 25
111 -3 118 -2 129 19 14 27 5 126 -14 145 -20 20 -76 24 -127 9z"/>
<path d="M1260 1510 l0 -59 97 -31 c191 -61 368 -82 569 -68 135 9 228 28 354
71 l95 32 3 58 3 57 -561 0 -560 0 0 -60z"/>
<path d="M542 1200 c-18 -11 -40 -37 -48 -56 -27 -64 -4 -106 94 -169 53 -35
56 -68 5 -73 -27 -3 -39 4 -75 43 -54 57 -69 53 -93 -24 -24 -80 -6 -104 46
-62 23 19 24 19 61 0 75 -38 181 -17 218 43 42 69 21 118 -75 181 -38 24 -50
38 -50 57 0 42 37 38 88 -9 24 -23 51 -41 60 -41 15 0 47 75 47 112 0 22 -37
24 -65 4 -17 -12 -23 -12 -47 0 -41 21 -127 18 -166 -6z"/>
<path d="M1877 1213 c-4 -3 2 -17 14 -29 l21 -22 -39 -127 c-23 -77 -45 -132
-55 -139 -21 -13 -36 0 -20 16 17 17 15 64 -4 82 -33 34 -89 5 -100 -50 -5
-26 0 -38 24 -65 27 -31 35 -33 98 -37 56 -2 75 1 101 17 47 29 63 61 100 189
18 64 42 125 53 137 11 12 20 24 20 28 0 9 -205 9 -213 0z"/>
<path d="M921 1127 c-64 -32 -51 -82 20 -82 40 0 45 3 54 31 6 17 15 29 23 27
14 -5 16 -42 3 -76 -9 -23 -12 -24 -57 -16 -67 13 -120 -4 -144 -44 -27 -44
-25 -63 9 -98 35 -35 81 -38 127 -10 29 18 31 18 53 0 31 -25 82 -24 115 2 29
22 35 49 11 49 -19 0 -19 7 0 60 29 82 16 132 -40 156 -42 17 -141 18 -174 1z
m79 -165 c0 -16 -32 -52 -46 -52 -17 0 -19 31 -2 48 13 13 48 16 48 4z"/>
<path d="M1253 1130 c-24 -10 -30 -29 -14 -45 11 -13 -45 -196 -65 -211 -32
-26 -14 -34 74 -34 49 0 92 3 95 6 3 4 2 15 -3 25 -13 24 33 174 57 183 31 12
36 -10 14 -68 -39 -105 -22 -146 62 -146 34 0 53 6 67 20 24 24 27 52 5 44
-19 -8 -19 -2 5 74 25 81 25 117 0 142 -29 29 -91 27 -126 -4 l-28 -23 -19 23
c-14 19 -28 24 -60 23 -23 0 -52 -4 -64 -9z"/>
<path d="M2103 1130 c-24 -10 -30 -29 -14 -45 5 -6 -1 -42 -15 -90 -28 -92
-25 -119 16 -140 39 -20 79 -19 118 5 32 20 32 20 52 0 40 -40 150 -17 150 31
0 11 -4 18 -9 14 -20 -12 -19 15 5 91 40 130 31 150 -61 142 -63 -5 -85 -19
-66 -42 10 -11 8 -29 -9 -85 -23 -75 -43 -102 -62 -83 -7 7 -4 30 11 80 24 80
26 103 9 120 -14 14 -93 15 -125 2z"/>
<path d="M2547 1124 c-23 -13 -28 -21 -25 -47 3 -29 6 -32 41 -35 44 -4 65 9
69 44 3 23 5 24 22 11 18 -13 19 -18 8 -56 -12 -38 -15 -41 -40 -35 -15 3 -38
7 -51 10 -34 7 -88 -14 -111 -43 -28 -36 -26 -78 6 -110 22 -22 32 -25 70 -20
25 2 53 12 62 20 15 14 19 14 41 -4 50 -41 151 -7 151 52 0 4 -7 6 -15 3 -19
-8 -19 3 2 82 17 62 17 64 -3 91 -12 16 -32 34 -45 40 -34 18 -148 16 -182 -3z
m83 -165 c0 -20 -21 -49 -35 -49 -21 0 -27 17 -15 40 11 21 50 28 50 9z"/>
<path d="M2885 1128 c-11 -6 -21 -12 -23 -14 -2 -1 2 -10 8 -21 10 -15 7 -36
-15 -108 -15 -50 -36 -100 -48 -112 -27 -30 -13 -35 89 -31 l79 3 -3 27 c-3
32 24 133 44 166 18 27 44 29 44 2 0 -10 -9 -42 -20 -70 -11 -28 -20 -60 -20
-70 0 -59 107 -84 155 -35 28 27 33 50 10 41 -21 -8 -19 18 5 89 25 73 25 86
-1 119 -27 34 -82 36 -131 2 l-35 -23 -9 21 c-7 17 -19 21 -59 23 -27 2 -59
-2 -70 -9z"/>
<path d="M1260 585 l0 -95 45 0 c33 0 45 4 45 15 0 10 -10 15 -30 15 -27 0
-30 3 -30 30 0 27 3 30 30 30 20 0 30 5 30 15 0 10 -10 15 -30 15 -23 0 -30 4
-30 20 0 16 7 20 30 20 20 0 30 5 30 15 0 11 -12 15 -45 15 l-45 0 0 -95z"/>
<path d="M1420 624 c0 -3 9 -19 21 -35 l20 -29 -20 -29 c-25 -34 -26 -41 -8
-41 8 0 20 11 27 25 7 14 16 25 20 25 4 0 13 -11 20 -25 7 -14 19 -25 27 -25
18 0 17 7 -8 42 l-22 30 22 28 c25 34 26 40 6 40 -8 0 -21 -12 -28 -27 l-14
-26 -18 26 c-15 24 -45 37 -45 21z"/>
<path d="M1610 530 c0 -82 3 -100 15 -100 11 0 15 11 15 40 0 38 1 40 21 30
34 -19 69 11 69 60 0 48 -29 74 -66 60 -14 -6 -26 -6 -29 0 -17 28 -25 0 -25
-90z m85 30 c0 -31 -3 -35 -25 -35 -19 0 -26 6 -28 23 -5 36 5 54 30 50 19 -2
23 -9 23 -38z"/>
<path d="M1800 560 c0 -56 3 -70 15 -70 11 0 15 11 15 39 0 41 20 71 46 71 8
0 14 7 14 15 0 19 -10 19 -38 -1 -20 -14 -22 -14 -22 0 0 9 -7 16 -15 16 -12
0 -15 -14 -15 -70z"/>
<path d="M1980 617 c-21 -11 -25 -20 -25 -57 0 -39 4 -46 27 -58 28 -13 78 -7
78 10 0 6 -10 8 -22 5 -26 -7 -58 8 -58 28 0 11 12 15 45 15 47 0 56 12 33 42
-19 23 -50 29 -78 15z m44 -13 c26 -10 18 -24 -14 -24 -30 0 -41 14 -17 23 6
3 13 6 14 6 1 1 8 -2 17 -5z"/>
<path d="M2153 620 c-36 -15 -29 -48 13 -66 42 -18 40 -40 -5 -36 -38 3 -41
-13 -5 -22 30 -8 74 16 74 39 0 9 -16 23 -35 32 -40 19 -41 39 -1 35 14 -1 26
2 26 8 0 5 -4 10 -9 10 -5 0 -15 2 -23 4 -7 3 -23 1 -35 -4z"/>
<path d="M2313 620 c-36 -15 -29 -48 13 -66 42 -18 40 -40 -5 -36 -38 3 -41
-13 -5 -22 30 -8 74 16 74 39 0 9 -16 23 -35 32 -40 19 -41 39 -1 35 14 -1 26
2 26 8 0 5 -4 10 -9 10 -5 0 -15 2 -23 4 -7 3 -23 1 -35 -4z"/>
</g>
</svg>
