<svg width="248" height="90" viewBox="0 0 248 90" fill="none" xmlns="http://www.w3.org/2000/svg">
<g clip-path="url(#clip0_71_266)">
<path d="M0 8C0 3.58172 3.58172 0 8 0H240C244.418 0 248 3.58172 248 8V90H0V8Z" fill="#8BEAA4"/>
<path d="M164.193 51.3294C93.6433 51.3294 82.948 51.4568 82.948 52.2974C82.948 52.9103 78.9834 53 51.8643 53C24.4825 53 20.7807 52.9146 20.7807 52.284C20.7807 51.6788 19.9011 51.5675 15.1038 51.5661C5.54526 51.5632 -1.18257 51.0406 -1.18257 50.3002C-1.18257 49.8243 -1.85413 49.6587 -3.78838 49.6587H-6.3942V47.0334C-6.3942 45.0181 -6.52374 44.4081 -6.95258 44.4081C-7.38142 44.4081 -7.51097 43.7981 -7.51097 41.7828C-7.51097 39.7675 -7.38142 39.1575 -6.95258 39.1575C-6.64546 39.1575 -6.3942 38.8353 -6.3942 38.4415C-6.3942 38.0477 -6.63057 37.7255 -6.91982 37.7255C-7.24294 37.7255 -7.54262 36.99 -7.6971 35.8162C-7.85159 34.6425 -8.15126 33.9069 -8.47438 33.9069C-8.88795 33.9069 -9 32.9924 -9 29.611C-9 26.1107 -8.89651 25.315 -8.44162 25.315C-8.10211 25.315 -7.88322 24.8706 -7.88322 24.1814C-7.88322 23.558 -7.77863 22.3766 -7.65057 21.5561C-7.42461 20.1074 -7.36021 20.0644 -5.41701 20.0644C-3.88666 20.0644 -3.41612 19.8959 -3.41612 19.3484C-3.41612 18.8076 -2.96123 18.6325 -1.55482 18.6325C-0.188263 18.6325 0.306473 18.8138 0.306473 19.3155C0.306473 19.8893 2.0412 20.0234 11.1161 20.1508C20.2342 20.2792 21.9794 20.4153 22.2705 21.0191C22.5709 21.643 25.5222 21.7351 45.164 21.7351C64.0532 21.7351 67.765 21.6272 68.0338 21.0692C68.3018 20.5126 72.8873 20.3642 95.9394 20.1656C118.831 19.9685 123.524 19.8181 123.524 19.2802C123.524 18.7427 127.024 18.6325 144.123 18.6325C155.453 18.6325 174.782 18.4902 187.076 18.316L209.43 18L209.692 19.9866C209.854 21.2215 210.153 21.9737 210.479 21.9737C210.919 21.9737 211.004 24.0606 211 34.7422C210.995 48.0239 210.889 49.6587 210.031 49.6587C209.748 49.6587 209.516 50.0344 209.516 50.494C209.516 51.285 207.11 51.3294 164.193 51.3294Z" fill="#3AD463"/>
<path d="M241.193 75.3294C170.643 75.3294 159.948 75.4568 159.948 76.2974C159.948 76.9103 155.983 77 128.864 77C101.482 77 97.7807 76.9146 97.7807 76.284C97.7807 75.6788 96.9011 75.5675 92.1038 75.5661C82.5453 75.5632 75.8174 75.0406 75.8174 74.3002C75.8174 73.8243 75.1459 73.6587 73.2116 73.6587H70.6058V71.0334C70.6058 69.0181 70.4763 68.4081 70.0474 68.4081C69.6186 68.4081 69.489 67.7981 69.489 65.7828C69.489 63.7675 69.6186 63.1575 70.0474 63.1575C70.3545 63.1575 70.6058 62.8353 70.6058 62.4415C70.6058 62.0477 70.3694 61.7255 70.0802 61.7255C69.7571 61.7255 69.4574 60.99 69.3029 59.8162C69.1484 58.6425 68.8487 57.9069 68.5256 57.9069C68.112 57.9069 68 56.9924 68 53.611C68 50.1107 68.1035 49.315 68.5584 49.315C68.8979 49.315 69.1168 48.8706 69.1168 48.1814C69.1168 47.558 69.2214 46.3766 69.3494 45.5561C69.5754 44.1074 69.6398 44.0644 71.583 44.0644C73.1133 44.0644 73.5839 43.8959 73.5839 43.3484C73.5839 42.8076 74.0388 42.6325 75.4452 42.6325C76.8117 42.6325 77.3065 42.8138 77.3065 43.3155C77.3065 43.8893 79.0412 44.0234 88.1161 44.1508C97.2342 44.2792 98.9794 44.4153 99.2705 45.0191C99.5709 45.643 102.522 45.7351 122.164 45.7351C141.053 45.7351 144.765 45.6272 145.034 45.0692C145.302 44.5126 149.887 44.3642 172.939 44.1656C195.831 43.9685 200.524 43.8181 200.524 43.2802C200.524 42.7427 204.024 42.6325 221.123 42.6325C232.453 42.6325 251.782 42.4902 264.076 42.316L286.43 42L286.692 43.9866C286.854 45.2215 287.153 45.9737 287.479 45.9737C287.919 45.9737 288.004 48.0606 288 58.7422C287.995 72.0239 287.889 73.6587 287.031 73.6587C286.748 73.6587 286.516 74.0344 286.516 74.494C286.516 75.285 284.11 75.3294 241.193 75.3294Z" fill="#3AD463"/>
</g>
<path d="M115.934 22.5637C115.202 22.8516 114.403 23.6499 114.155 24.3303C113.841 25.1678 112.414 29.8918 112.126 31.0565C111.655 32.8754 111.459 34.5766 111.328 37.6125C111.158 41.6168 111.289 68.5346 111.485 69.2805C111.655 69.9479 112.44 70.877 113.121 71.2172C113.592 71.4528 114.325 71.4659 130.525 71.5313L147.432 71.5967L147.799 71.937C148.832 72.8922 151.698 74.4495 152.745 74.6065C153.36 74.7112 154.472 74.3709 155.873 73.6774C157.417 72.8922 158.189 72.3165 159.615 70.877C161.172 69.3067 162.01 68.0243 162.717 66.1661C163.554 63.9022 163.58 63.7713 163.633 57.5948C163.685 52.0987 163.685 51.9547 163.423 51.6276C163.201 51.3397 162.481 51.0911 158.176 49.861L153.203 48.4477V42.2711C153.203 35.5057 153.125 34.1579 152.549 31.8155C151.881 29.0282 150.337 24.134 149.984 23.676C149.578 23.1395 148.95 22.6684 148.374 22.4721C148.047 22.3674 143.637 22.3282 132.213 22.3413C117.753 22.3413 116.458 22.3543 115.934 22.5637ZM127.031 29.1329V33.8438H120.567C117.007 33.8438 114.011 33.8831 113.893 33.9223C113.553 34.0532 113.631 33.5297 114.39 30.8864C115.921 25.5866 116.157 24.8799 116.445 24.6444C116.693 24.435 117.164 24.4219 121.875 24.4219H127.031V29.1329ZM135.406 29.1329V33.8438H132.266H129.125V29.1329V24.4219H132.266H135.406V29.1329ZM148.087 24.6444C148.296 24.8145 148.597 25.652 149.225 27.7588C149.932 30.1666 150.848 33.5821 150.848 33.8438C150.848 33.8831 147.851 33.8961 144.174 33.87L137.5 33.8438V29.1329V24.4219H142.656C147.367 24.4219 147.838 24.435 148.087 24.6444ZM127.057 40.3999L127.097 44.8622L127.411 45.1108C127.843 45.4641 128.222 45.4249 129.256 44.9014L130.172 44.4434L131.088 44.9014C131.585 45.15 132.109 45.3594 132.239 45.3594C132.357 45.3594 132.894 45.15 133.417 44.9014L134.372 44.4434L135.328 44.9276C136.27 45.3856 136.61 45.4249 137.094 45.1108C137.408 44.9014 137.487 43.9069 137.5 39.8895V35.9375H143.978H150.468L150.795 36.2647L151.109 36.5788L151.083 42.8338L151.044 49.0758L147.131 50.2012C143.978 51.1042 143.179 51.3659 142.983 51.6276C142.747 51.9155 142.734 52.2165 142.734 56.862C142.734 59.5708 142.8 62.2926 142.865 62.8946C143.127 65.0014 143.768 66.912 144.723 68.4168C144.972 68.7963 145.221 69.1889 145.273 69.2674C145.352 69.3983 142.198 69.4376 129.714 69.4376H114.063L113.749 69.1104L113.422 68.7963V52.6875V36.5788L113.749 36.2647L114.063 35.9375H120.541H127.018L127.057 40.3999ZM135.406 39.2745V42.6245L135.014 42.4151C134.477 42.1403 134.268 42.1665 133.208 42.6768L132.266 43.1217L131.323 42.6768C130.263 42.1665 130.054 42.1403 129.518 42.4151L129.125 42.6245V39.2745V35.9375H132.266H135.406V39.2745ZM157.404 51.7977L161.591 52.9885L161.552 58.0397C161.5 62.7506 161.473 63.1563 161.212 64.1377C160.191 67.8411 157.548 70.8508 154.093 72.2249L153.216 72.5782L152.326 72.251C149.578 71.2172 146.909 68.587 145.757 65.8127C144.972 63.8891 144.92 63.5489 144.867 58.0528L144.802 53.0147L146.097 52.6483C146.804 52.452 148.649 51.9155 150.193 51.4575C151.738 50.9995 153.046 50.62 153.112 50.6069C153.164 50.6069 155.101 51.1303 157.404 51.7977Z" fill="#343433"/>
<path d="M116.89 59.2959C116.68 59.4922 116.562 59.767 116.562 60.0156C116.562 60.2643 116.68 60.5391 116.89 60.7354L117.204 61.0625H121.797H126.39L126.704 60.7354C126.913 60.5391 127.031 60.2643 127.031 60.0156C127.031 59.767 126.913 59.4922 126.704 59.2959L126.39 58.9688H121.797H117.204L116.89 59.2959Z" fill="#343433"/>
<path d="M116.89 64.5303C116.68 64.7266 116.562 65.0014 116.562 65.25C116.562 65.4986 116.68 65.7734 116.89 65.9697L117.204 66.2969H121.797H126.39L126.704 65.9697C126.913 65.7734 127.031 65.4986 127.031 65.25C127.031 65.0014 126.913 64.7266 126.704 64.5303L126.39 64.2031H121.797H117.204L116.89 64.5303Z" fill="#343433"/>
<path d="M154.551 60.3035L152.156 62.6852L151.057 61.6121C150.154 60.7223 149.892 60.5391 149.552 60.5391C148.989 60.5391 148.492 61.0363 148.492 61.6121C148.492 61.9785 148.702 62.2402 150.102 63.6404C151.528 65.0668 151.764 65.25 152.156 65.25C152.562 65.25 152.863 64.9883 155.519 62.3318C158.137 59.7146 158.438 59.3875 158.438 58.9949C158.438 58.4191 157.94 57.9219 157.378 57.9219C156.998 57.9219 156.671 58.1967 154.551 60.3035Z" fill="#343433"/>
<defs>
<clipPath id="clip0_71_266">
<path d="M0 8C0 3.58172 3.58172 0 8 0H240C244.418 0 248 3.58172 248 8V90H0V8Z" fill="white"/>
</clipPath>
</defs>
</svg>
