<svg width="248" height="90" viewBox="0 0 248 90" fill="none" xmlns="http://www.w3.org/2000/svg">
<path d="M0 8C0 3.58172 3.58172 0 8 0H240C244.418 0 248 3.58172 248 8V90H0V8Z" fill="#8BEAA4"/>
<path d="M188.172 47.3294C122.111 47.3294 112.097 47.4568 112.097 48.2974C112.097 48.9103 108.384 49 82.9911 49C57.3518 49 53.8856 48.9146 53.8856 48.284C53.8856 47.6788 53.0619 47.5675 48.5699 47.5661C39.6197 47.5632 33.32 47.0406 33.32 46.3002C33.32 45.8243 32.6911 45.6587 30.88 45.6587H28.44V43.0334C28.44 41.0181 28.3187 40.4081 27.9171 40.4081C27.5156 40.4081 27.3943 39.7981 27.3943 37.7828C27.3943 35.7675 27.5156 35.1575 27.9171 35.1575C28.2047 35.1575 28.44 34.8353 28.44 34.4415C28.44 34.0477 28.2186 33.7255 27.9478 33.7255C27.6452 33.7255 27.3647 32.99 27.22 31.8162C27.0753 30.6425 26.7947 29.9069 26.4922 29.9069C26.1049 29.9069 26 28.9924 26 25.611C26 22.1107 26.0969 21.315 26.5229 21.315C26.8407 21.315 27.0457 20.8706 27.0457 20.1814C27.0457 19.558 27.1437 18.3766 27.2636 17.5561C27.4751 16.1074 27.5354 16.0644 29.355 16.0644C30.7879 16.0644 31.2285 15.8959 31.2285 15.3484C31.2285 14.8076 31.6545 14.6325 32.9714 14.6325C34.251 14.6325 34.7142 14.8138 34.7142 15.3155C34.7142 15.8893 36.3386 16.0234 44.836 16.1508C53.3739 16.2792 55.008 16.4153 55.2805 17.0191C55.5618 17.643 58.3253 17.7351 76.7172 17.7351C94.4044 17.7351 97.88 17.6272 98.1316 17.0692C98.3826 16.5126 102.676 16.3642 124.261 16.1656C145.696 15.9685 150.091 15.8181 150.091 15.2802C150.091 14.7427 153.368 14.6325 169.379 14.6325C179.988 14.6325 198.086 14.4902 209.599 14.316L230.53 14L230.775 15.9866C230.927 17.2215 231.207 17.9737 231.513 17.9737C231.924 17.9737 232.004 20.0606 232 30.7422C231.995 44.0239 231.896 45.6587 231.093 45.6587C230.828 45.6587 230.61 46.0344 230.61 46.494C230.61 47.285 228.357 47.3294 188.172 47.3294Z" fill="#3AD563"/>
<path d="M162.172 76.3294C96.1115 76.3294 86.0967 76.4568 86.0967 77.2974C86.0967 77.9103 82.3845 78 56.9911 78C31.3518 78 27.8856 77.9146 27.8856 77.284C27.8856 76.6788 27.0619 76.5675 22.5699 76.5661C13.6197 76.5632 7.31996 76.0406 7.31996 75.3002C7.31996 74.8243 6.69115 74.6587 4.87997 74.6587H2.43999V72.0334C2.43999 70.0181 2.31868 69.4081 1.91713 69.4081C1.51558 69.4081 1.39427 68.7981 1.39427 66.7828C1.39427 64.7675 1.51558 64.1575 1.91713 64.1575C2.2047 64.1575 2.43999 63.8353 2.43999 63.4415C2.43999 63.0477 2.21864 62.7255 1.94781 62.7255C1.64525 62.7255 1.36465 61.99 1.21999 60.8162C1.07533 59.6425 0.794739 58.9069 0.492172 58.9069C0.104904 58.9069 0 57.9924 0 54.611C0 51.1107 0.0968933 50.315 0.522858 50.315C0.840744 50.315 1.0457 49.8706 1.0457 49.1814C1.0457 48.558 1.14366 47.3766 1.26357 46.5561C1.47514 45.1074 1.53545 45.0644 3.35498 45.0644C4.78795 45.0644 5.22855 44.8959 5.22855 44.3484C5.22855 43.8076 5.6545 43.6325 6.97139 43.6325C8.25099 43.6325 8.71423 43.8138 8.71423 44.3155C8.71423 44.8893 10.3386 45.0234 18.836 45.1508C27.3739 45.2792 29.008 45.4153 29.2805 46.0191C29.5618 46.643 32.3253 46.7351 50.7172 46.7351C68.4044 46.7351 71.88 46.6272 72.1316 46.0692C72.3826 45.5126 76.6763 45.3642 98.2615 45.1656C119.696 44.9685 124.091 44.8181 124.091 44.2802C124.091 43.7427 127.368 43.6325 143.379 43.6325C153.988 43.6325 172.086 43.4902 183.599 43.316L204.53 43L204.775 44.9866C204.927 46.2215 205.207 46.9737 205.513 46.9737C205.924 46.9737 206.004 49.0606 206 59.7422C205.995 73.0239 205.896 74.6587 205.093 74.6587C204.828 74.6587 204.61 75.0344 204.61 75.494C204.61 76.285 202.357 76.3294 162.172 76.3294Z" fill="#3AD563"/>
<path d="M120.075 17.1671C114.75 17.6687 109 19.8105 104.388 22.9941C101.456 25.0008 97.5774 28.9369 95.6672 31.8697C89.8208 40.7454 88.4316 51.4347 91.8082 61.3329C95.3778 71.7714 103.906 79.7981 114.692 82.8274C119.805 84.2745 127.253 84.2745 132.366 82.8274C143.268 79.7595 151.854 71.5978 155.365 60.947C158.067 52.7082 157.391 43.2151 153.552 35.6129C151.641 31.8504 149.616 29.1299 146.528 26.1971C139.428 19.4439 129.954 16.2023 120.075 17.1671ZM129.703 19.5403C145.525 22.8398 156.311 37.0986 154.979 52.9783C154.034 64.5359 147.069 74.4341 136.553 79.2193C132.443 81.0909 129.259 81.8048 124.474 81.9205C119.979 82.0556 118.763 81.8819 113.013 80.3576C112.917 80.3191 112.473 80.1454 112.048 79.9718C105.508 77.1354 100.761 73.2764 97.2108 67.8932C94.741 64.1693 93.2939 60.5804 92.4835 56.2198C89.3385 39.1053 100.568 22.7047 117.644 19.4825C120.673 18.9229 120.789 18.9036 124.301 19.0001C126.693 19.058 128.044 19.193 129.703 19.5403Z" fill="#343433"/>
<path d="M113.206 28.9369C110.505 29.2456 107.842 30.8278 106.279 33.0467C105.276 34.5131 104.89 35.3814 104.524 37.1179C104.157 38.8351 104.157 39.221 104.543 41.0347C104.832 42.4819 106.029 45.1252 106.395 45.1252C106.492 45.1252 106.82 44.9323 107.128 44.7008L107.707 44.2956L107.148 43.3115C105.932 41.1891 105.662 38.8351 106.357 36.6162C107.977 31.3294 113.881 28.9176 118.763 31.561C119.882 32.1784 121.522 33.9149 122.12 35.1112C122.603 36.0567 123.143 38.0054 123.143 38.7194C123.143 39.1631 123.085 39.1824 122.371 39.086C121.947 39.0281 121.561 39.0474 121.522 39.1246C121.406 39.2982 123.239 42.6555 123.452 42.6555C123.722 42.6748 126.076 39.742 125.941 39.5297C125.883 39.414 125.574 39.3368 125.285 39.3368C124.744 39.3368 124.744 39.3175 124.629 37.9283C124.224 32.3907 119.014 28.3001 113.206 28.9369Z" fill="#343433"/>
<path d="M113.418 32.8924C113.168 33.1239 113.11 33.6449 113.11 35.2656C113.11 36.9636 113.033 37.4652 112.724 38.0827C111.778 39.8964 113.283 41.5365 115.174 40.784C115.927 40.4752 115.965 40.4945 117.663 41.1699C119.728 41.9995 120.345 41.9995 120.345 41.1699C120.345 40.6489 120.249 40.5524 119.091 40.0893C118.396 39.7999 117.798 39.607 117.74 39.6263C117.548 39.7227 116.506 39.0281 116.313 38.6615C116.197 38.4493 115.946 38.0441 115.772 37.7547C115.502 37.3688 115.425 36.8285 115.425 35.3428C115.425 33.9343 115.348 33.3362 115.116 33.0081C114.769 32.5065 113.862 32.4293 113.418 32.8924Z" fill="#343433"/>
<path d="M110.254 33.8378C109.154 34.6289 108.093 36.9829 108.093 38.6808C108.093 41.1892 110.331 43.8905 112.82 44.4114C113.322 44.5272 113.361 44.5079 113.033 44.2956C111.007 42.9836 110.119 41.8645 109.81 40.2437C109.579 38.9124 109.83 37.6389 110.621 36.4234C111.045 35.748 111.18 35.3235 111.18 34.5518C111.18 33.4712 111.007 33.3362 110.254 33.8378Z" fill="#343433"/>
<path d="M100.954 53.1326V63.0695H103.057H105.141L105.257 62.2977C105.604 59.6736 108.961 57.4547 111.663 58.0528C113.438 58.458 113.939 58.786 115.618 60.6576C115.792 60.8698 116.023 61.5066 116.1 62.0661L116.235 63.0695H124.301L132.366 63.0502L132.501 62.3555C132.81 60.7155 134.122 59.1526 135.82 58.4001C136.823 57.9563 138.482 57.8791 139.659 58.2072C141.357 58.6895 142.978 60.4261 143.441 62.2398L143.634 63.0695H144.753H145.872L146.027 61.5838C146.2 59.5771 146.007 56.2584 145.622 54.9656C145.274 53.8272 144.676 53.0361 144.174 53.0361C143.229 53.0361 141.184 51.1452 138.907 48.1353C138.251 47.267 137.074 45.9163 136.264 45.106C134.951 43.7553 134.72 43.601 133.755 43.4273C133.176 43.3115 131.092 43.2151 129.124 43.2151L125.555 43.1958L124.899 44.6043C123.76 47.0354 121.194 49.1772 118.088 50.2963C116.853 50.7401 116.39 50.7979 114.267 50.8172C112.145 50.8172 111.701 50.7594 110.486 50.3156C107.784 49.3315 105.469 47.3442 104.311 45.0481C103.964 44.3149 103.655 43.601 103.655 43.4659C103.655 43.2537 103.308 43.1958 102.305 43.1958H100.954V53.1326ZM134.006 44.4499C134.102 44.6236 135.55 46.3215 137.248 48.2124C138.926 50.1033 140.315 51.7048 140.315 51.7627C140.315 51.8206 137.498 51.8785 134.045 51.8785H127.774V48.0195V44.1798L129.182 44.1219C132.154 44.0062 133.813 44.1219 134.006 44.4499ZM132.694 53.3256C132.694 53.6922 132.54 53.7115 130.533 53.7693L128.353 53.8272V53.3256V52.8239L130.533 52.8818C132.54 52.9397 132.694 52.959 132.694 53.3256Z" fill="#343433"/>
<path d="M121.522 43.9869C121.175 44.5658 121.175 44.5851 121.619 45.0481C122.217 45.6849 122.448 45.627 122.969 44.8166L123.394 44.1027L122.931 43.7554C122.275 43.2537 121.927 43.3116 121.522 43.9869Z" fill="#343433"/>
<path d="M107.939 45.7234L107.36 46.3602L108.035 46.9004C108.421 47.1898 108.788 47.4407 108.846 47.4407C108.903 47.4407 109.135 47.1513 109.367 46.8039L109.752 46.1865L109.135 45.6463L108.518 45.106L107.939 45.7234Z" fill="#343433"/>
<path d="M118.975 46.3409C118.416 46.746 118.396 46.7846 118.628 47.3828C118.975 48.2318 119.13 48.2703 119.921 47.7108C120.673 47.2091 120.673 47.1126 119.998 46.2251C119.67 45.8199 119.709 45.8199 118.975 46.3409Z" fill="#343433"/>
<path d="M111.122 47.8266L110.833 48.5984L111.72 48.8685C112.724 49.1579 112.878 49.0422 112.897 47.9809C112.917 47.4793 112.878 47.4407 111.74 47.132C111.528 47.0741 111.335 47.2863 111.122 47.8266Z" fill="#343433"/>
<path d="M115.251 47.5758C114.866 47.6529 114.827 47.7494 114.923 48.2511C114.981 48.5791 115.039 48.9071 115.039 49.0036C115.039 49.1965 116.197 49.2351 116.641 49.0615C116.872 48.9843 116.891 48.8106 116.737 48.1932C116.525 47.4021 116.409 47.3635 115.251 47.5758Z" fill="#343433"/>
<path d="M109.251 59.5964C106.26 60.6191 105.43 64.2851 107.688 66.5426C110.37 69.2246 114.846 67.3916 114.846 63.6291C114.846 63.0116 114.769 62.4521 114.653 62.3942C114.557 62.3363 114.46 62.1241 114.46 61.9311C114.46 61.7382 114.287 61.4295 114.074 61.2365C113.862 61.0436 113.689 60.7734 113.689 60.6384C113.689 60.5033 113.496 60.3297 113.264 60.2525C113.013 60.1753 112.743 60.0016 112.627 59.8666C112.434 59.635 111.142 59.2106 110.601 59.2106C110.447 59.2298 109.83 59.3842 109.251 59.5964ZM112.068 62.182C113.033 63.1467 112.917 64.4395 111.759 65.327C111.296 65.7129 109.945 65.6357 109.386 65.192C107.823 63.9571 108.672 61.5259 110.659 61.5259C111.257 61.5259 111.547 61.661 112.068 62.182Z" fill="#343433"/>
<path d="M137.132 59.4035C134.99 59.963 133.774 61.4873 133.755 63.5712C133.736 67.1986 138.077 69.1667 140.759 66.7548C143.538 64.2658 142.168 59.8473 138.482 59.3456C138.058 59.2877 137.46 59.307 137.132 59.4035ZM139.216 61.9118C140.778 63.1467 139.93 65.5778 137.942 65.5778C136.9 65.5778 135.878 64.5745 135.878 63.5519C135.878 62.5099 136.9 61.5259 137.961 61.5259C138.425 61.5259 138.907 61.6803 139.216 61.9118Z" fill="#343433"/>
</svg>
