<svg width="248" height="90" viewBox="0 0 248 90" fill="none" xmlns="http://www.w3.org/2000/svg">
<g clip-path="url(#clip0_71_250)">
<path d="M0 8C0 3.58172 3.58172 0 8 0H240C244.418 0 248 3.58172 248 8V90H0V8Z" fill="#8BEAA4"/>
<path d="M191.193 46.6706C120.643 46.6706 109.948 46.5432 109.948 45.7026C109.948 45.0897 105.983 45 78.8643 45C51.4825 45 47.7807 45.0854 47.7807 45.716C47.7807 46.3212 46.9011 46.4325 42.1038 46.4339C32.5453 46.4368 25.8174 46.9594 25.8174 47.6998C25.8174 48.1757 25.1459 48.3413 23.2116 48.3413H20.6058V50.9666C20.6058 52.9819 20.4763 53.5919 20.0474 53.5919C19.6186 53.5919 19.489 54.2019 19.489 56.2172C19.489 58.2325 19.6186 58.8425 20.0474 58.8425C20.3545 58.8425 20.6058 59.1647 20.6058 59.5585C20.6058 59.9523 20.3694 60.2745 20.0802 60.2745C19.7571 60.2745 19.4574 61.01 19.3029 62.1838C19.1484 63.3575 18.8487 64.0931 18.5256 64.0931C18.112 64.0931 18 65.0076 18 68.389C18 71.8893 18.1035 72.685 18.5584 72.685C18.8979 72.685 19.1168 73.1294 19.1168 73.8186C19.1168 74.442 19.2214 75.6234 19.3494 76.4439C19.5754 77.8926 19.6398 77.9356 21.583 77.9356C23.1133 77.9356 23.5839 78.1041 23.5839 78.6516C23.5839 79.1924 24.0388 79.3675 25.4452 79.3675C26.8117 79.3675 27.3065 79.1862 27.3065 78.6845C27.3065 78.1107 29.0412 77.9766 38.1161 77.8492C47.2342 77.7208 48.9794 77.5847 49.2705 76.9809C49.5709 76.357 52.5222 76.2649 72.164 76.2649C91.0532 76.2649 94.765 76.3728 95.0338 76.9308C95.3018 77.4874 99.8873 77.6358 122.939 77.8344C145.831 78.0315 150.524 78.1819 150.524 78.7198C150.524 79.2573 154.024 79.3675 171.123 79.3675C182.453 79.3675 201.782 79.5098 214.076 79.684L236.43 80L236.692 78.0134C236.854 76.7785 237.153 76.0263 237.479 76.0263C237.919 76.0263 238.004 73.9394 238 63.2578C237.995 49.9761 237.889 48.3413 237.031 48.3413C236.748 48.3413 236.516 47.9656 236.516 47.506C236.516 46.715 234.11 46.6706 191.193 46.6706Z" fill="#3AD563"/>
<path d="M163.193 15.6706C92.6433 15.6706 81.948 15.5432 81.948 14.7026C81.948 14.0897 77.9834 14 50.8643 14C23.4825 14 19.7807 14.0854 19.7807 14.716C19.7807 15.3212 18.9011 15.4325 14.1038 15.4339C4.54526 15.4368 -2.18257 15.9594 -2.18257 16.6998C-2.18257 17.1757 -2.85413 17.3413 -4.78838 17.3413H-7.3942V19.9666C-7.3942 21.9819 -7.52374 22.5919 -7.95258 22.5919C-8.38142 22.5919 -8.51097 23.2019 -8.51097 25.2172C-8.51097 27.2325 -8.38142 27.8425 -7.95258 27.8425C-7.64546 27.8425 -7.3942 28.1647 -7.3942 28.5585C-7.3942 28.9523 -7.63057 29.2745 -7.91982 29.2745C-8.24294 29.2745 -8.54262 30.01 -8.6971 31.1838C-8.85159 32.3575 -9.15126 33.0931 -9.47438 33.0931C-9.88795 33.0931 -10 34.0076 -10 37.389C-10 40.8893 -9.89651 41.685 -9.44162 41.685C-9.10211 41.685 -8.88322 42.1294 -8.88322 42.8186C-8.88322 43.442 -8.77863 44.6234 -8.65057 45.4439C-8.42461 46.8926 -8.36021 46.9356 -6.41701 46.9356C-4.88666 46.9356 -4.41612 47.1041 -4.41612 47.6516C-4.41612 48.1924 -3.96123 48.3675 -2.55482 48.3675C-1.18826 48.3675 -0.693527 48.1862 -0.693527 47.6845C-0.693527 47.1107 1.0412 46.9766 10.1161 46.8492C19.2342 46.7208 20.9794 46.5847 21.2705 45.9809C21.5709 45.357 24.5222 45.2649 44.164 45.2649C63.0532 45.2649 66.765 45.3728 67.0338 45.9308C67.3018 46.4874 71.8873 46.6358 94.9394 46.8344C117.831 47.0315 122.524 47.1819 122.524 47.7198C122.524 48.2573 126.024 48.3675 143.123 48.3675C154.453 48.3675 173.782 48.5098 186.076 48.684L208.43 49L208.692 47.0134C208.854 45.7785 209.153 45.0263 209.479 45.0263C209.919 45.0263 210.004 42.9394 210 32.2578C209.995 18.9761 209.889 17.3413 209.031 17.3413C208.748 17.3413 208.516 16.9656 208.516 16.506C208.516 15.715 206.11 15.6706 163.193 15.6706Z" fill="#3AD563"/>
</g>
<path d="M129.341 18.4402C125.001 20.9202 121.121 23.1602 120.721 23.4402L119.961 23.9202V32.5002V41.1002L120.501 41.4802C121.181 41.9402 136.181 50.6402 136.821 50.9402C137.321 51.1602 136.961 51.3402 145.861 46.3202C147.181 45.5802 149.561 44.2202 151.161 43.3402C152.761 42.4402 154.181 41.5602 154.321 41.3802C154.501 41.1202 154.561 39.0602 154.561 32.6202C154.561 26.1802 154.501 24.1202 154.321 23.8802C154.061 23.5602 151.621 22.1402 142.361 16.8602C139.661 15.3202 137.401 14.0402 137.341 14.0002C137.281 13.9802 133.681 15.9602 129.341 18.4402ZM140.821 17.3602C141.441 17.7202 141.961 18.0602 141.961 18.1202C141.961 18.2002 137.321 20.8602 127.781 26.2602L126.661 26.9002L124.321 25.5602C122.521 24.5402 122.041 24.1602 122.221 24.0002C122.361 23.8602 125.781 21.8602 129.841 19.5402L137.241 15.3402L138.441 16.0402C139.121 16.4202 140.181 17.0202 140.821 17.3602ZM144.861 19.6802C145.841 20.2602 146.121 20.5002 145.921 20.6602C145.781 20.7602 142.341 22.7402 138.261 25.0402C134.201 27.3402 130.701 29.3802 130.521 29.5602C130.181 29.9002 130.161 30.5602 130.161 37.7202C130.161 42.0002 130.101 45.5202 130.001 45.5202C129.921 45.5202 129.281 45.1802 128.561 44.7602L127.261 44.0002L127.201 36.3802C127.181 32.1002 127.241 28.5402 127.341 28.2802C127.481 27.9202 128.581 27.2002 131.301 25.6602C133.361 24.5002 136.861 22.5002 139.061 21.2402C141.261 19.9802 143.161 18.9402 143.301 18.9402C143.421 18.9202 144.121 19.2602 144.861 19.6802ZM150.041 22.6602C151.321 23.4002 152.361 24.0602 152.361 24.1402C152.361 24.2202 149.321 26.0202 145.621 28.1202C141.901 30.2402 138.501 32.1802 138.041 32.4202L137.241 32.9002L134.701 31.4602C132.721 30.3602 132.221 29.9802 132.401 29.8002C132.541 29.6802 135.181 28.1602 138.261 26.4202C141.341 24.6802 144.621 22.8202 145.561 22.2802C146.481 21.7602 147.361 21.3202 147.481 21.3202C147.621 21.3202 148.781 21.9202 150.041 22.6602ZM123.441 26.4402C124.561 27.0602 125.621 27.7202 125.821 27.8802C126.141 28.1602 126.161 28.7802 126.161 35.6602C126.161 41.5002 126.101 43.1202 125.921 43.1202C125.781 43.1202 124.681 42.5402 123.461 41.8402L121.261 40.5602L121.201 32.9402C121.181 28.7602 121.221 25.3202 121.301 25.3202C121.381 25.3202 122.341 25.8202 123.441 26.4402ZM153.161 33.1002C153.161 37.3202 153.141 40.8002 153.121 40.8202C153.081 40.8402 151.301 41.8402 149.161 43.0602C147.021 44.2802 143.661 46.1802 141.681 47.3002C139.721 48.4002 138.041 49.3202 137.941 49.3202C137.841 49.3202 137.761 46.0002 137.761 41.6602V33.9802L144.421 30.2202C148.061 28.1402 151.461 26.2002 151.961 25.9002C152.461 25.6002 152.921 25.3602 153.021 25.3802C153.101 25.4002 153.181 28.8802 153.161 33.1002ZM135.221 33.1602L136.561 33.9402V41.6202C136.561 45.8602 136.501 49.3202 136.421 49.3202C136.321 49.3002 135.181 48.6602 133.861 47.8602L131.461 46.4202L131.401 39.0202C131.381 34.9602 131.401 31.5002 131.461 31.3602C131.561 31.0802 131.801 31.2002 135.221 33.1602Z" fill="#343433"/>
<path d="M145.261 33.8602C143.621 34.8002 142.241 35.6002 142.201 35.6202C142.161 35.6602 142.101 41.2402 142.141 41.9802C142.161 42.1802 142.281 42.3802 142.441 42.4402C142.681 42.5402 147.021 40.2402 148.421 39.2802L148.961 38.9002V35.7402C148.961 32.8002 148.841 32.0802 148.381 32.1202C148.301 32.1402 146.921 32.9202 145.261 33.8602ZM147.761 36.1202V38.3002L145.621 39.5002C144.461 40.1602 143.421 40.6602 143.321 40.6002C143.241 40.5402 143.181 39.5802 143.201 38.4602L143.261 36.4202L145.361 35.2002C146.521 34.5202 147.521 33.9602 147.621 33.9402C147.701 33.9202 147.761 34.9002 147.761 36.1202Z" fill="#343433"/>
<path d="M145.221 35.9202C143.761 36.7402 143.361 37.3202 144.061 37.6002C144.441 37.7402 147.301 36.3602 147.461 35.9602C147.581 35.6402 147.221 35.1202 146.881 35.1202C146.761 35.1202 146.001 35.4802 145.221 35.9202Z" fill="#343433"/>
<path d="M145.321 37.7402C144.161 38.3202 143.761 38.6202 143.761 38.9202C143.761 39.6602 144.381 39.6202 145.901 38.8002C147.421 38.0002 147.721 37.6602 147.341 37.2002C147.041 36.8402 147.101 36.8202 145.321 37.7402Z" fill="#343433"/>
<path d="M110.141 41.0002C106.161 42.4002 103.501 46.1802 103.501 50.4202C103.501 52.3202 103.761 53.3402 104.681 55.1802C105.061 55.9202 105.361 56.6202 105.361 56.7402C105.361 56.8602 103.221 59.6202 100.621 62.8602C98.001 66.1202 94.521 70.4202 92.901 72.4402C91.081 74.7002 89.961 76.2602 90.001 76.4802C90.061 76.8002 91.841 76.8202 123.561 76.8202C153.961 76.8202 157.061 76.8002 157.121 76.5002C157.141 76.3202 156.161 74.9402 154.941 73.4002C146.981 63.5202 138.401 52.9602 138.121 52.6802C137.781 52.3402 137.161 52.3202 130.541 52.3202H123.301L123.421 51.3402C123.961 46.8202 120.801 42.2002 116.181 40.8002C114.721 40.3402 111.701 40.4402 110.141 41.0002ZM115.121 46.5002C117.961 47.9602 118.201 51.5802 115.601 53.4202C114.841 53.9402 114.541 54.0202 113.461 54.0202C112.381 54.0202 112.081 53.9402 111.321 53.4202C109.281 51.9802 108.901 49.1802 110.521 47.4402C111.701 46.1802 113.701 45.7802 115.121 46.5002ZM139.241 56.0602C149.421 68.6602 154.961 75.5402 154.961 75.6202C154.961 75.6802 140.841 75.7202 123.561 75.7202C106.301 75.7202 92.161 75.6602 92.161 75.5602C92.161 75.4802 92.681 74.7802 93.301 74.0202C93.921 73.2402 95.561 71.2202 96.941 69.5202C103.621 61.2202 106.021 58.3202 106.181 58.3202C106.261 58.3202 107.581 60.6802 109.081 63.5602C110.601 66.4602 112.081 69.0602 112.381 69.3602C113.061 70.0602 113.921 70.1002 114.501 69.4602C114.921 69.0202 117.521 64.2402 121.141 57.2602L123.001 53.7202H130.161H137.341L139.241 56.0602Z" fill="#343433"/>
<path d="M122.461 56.9001C122.241 57.6201 122.521 58.1601 123.121 58.0801C123.601 58.0201 123.661 57.9201 123.661 57.3201C123.661 56.7201 123.601 56.6201 123.121 56.5601C122.741 56.5201 122.561 56.6001 122.461 56.9001Z" fill="#343433"/>
<path d="M122.761 60.4802C122.761 61.1002 123.401 61.9202 123.881 61.9202C124.341 61.9202 124.441 61.3402 124.101 60.6002C123.841 60.1002 123.641 59.9202 123.261 59.9202C122.841 59.9202 122.761 60.0202 122.761 60.4802Z" fill="#343433"/>
<path d="M125.781 62.1802C125.321 62.7602 125.741 63.1402 126.741 63.0802C127.581 63.0202 127.661 62.9802 127.661 62.5202C127.661 62.0802 127.561 62.0202 126.841 61.9602C126.321 61.9202 125.941 62.0002 125.781 62.1802Z" fill="#343433"/>
<path d="M129.581 62.1802C129.121 62.7402 129.541 63.1202 130.601 63.1202C131.561 63.1202 131.581 63.1002 131.521 62.5602C131.461 62.0802 131.361 62.0202 130.641 61.9602C130.121 61.9202 129.741 62.0002 129.581 62.1802Z" fill="#343433"/>
<path d="M133.441 62.6201C133.001 62.9401 133.161 63.3601 134.021 64.0001C134.521 64.3601 134.601 64.3801 134.881 64.0801C135.301 63.6601 135.101 63.1001 134.381 62.6601C133.901 62.3801 133.761 62.3601 133.441 62.6201Z" fill="#343433"/>
<path d="M134.901 65.8602C134.841 65.9402 134.741 66.3402 134.661 66.7402C134.481 67.7202 134.941 68.1402 135.561 67.5202C136.141 66.9402 136.061 65.8402 135.421 65.7602C135.201 65.7202 134.961 65.7802 134.901 65.8602Z" fill="#343433"/>
<path d="M116.441 68.8002C116.141 69.0402 116.101 69.1602 116.281 69.4602C116.681 70.1202 118.361 70.0402 118.361 69.3602C118.361 68.5602 117.221 68.2202 116.441 68.8002Z" fill="#343433"/>
<path d="M120.281 68.8402C119.901 69.2202 119.881 69.3602 120.201 69.6802C120.541 70.0202 121.681 69.9802 122.041 69.6002C122.221 69.4402 122.361 69.2602 122.361 69.2202C122.361 68.9402 121.641 68.5202 121.161 68.5202C120.841 68.5202 120.441 68.6602 120.281 68.8402Z" fill="#343433"/>
<path d="M124.081 68.8402C123.561 69.3602 124.001 69.9202 124.961 69.9202C125.541 69.9202 125.801 69.8202 125.961 69.5402C126.221 69.0202 125.741 68.5202 124.961 68.5202C124.641 68.5202 124.241 68.6602 124.081 68.8402Z" fill="#343433"/>
<path d="M127.961 68.8202C127.841 68.9802 127.761 69.2602 127.801 69.4602C127.921 70.1402 129.961 69.9802 129.961 69.3002C129.961 68.6402 128.441 68.2602 127.961 68.8202Z" fill="#343433"/>
<path d="M131.801 68.7602C131.401 69.1602 131.521 69.7002 132.041 69.8402C132.701 70.0002 133.661 69.5202 133.661 69.0202C133.661 68.7002 133.501 68.6002 132.861 68.5602C132.401 68.5202 131.941 68.6202 131.801 68.7602Z" fill="#343433"/>
<defs>
<clipPath id="clip0_71_250">
<path d="M0 8C0 3.58172 3.58172 0 8 0H240C244.418 0 248 3.58172 248 8V90H0V8Z" fill="white"/>
</clipPath>
</defs>
</svg>
