<svg width="218" height="58" viewBox="0 0 218 58" fill="none" xmlns="http://www.w3.org/2000/svg">
<g clip-path="url(#clip0_1_1042)">
<path d="M51.1999 46.4808H41.7221L47.6502 11.6318H57.1275L51.1999 46.4808Z" fill="#00579F"/>
<path d="M85.5578 12.4837C83.6884 11.7785 80.7233 11 77.057 11C67.6973 11 61.1063 15.7451 61.0659 22.5293C60.9882 27.5346 65.7848 30.3146 69.3724 31.9836C73.0392 33.689 74.2857 34.8021 74.2857 36.3222C74.2484 38.6568 71.3227 39.733 68.5939 39.733C64.81 39.733 62.7824 39.1782 59.7013 37.8793L58.4532 37.3225L57.127 45.1453C59.3499 46.1081 63.4453 46.9626 67.6973 47C77.6421 47 84.1165 42.3283 84.1932 35.0987C84.231 31.1316 81.6982 28.0919 76.2375 25.6079C72.9226 24.0134 70.8925 22.9382 70.8925 21.3068C70.9314 19.8236 72.6096 18.3045 76.3516 18.3045C79.4328 18.2301 81.6966 18.9342 83.4116 19.6388L84.2688 20.0089L85.5578 12.4837Z" fill="#00579F"/>
<path d="M98.1546 34.135C98.9351 32.133 101.939 24.3846 101.939 24.3846C101.899 24.459 102.718 22.3456 103.186 21.0482L103.848 24.051C103.848 24.051 105.643 32.3927 106.032 34.135C104.551 34.135 100.027 34.135 98.1546 34.135ZM109.854 11.6318H102.523C100.262 11.6318 98.5443 12.2616 97.5689 14.5233L83.4909 46.4803H93.4356C93.4356 46.4803 95.0729 42.1791 95.4248 41.2527C96.5158 41.2527 106.19 41.2527 107.594 41.2527C107.866 42.4762 108.724 46.4803 108.724 46.4803H117.5L109.854 11.6318Z" fill="#00579F"/>
<path d="M33.8058 11.6318L24.5239 35.3955L23.5096 30.5759C21.7936 25.0148 16.4118 18.9728 10.4059 15.9685L18.9078 46.4438H28.9304L43.8278 11.6318H33.8058Z" fill="#00579F"/>
<path d="M15.9049 11.6318H0.656002L0.5 12.336C12.3951 15.2279 20.273 22.1988 23.5096 30.5774L20.1947 14.5612C19.6489 12.3355 17.9718 11.7053 15.9049 11.6318Z" fill="#FAA61A"/>
</g>
<g clip-path="url(#clip1_1_1042)">
<path d="M215.845 56.7271V56.8736H216.001C216.031 56.874 216.06 56.8676 216.085 56.8549C216.096 56.8486 216.104 56.8402 216.109 56.8304C216.115 56.8206 216.117 56.8098 216.117 56.7989C216.117 56.7882 216.115 56.7776 216.109 56.768C216.104 56.7584 216.096 56.7503 216.085 56.7443C216.06 56.731 216.031 56.7245 216.001 56.7256H215.845V56.7271ZM216.003 56.6234C216.07 56.6198 216.137 56.6366 216.191 56.671C216.213 56.6866 216.23 56.7065 216.242 56.729C216.253 56.7515 216.259 56.7761 216.257 56.8007C216.258 56.8219 216.254 56.843 216.245 56.8627C216.236 56.8823 216.222 56.9 216.204 56.9146C216.162 56.9465 216.109 56.9657 216.054 56.9692L216.264 57.178H216.102L215.909 56.9707H215.846V57.178H215.711V56.6238H216.005L216.003 56.6234ZM215.961 57.3692C216.032 57.3698 216.102 57.3573 216.167 57.3326C216.23 57.3091 216.287 57.2754 216.335 57.2333C216.384 57.1913 216.422 57.1416 216.449 57.0868C216.504 56.9707 216.504 56.8402 216.449 56.7241C216.422 56.6695 216.383 56.6199 216.335 56.5776C216.287 56.5356 216.23 56.5019 216.167 56.4783C216.102 56.455 216.032 56.4432 215.961 56.4439C215.889 56.4433 215.818 56.455 215.751 56.4783C215.687 56.5014 215.629 56.5351 215.579 56.5776C215.505 56.6441 215.455 56.7281 215.435 56.8193C215.415 56.9105 215.426 57.0048 215.467 57.0905C215.493 57.1454 215.531 57.1953 215.579 57.237C215.629 57.2794 215.687 57.3131 215.751 57.3363C215.817 57.361 215.889 57.3735 215.961 57.3729M215.961 56.3106C216.146 56.3104 216.323 56.3736 216.455 56.4864C216.518 56.5406 216.569 56.6052 216.603 56.6765C216.639 56.7498 216.658 56.8286 216.658 56.9082C216.658 56.9879 216.639 57.0667 216.603 57.1399C216.568 57.2108 216.517 57.2753 216.455 57.33C216.39 57.3839 216.315 57.4274 216.233 57.4583C216.147 57.4901 216.055 57.5063 215.961 57.5059C215.867 57.5065 215.773 57.4903 215.686 57.4583C215.603 57.4281 215.527 57.3846 215.463 57.33C215.4 57.2733 215.35 57.2067 215.316 57.1337C215.28 57.0605 215.262 56.9816 215.262 56.902C215.262 56.8223 215.28 56.7435 215.316 56.6703C215.351 56.599 215.401 56.5344 215.465 56.4802C215.528 56.4247 215.604 56.3811 215.688 56.352C215.775 56.3199 215.869 56.3037 215.963 56.3043M151.651 54.1701C151.651 53.1133 152.445 52.2451 153.742 52.2451C154.982 52.2451 155.818 53.0759 155.818 54.1701C155.818 55.2643 154.982 56.0952 153.742 56.0952C152.445 56.0952 151.651 55.227 151.651 54.1701ZM157.232 54.1701V51.1626H155.733V51.8953C155.257 51.3538 154.536 51.0142 153.555 51.0142C151.623 51.0142 150.107 52.3359 150.107 54.1716C150.107 56.0072 151.623 57.3289 153.555 57.3289C154.536 57.3289 155.257 56.989 155.733 56.4479V57.178H157.23V54.1701H157.232ZM207.88 54.1701C207.88 53.1133 208.674 52.2451 209.972 52.2451C211.213 52.2451 212.048 53.0759 212.048 54.1701C212.048 55.2643 211.213 56.0952 209.972 56.0952C208.675 56.0952 207.88 55.227 207.88 54.1701ZM213.463 54.1701V48.7485H211.963V51.8953C211.487 51.3538 210.766 51.0142 209.785 51.0142C207.853 51.0142 206.337 52.3359 206.337 54.1716C206.337 56.0072 207.853 57.3289 209.785 57.3289C210.766 57.3289 211.487 56.989 211.963 56.4479V57.178H213.463V54.1701ZM175.836 52.1832C176.802 52.1832 177.422 52.7114 177.581 53.6415H174.004C174.164 52.7733 174.768 52.1832 175.836 52.1832M175.866 51.011C173.846 51.011 172.433 52.2931 172.433 54.1683C172.433 56.0801 173.903 57.3256 175.967 57.3256C177.005 57.3256 177.956 57.0996 178.792 56.4831L178.058 55.5142C177.48 55.9171 176.744 56.1431 176.052 56.1431C175.086 56.1431 174.207 55.753 173.991 54.6705H179.109C179.124 54.5079 179.139 54.3438 179.139 54.1679C179.124 52.2935 177.795 51.0106 175.865 51.0106M193.963 54.1679C193.963 53.1111 194.757 52.2429 196.054 52.2429C197.294 52.2429 198.131 53.0737 198.131 54.1679C198.131 55.2621 197.294 56.093 196.054 56.093C194.757 56.093 193.963 55.2248 193.963 54.1679M199.544 54.1679V51.1626H198.046V51.8953C197.568 51.3538 196.849 51.0142 195.868 51.0142C193.936 51.0142 192.42 52.3359 192.42 54.1716C192.42 56.0072 193.935 57.3289 195.868 57.3289C196.849 57.3289 197.568 56.989 198.046 56.4479V57.178H199.544V54.1701L199.544 54.1679ZM185.498 54.1679C185.498 55.9919 186.954 57.3253 189.176 57.3253C190.214 57.3253 190.906 57.1238 191.654 56.6084L190.934 55.5515C190.371 55.9043 189.78 56.093 189.128 56.093C187.931 56.0801 187.051 55.3255 187.051 54.1679C187.051 53.0103 187.931 52.2561 189.128 52.2429C189.778 52.2429 190.369 52.4316 190.934 52.7843L191.654 51.7275C190.904 51.2121 190.213 51.0106 189.176 51.0106C186.954 51.0106 185.498 52.3436 185.498 54.1679ZM204.822 51.0106C203.958 51.0106 203.394 51.3634 203.005 51.8916V51.1626H201.519V57.1747H203.02V53.8045C203.02 52.8096 203.51 52.2568 204.49 52.2568C204.811 52.2528 205.13 52.3042 205.428 52.4081L205.89 51.1758C205.558 51.0619 205.125 51.0117 204.821 51.0117M164.643 51.6407C163.921 51.226 162.928 51.0117 161.832 51.0117C160.085 51.0117 158.961 51.7418 158.961 52.9364C158.961 53.9166 159.798 54.5214 161.339 54.7101L162.047 54.798C162.869 54.8987 163.257 55.0874 163.257 55.427C163.257 55.8919 162.711 56.1571 161.686 56.1571C160.648 56.1571 159.899 55.8677 159.393 55.5281L158.689 56.5476C159.511 57.0758 160.549 57.3278 161.674 57.3278C163.664 57.3278 164.818 56.5102 164.818 55.3654C164.818 54.3086 163.91 53.7558 162.41 53.5672L161.703 53.4778C161.055 53.4045 160.535 53.2906 160.535 52.8876C160.535 52.448 161.025 52.1836 161.847 52.1836C162.727 52.1836 163.579 52.4729 163.996 52.699L164.645 51.6421L164.643 51.6407ZM183.984 51.0128C183.119 51.0128 182.556 51.3656 182.168 51.8938V51.1626H180.683V57.1747H182.182V53.8045C182.182 52.8096 182.672 52.2568 183.652 52.2568C183.973 52.2528 184.291 52.3042 184.589 52.4081L185.051 51.1758C184.719 51.0619 184.287 51.0117 183.983 51.0117M171.192 51.1626H168.741V49.3387H167.226V51.1626H165.828V52.3576H167.226V55.1002C167.226 56.4952 167.847 57.326 169.62 57.326C170.271 57.326 171.02 57.1502 171.495 56.8611L171.062 55.7417C170.615 55.9677 170.125 56.0816 169.735 56.0816C168.986 56.0816 168.741 55.6787 168.741 55.0753V52.3587H171.192V51.1626ZM148.782 57.1762V53.403C148.782 51.9821 147.743 51.026 146.07 51.0132C145.19 51.0003 144.282 51.2392 143.647 52.0828C143.171 51.4161 142.422 51.0132 141.369 51.0132C140.632 51.0132 139.913 51.2018 139.35 51.9059V51.1626H137.85V57.1747H139.362V53.8412C139.362 52.7975 140.025 52.2429 141.05 52.2429C142.045 52.2429 142.549 52.8089 142.549 53.828V57.174H144.064V53.8404C144.064 52.7968 144.756 52.2422 145.751 52.2422C146.775 52.2422 147.263 52.8081 147.263 53.8273V57.1733L148.782 57.1762Z" fill="#231F20"/>
<path d="M216.699 37.177V36.2979H216.437L216.133 36.9012L215.831 36.2979H215.568V37.177H215.754V36.5147L216.038 37.0862H216.232L216.516 36.5133V37.177H216.7H216.699ZM215.034 37.177V36.4484H215.37V36.3001H214.512V36.4484H214.848V37.177H215.033H215.034Z" fill="#F79410"/>
<path d="M186.864 40.9476H164.148V5.34094H186.864L186.864 40.9476Z" fill="#FF5F00"/>
<path d="M165.588 23.1449C165.588 15.9221 169.465 9.48803 175.503 5.34161C170.933 2.19835 165.28 0.492402 159.46 0.499903C145.122 0.499903 133.5 10.6383 133.5 23.1449C133.5 35.6516 145.122 45.79 159.46 45.79C165.28 45.7976 170.933 44.0916 175.504 40.9483C169.466 36.8026 165.588 30.3681 165.588 23.1449Z" fill="#EB001B"/>
<path d="M217.511 23.1451C217.511 35.6517 205.888 45.7901 191.551 45.7901C185.73 45.7976 180.076 44.0916 175.505 40.9484C181.544 36.802 185.422 30.3682 185.422 23.1451C185.422 15.9219 181.544 9.48815 175.505 5.34173C180.076 2.19857 185.729 0.492655 191.55 0.500024C205.888 0.500024 217.51 10.6384 217.51 23.1451" fill="#F79E1B"/>
</g>
<defs>
<clipPath id="clip0_1_1042">
<rect width="117" height="36" fill="white" transform="translate(0.5 11)"/>
</clipPath>
<clipPath id="clip1_1_1042">
<rect width="84" height="57" fill="white" transform="translate(133.5 0.5)"/>
</clipPath>
</defs>
</svg>
