<svg width="20" height="21" viewBox="0 0 20 21" fill="none" xmlns="http://www.w3.org/2000/svg">
<path d="M19.9999 10.8589C19.9999 10.0367 19.9318 9.43667 19.7845 8.81445H10.204V12.5255H15.8275C15.7142 13.4478 15.1019 14.8367 13.7414 15.77L13.7223 15.8942L16.7515 18.1939L16.9613 18.2145C18.8887 16.47 19.9999 13.9033 19.9999 10.8589Z" fill="#4285F4"/>
<path d="M10.204 20.6367C12.9591 20.6367 15.272 19.7478 16.9614 18.2145L13.7414 15.77C12.8798 16.3589 11.7233 16.77 10.204 16.77C7.50565 16.77 5.21542 15.0256 4.39902 12.6145L4.27935 12.6245L1.12957 15.0134L1.08838 15.1256C2.76637 18.3922 6.21309 20.6367 10.204 20.6367Z" fill="#34A853"/>
<path d="M4.39905 12.6145C4.18363 11.9923 4.05896 11.3256 4.05896 10.6367C4.05896 9.94777 4.18363 9.28113 4.38771 8.65891L4.38201 8.5264L1.19276 6.09912L1.08841 6.14776C0.39683 7.50334 0 9.02559 0 10.6367C0 12.2478 0.39683 13.77 1.08841 15.1256L4.39905 12.6145Z" fill="#FBBC05"/>
<path d="M10.204 4.50337C12.1201 4.50337 13.4126 5.31448 14.1496 5.99231L17.0294 3.23673C15.2608 1.62561 12.9591 0.636719 10.204 0.636719C6.21308 0.636719 2.76637 2.88115 1.08838 6.1478L4.38768 8.65895C5.21542 6.24784 7.50565 4.50337 10.204 4.50337Z" fill="#EB4335"/>
</svg>
