<?xml version="1.0" standalone="no"?>
<!DOCTYPE svg PUBLIC "-//W3C//DTD SVG 20010904//EN"
 "http://www.w3.org/TR/2001/REC-SVG-20010904/DTD/svg10.dtd">
<svg version="1.0" xmlns="http://www.w3.org/2000/svg"
 width="200.000000pt" height="133.000000pt" viewBox="0 0 200.000000 133.000000"
 preserveAspectRatio="xMidYMid meet">

<g transform="translate(0.000000,133.000000) scale(0.100000,-0.100000)"
fill="#000000" stroke="none">
<path d="M958 1133 c7 -3 16 -2 19 1 4 3 -2 6 -13 5 -11 0 -14 -3 -6 -6z"/>
<path d="M878 1123 c12 -2 30 -2 40 0 9 3 -1 5 -23 4 -22 0 -30 -2 -17 -4z"/>
<path d="M783 1113 c9 -2 25 -2 35 0 9 3 1 5 -18 5 -19 0 -27 -2 -17 -5z"/>
<path d="M708 1103 c7 -3 16 -2 19 1 4 3 -2 6 -13 5 -11 0 -14 -3 -6 -6z"/>
<path d="M489 1083 c-11 -12 -8 -13 17 -7 37 9 39 10 15 17 -11 3 -26 -2 -32
-10z"/>
<path d="M613 1093 c9 -2 23 -2 30 0 6 3 -1 5 -18 5 -16 0 -22 -2 -12 -5z"/>
<path d="M428 1073 c6 -2 18 -2 25 0 6 3 1 5 -13 5 -14 0 -19 -2 -12 -5z"/>
<path d="M290 1060 c-9 -6 -10 -10 -3 -10 6 0 15 5 18 10 8 12 4 12 -15 0z"/>
<path d="M338 1063 c6 -2 18 -2 25 0 6 3 1 5 -13 5 -14 0 -19 -2 -12 -5z"/>
<path d="M1169 1025 c-3 -2 -46 -5 -97 -6 -51 -1 -92 -5 -92 -10 0 -5 -5 -9
-11 -9 -5 0 -7 5 -4 10 3 6 -1 10 -10 10 -9 0 -14 -4 -11 -9 3 -5 -1 -14 -9
-21 -14 -11 -14 -15 -1 -29 9 -10 16 -46 18 -96 l4 -80 115 -22 c63 -12 126
-22 142 -22 15 -1 27 -5 27 -11 0 -5 -4 -10 -9 -10 -18 0 -70 -97 -79 -147
-10 -58 2 -75 28 -38 8 11 46 58 84 103 57 67 74 82 98 82 35 0 35 9 3 61 -14
22 -23 44 -20 49 8 13 -64 102 -76 94 -11 -6 -12 -24 -1 -23 4 1 14 1 22 0 12
-1 11 -4 -4 -12 -15 -9 -24 -5 -54 25 -40 39 -39 52 2 36 24 -9 26 -8 16 9 -5
11 -19 23 -30 26 -11 3 -20 11 -20 16 0 5 -8 9 -17 10 -12 1 -10 4 7 9 22 7
22 8 4 9 -11 1 -23 -1 -25 -4z m91 -195 c0 -5 -7 -10 -15 -10 -8 0 -15 5 -15
10 0 6 7 10 15 10 8 0 15 -4 15 -10z"/>
<path d="M1350 893 c68 -71 132 -132 144 -136 20 -8 248 -1 316 9 l35 6 -45
39 c-110 97 -190 160 -216 169 -43 17 -211 40 -288 40 l-68 0 122 -127z"/>
<path d="M765 993 c-126 -7 -591 -34 -602 -35 -7 -1 -10 -11 -7 -28 3 -14 1
-45 -6 -69 -11 -40 -13 -42 -41 -36 -29 7 -30 6 -27 -26 2 -18 9 -35 17 -37 8
-3 11 0 7 6 -3 6 -2 13 4 17 5 3 10 0 10 -8 0 -9 8 -13 23 -10 13 3 155 -3
316 -12 260 -14 295 -15 315 -1 16 10 35 48 59 113 20 54 37 105 39 113 3 17
-12 19 -107 13z"/>
<path d="M52 951 c-11 -7 -42 -119 -42 -153 0 -13 8 -18 31 -18 30 0 31 1 24
40 -9 51 4 135 16 105 4 -11 8 -32 8 -46 1 -40 27 -45 35 -7 9 46 8 51 -14 45
-15 -4 -20 0 -20 13 0 20 -21 32 -38 21z"/>
<path d="M105 951 c-3 -5 -1 -12 5 -16 12 -7 30 2 30 16 0 12 -27 12 -35 0z"/>
<path d="M136 889 c-8 -42 0 -50 9 -9 4 17 5 34 2 36 -2 3 -7 -10 -11 -27z"/>
<path d="M72 865 c0 -16 2 -22 5 -12 2 9 2 23 0 30 -3 6 -5 -1 -5 -18z"/>
<path d="M230 750 c0 -6 7 -10 15 -10 8 0 15 2 15 4 0 2 -7 6 -15 10 -8 3 -15
1 -15 -4z"/>
<path d="M271 746 c10 -9 79 -14 74 -5 -4 5 -22 9 -42 9 -20 0 -34 -2 -32 -4z"/>
<path d="M408 733 c7 -3 16 -2 19 1 4 3 -2 6 -13 5 -11 0 -14 -3 -6 -6z"/>
<path d="M789 724 c-6 -8 -9 -25 -7 -39 4 -20 1 -25 -16 -26 -12 0 -15 -3 -8
-6 7 -3 29 -2 48 1 31 6 34 10 34 40 0 25 -5 35 -20 39 -10 3 -24 -1 -31 -9z"/>
<path d="M13 723 c9 -2 23 -2 30 0 6 3 -1 5 -18 5 -17 0 -22 -2 -12 -5z"/>
<path d="M86 718 c3 -4 9 -8 15 -8 5 0 9 4 9 8 0 5 -7 9 -15 9 -8 0 -12 -4 -9
-9z"/>
<path d="M120 720 c0 -5 5 -10 11 -10 5 0 7 5 4 10 -3 6 -8 10 -11 10 -2 0 -4
-4 -4 -10z"/>
<path d="M935 710 c-10 -16 7 -38 32 -45 29 -7 48 12 32 31 -12 15 -58 24 -64
14z"/>
<path d="M255 700 c52 -9 141 -13 134 -6 -2 2 -44 6 -94 9 -66 4 -77 3 -40 -3z"/>
<path d="M423 683 c15 -2 37 -2 50 0 12 2 0 4 -28 4 -27 0 -38 -2 -22 -4z"/>
<path d="M543 673 c9 -2 23 -2 30 0 6 3 -1 5 -18 5 -16 0 -22 -2 -12 -5z"/>
<path d="M663 663 c9 -2 23 -2 30 0 6 3 -1 5 -18 5 -16 0 -22 -2 -12 -5z"/>
<path d="M75 639 c-11 -16 -1 -19 13 -3 7 8 8 14 3 14 -5 0 -13 -5 -16 -11z"/>
<path d="M250 635 c0 -8 7 -15 15 -15 9 0 12 6 9 15 -4 8 -10 15 -15 15 -5 0
-9 -7 -9 -15z"/>
<path d="M330 630 c0 -15 -7 -20 -29 -20 -17 0 -33 -6 -38 -12 -9 -15 -11 -98
-2 -98 4 0 9 -8 12 -19 4 -15 19 -20 88 -26 46 -4 95 -7 109 -6 14 1 75 -8
135 -19 110 -22 213 -35 205 -26 -3 2 -120 28 -260 56 -140 28 -259 55 -263
59 -4 5 22 11 59 15 37 4 72 10 78 13 6 4 27 7 46 6 31 -1 32 0 5 4 -16 2 -34
8 -38 13 -5 4 3 5 17 3 23 -5 26 -2 26 21 0 18 -5 26 -17 26 -15 0 -16 -2 -3
-10 13 -8 12 -10 -2 -10 -24 0 -33 4 -30 13 1 4 -5 7 -13 7 -18 0 -19 -11 -2
-29 10 -11 10 -13 0 -7 -7 4 -13 2 -13 -4 0 -20 -29 16 -36 44 -7 30 -34 35
-34 6z"/>
<path d="M475 640 c3 -5 10 -10 16 -10 5 0 9 5 9 10 0 6 -7 10 -16 10 -8 0
-12 -4 -9 -10z"/>
<path d="M868 643 c12 -2 32 -2 45 0 12 2 2 4 -23 4 -25 0 -35 -2 -22 -4z"/>
<path d="M108 633 c-16 -4 -28 -32 -42 -95 -6 -25 -9 -26 -33 -17 -14 5 -28 7
-30 5 -9 -8 8 -27 33 -36 20 -8 24 -16 24 -50 0 -22 4 -40 9 -40 5 0 13 -9 16
-20 11 -34 58 -50 157 -54 74 -3 140 -16 328 -65 341 -90 385 -106 440 -157
25 -24 59 -48 75 -55 27 -11 215 -19 500 -22 138 -2 203 24 311 124 47 43 89
79 94 79 4 0 8 61 8 136 1 127 0 135 -15 114 -18 -25 -79 -54 -94 -44 -5 3 9
15 33 27 39 20 43 25 41 57 -3 75 -1 70 -30 59 -78 -29 -168 -40 -238 -29 -38
6 -114 17 -167 24 l-98 13 0 -74 c0 -81 -2 -79 73 -86 35 -3 47 -1 47 9 0 8
-4 14 -9 14 -5 0 -8 11 -8 25 0 15 5 25 14 25 8 0 12 -4 9 -8 -5 -9 10 -37 21
-38 4 0 21 -6 37 -13 16 -6 37 -10 45 -8 13 4 13 5 -1 6 -11 1 -18 9 -18 22 0
17 5 20 25 17 17 -4 25 -1 25 8 0 9 -12 14 -32 15 -18 0 -27 3 -20 6 6 2 12
11 12 19 0 16 55 20 65 4 3 -5 1 -10 -4 -10 -18 0 -12 -13 23 -54 30 -34 38
-38 74 -35 37 4 39 3 30 -17 -8 -16 -22 -23 -61 -27 -28 -4 -54 -12 -59 -19
-4 -7 -8 -9 -8 -5 0 13 -30 -20 -30 -34 0 -8 -14 -10 -49 -6 -48 6 -49 5 -34
-13 12 -14 21 -16 34 -9 26 14 30 11 23 -15 -5 -23 16 -51 23 -30 2 7 96 11
149 5 14 -1 6 -47 -10 -59 -6 -5 -29 -15 -51 -22 -46 -15 -67 -29 -60 -41 3
-4 -12 -13 -33 -19 -40 -10 -109 -2 -179 21 -41 13 -75 55 -68 83 3 12 2 16 0
10 -4 -8 -18 -8 -48 -1 -23 6 -58 14 -77 18 -31 7 -37 14 -49 53 -26 88 -111
166 -180 166 -62 0 -113 -50 -129 -126 -6 -33 -12 -40 -35 -42 -21 -3 -29 2
-36 20 -8 19 -10 20 -10 4 -1 -14 -6 -17 -23 -13 -13 4 -102 25 -198 48 -96
22 -233 55 -304 73 l-129 32 -15 49 c-20 71 -48 107 -75 99 -22 -6 -22 -6 -2
10 21 16 21 16 -7 9z m1467 -83 c4 -6 -5 -10 -19 -10 -14 0 -26 5 -26 10 0 6
9 10 19 10 11 0 23 -4 26 -10z m-1440 -50 c3 -5 1 -10 -4 -10 -6 0 -11 5 -11
10 0 6 2 10 4 10 3 0 8 -4 11 -10z m-14 -73 c-1 -12 -15 -9 -19 4 -3 6 1 10 8
8 6 -3 11 -8 11 -12z m39 -2 c0 -8 -2 -15 -4 -15 -2 0 -6 7 -10 15 -3 8 -1 15
4 15 6 0 10 -7 10 -15z m150 -15 c8 -5 11 -10 5 -10 -5 0 -17 5 -25 10 -8 5
-10 10 -5 10 6 0 17 -5 25 -10z m-165 -10 c3 -5 1 -10 -4 -10 -6 0 -11 5 -11
10 0 6 2 10 4 10 3 0 8 -4 11 -10z m262 -16 c-3 -3 -12 -4 -19 -1 -8 3 -5 6 6
6 11 1 17 -2 13 -5z m40 -10 c-3 -3 -12 -4 -19 -1 -8 3 -5 6 6 6 11 1 17 -2
13 -5z m70 -20 c-3 -3 -12 -4 -19 -1 -8 3 -5 6 6 6 11 1 17 -2 13 -5z m1445
-66 c-7 -7 -12 -8 -12 -2 0 14 12 26 19 19 2 -3 -1 -11 -7 -17z m-856 -15 c-7
-7 -26 7 -26 19 0 6 6 6 15 -2 9 -7 13 -15 11 -17z m-201 -13 l20 -9 -20 0
c-11 0 -29 4 -40 9 l-20 9 20 0 c11 0 29 -4 40 -9z m1040 1 c3 -5 1 -12 -5
-16 -5 -3 -10 1 -10 9 0 18 6 21 15 7z m-890 -11 c13 -6 15 -9 5 -9 -8 0 -22
4 -30 9 -18 12 -2 12 25 0z m105 -10 c0 -5 -7 -7 -15 -4 -8 4 -12 10 -9 15 6
11 24 2 24 -11z m171 -35 c16 -9 27 -20 24 -25 -10 -16 -30 -11 -61 15 -23 20
-25 25 -11 25 10 0 31 -7 48 -15z m-273 -25 c12 0 13 -3 5 -11 -14 -14 -33 -3
-32 19 0 11 3 12 6 5 2 -7 12 -13 21 -13z m106 -12 c21 -30 11 -36 -14 -8 -23
26 -24 30 -11 30 6 0 17 -10 25 -22z m-54 -39 c0 -5 -4 -9 -10 -9 -5 0 -10 7
-10 16 0 8 5 12 10 9 6 -3 10 -10 10 -16z"/>
<path d="M755 626 c-3 -9 -7 -23 -10 -31 -2 -8 0 -26 5 -40 7 -19 6 -25 -4
-25 -8 0 -17 14 -21 30 -5 23 -12 30 -31 30 -18 0 -24 -6 -25 -22 -1 -22 -1
-22 -8 2 -7 25 -41 42 -41 20 0 -6 5 -8 10 -5 6 4 10 -5 10 -19 0 -33 34 -36
45 -3 l8 22 4 -23 c2 -12 9 -20 14 -17 5 4 9 -1 9 -10 0 -11 -6 -15 -17 -11
-10 2 -48 7 -85 11 -68 7 -68 7 -69 38 -1 22 -3 25 -6 12 -3 -11 -14 -28 -24
-38 -11 -10 -17 -22 -14 -28 8 -12 52 -12 57 0 4 12 128 -2 136 -16 7 -11 139
-33 147 -25 3 3 5 22 5 42 0 36 -22 69 -45 68 -5 0 -15 9 -21 21 -16 32 -23
36 -29 17z m65 -77 c0 -5 -4 -9 -10 -9 -5 0 -10 7 -10 16 0 8 5 12 10 9 6 -3
10 -10 10 -16z m-277 -26 c-7 -2 -19 -2 -25 0 -7 3 -2 5 12 5 14 0 19 -2 13
-5z"/>
<path d="M983 633 c9 -2 25 -2 35 0 9 3 1 5 -18 5 -19 0 -27 -2 -17 -5z"/>
<path d="M800 623 c0 -5 12 -20 26 -34 23 -21 26 -22 23 -5 -4 19 -49 56 -49
39z"/>
<path d="M10 585 c0 -14 2 -25 4 -25 2 0 11 -3 20 -6 12 -5 16 0 16 19 0 14
-7 28 -16 31 -23 9 -24 8 -24 -19z"/>
<path d="M491 588 c1 -17 2 -19 6 -5 2 9 8 17 13 17 5 0 7 -7 4 -15 -4 -8 -1
-15 5 -15 6 0 11 9 11 20 0 13 -7 20 -20 20 -14 0 -20 -6 -19 -22z"/>
<path d="M560 575 c0 -18 5 -25 19 -25 12 0 20 9 23 25 3 14 1 25 -3 25 -5 0
-9 -7 -9 -15 0 -8 -4 -15 -10 -15 -5 0 -7 7 -4 15 4 8 1 15 -5 15 -6 0 -11
-11 -11 -25z"/>
<path d="M610 561 c0 -6 5 -13 10 -16 6 -3 10 1 10 9 0 9 -4 16 -10 16 -5 0
-10 -4 -10 -9z"/>
<path d="M458 498 c12 -12 118 -22 107 -10 -5 6 -33 12 -62 14 -29 1 -49 0
-45 -4z"/>
<path d="M580 491 c0 -5 5 -13 10 -16 6 -3 10 -2 10 4 0 5 -4 13 -10 16 -5 3
-10 2 -10 -4z"/>
<path d="M235 480 c3 -5 10 -10 16 -10 5 0 9 5 9 10 0 6 -7 10 -16 10 -8 0
-12 -4 -9 -10z"/>
<path d="M634 479 c-3 -5 6 -9 20 -9 31 0 34 6 6 13 -11 3 -23 1 -26 -4z"/>
<path d="M863 405 c0 -22 2 -30 4 -17 2 12 2 30 0 40 -3 9 -5 -1 -4 -23z"/>
<path d="M630 401 c0 -11 31 -24 39 -16 3 3 -1 10 -9 15 -19 12 -30 12 -30 1z"/>
</g>
</svg>
