<svg width="155" height="50" viewBox="0 0 155 50" fill="none" xmlns="http://www.w3.org/2000/svg">
<path d="M25.0068 0.363194C14.279 1.13234 4.99841 8.20853 2.03153 17.9169C0.584273 22.566 0.656636 27.933 2.21244 32.4282C2.84562 34.2058 3.89488 36.3595 4.88987 37.8636C5.6135 38.9575 7.54921 41.3333 8.16429 41.8632L8.63465 42.2734V39.2139C8.63465 36.3936 8.70702 35.6245 9.06883 34.5648C9.19547 34.2229 9.14119 34.1887 8.41756 34.1887C7.44066 34.1887 6.75322 33.864 6.68085 33.3683C6.57231 32.7359 7.15121 31.3685 7.74821 30.8387C8.20047 30.4285 8.48993 30.3259 9.48492 30.2575L10.6608 30.1721L11.9995 26.6852C14.08 21.2328 14.2609 20.9764 16.8298 19.9509C18.8016 19.1818 20.3936 18.9766 25.2781 18.857C34.6672 18.6519 38.9366 19.6262 40.2573 22.2584C40.4563 22.6686 41.2523 24.6342 42.0121 26.6169L43.4231 30.2575H44.4362C45.793 30.2575 46.5167 30.6848 47.0051 31.7616C47.584 33.0265 47.6202 33.4196 47.186 33.8298C46.8966 34.1033 46.5709 34.1887 45.9016 34.1887C45.4131 34.1887 44.997 34.2229 44.997 34.2571C44.997 34.3084 45.0875 34.5477 45.2141 34.8212C45.3227 35.0946 45.4674 36.7526 45.5217 38.7182L45.6302 42.1366L46.7699 40.8547C49.4112 37.8978 51.2564 34.5306 52.2333 30.9412C53.3369 26.8904 53.2283 22.0191 51.9801 17.9511C49.0675 8.44782 39.7326 1.14944 29.6018 0.431561C28.8601 0.380283 27.9375 0.311916 27.5395 0.277733C27.1415 0.260639 26.0018 0.294823 25.0068 0.363194Z" fill="#8BEAA4"/>
<path d="M20.2039 22.4369C19.4722 22.5086 18.5443 22.6878 18.1517 22.8132C17.5093 23.0282 17.3665 23.1715 16.6884 24.5691C15.7605 26.4504 14.6006 29.3887 14.2615 30.7325L13.9938 31.7179L14.5649 31.8255C15.7248 32.0225 22.9698 32.2734 27.3775 32.2734C31.9993 32.2734 38.709 31.9867 39.5477 31.7717L39.9938 31.6463L39.3157 29.6754C38.9588 28.5825 38.1558 26.6833 37.5669 25.4291L36.4784 23.1536L35.5148 22.8849C34.9973 22.7236 33.8017 22.5265 32.8737 22.419C30.8929 22.2219 22.1489 22.2219 20.2039 22.4369Z" fill="#8BEAA4"/>
<path d="M10.9508 35.4507C10.2649 35.7596 10.0199 36.3361 9.99544 37.6951C9.97095 39.0747 10.1914 39.1571 13.1308 38.9924L15.6049 38.8482L16.9521 39.6101C18.1279 40.2484 18.4463 40.3514 19.2057 40.2278C20.1855 40.0631 20.9938 39.5071 20.9938 38.9512C20.9938 38.1893 20.112 37.3451 19.0097 37.0774C18.4218 36.9333 16.9766 36.5009 15.8253 36.1096C13.3268 35.286 11.8081 35.0801 10.9508 35.4507Z" fill="#8BEAA4"/>
<path d="M40.4423 35.4664C39.8416 35.6153 38.6642 35.9982 37.8233 36.3172C36.9583 36.615 36.0933 36.8702 35.8771 36.8702C35.4446 36.8702 32.9938 39.0185 32.9938 39.4013C32.9938 39.8054 34.0751 40.2734 35.0361 40.2734C35.7089 40.2734 36.3096 40.0819 36.9583 39.6778C37.8954 39.1248 38.0155 39.1035 40.7306 39.1461C43.3976 39.2099 43.5658 39.1886 43.8301 38.742C44.1665 38.1677 43.9502 36.062 43.4937 35.6578C43.0132 35.2324 41.6676 35.1474 40.4423 35.4664Z" fill="#8BEAA4"/>
<path d="M15.9938 46.3537V47.416L17.8975 47.9741C21.6459 49.0724 25.1196 49.4505 29.0643 49.1985C31.7137 49.0364 33.5389 48.6943 36.0117 47.9201L37.8761 47.3439L37.935 46.2997L37.9938 45.2734H26.984H15.9938V46.3537Z" fill="#8BEAA4"/>
<path d="M61.4289 18.9708C60.8026 19.3535 60.0373 20.258 59.7589 20.919C58.8196 23.1456 59.6198 24.6068 63.0292 26.7985C64.8731 28.0162 64.9774 29.1642 63.2031 29.3382C62.2638 29.4425 61.8463 29.199 60.5939 27.8422C58.7153 25.8592 58.1934 25.9983 57.3584 28.6772C56.5235 31.4604 57.1497 32.2953 58.9588 30.8341C59.7589 30.1731 59.7937 30.1731 61.081 30.8341C63.6902 32.1562 67.3779 31.4256 68.6652 29.3382C70.1263 26.9377 69.3957 25.233 66.0559 23.0412C64.7339 22.2062 64.3164 21.7192 64.3164 21.0582C64.3164 19.597 65.6036 19.7362 67.3779 21.3713C68.2129 22.1715 69.1522 22.7977 69.4653 22.7977C69.9872 22.7977 71.1005 20.1884 71.1005 18.9012C71.1005 18.1358 69.8132 18.0663 68.8391 18.7621C68.2477 19.1795 68.0389 19.1795 67.204 18.7621C65.7776 18.0315 62.7857 18.1358 61.4289 18.9708Z" fill="#8BEAA4"/>
<path d="M107.873 18.5184C107.734 18.6228 107.943 19.1098 108.36 19.5273L109.091 20.2927L107.734 24.711C106.934 27.3898 106.169 29.3033 105.821 29.5468C105.09 29.9991 104.568 29.5468 105.125 28.9902C105.716 28.3987 105.647 26.7636 104.986 26.1374C103.838 24.9545 101.889 25.9635 101.507 27.8769C101.333 28.7814 101.507 29.1989 102.342 30.1382C103.281 31.2167 103.559 31.2863 105.751 31.4255C107.699 31.495 108.36 31.3907 109.265 30.834C110.9 29.8251 111.457 28.7119 112.744 24.2587C113.37 22.0322 114.205 19.91 114.588 19.4925C114.97 19.0751 115.284 18.6576 115.284 18.5184C115.284 18.2053 108.152 18.2053 107.873 18.5184Z" fill="#8BEAA4"/>
<path d="M74.6142 21.5105C72.3877 22.6238 72.8399 24.3633 75.31 24.3633C76.7016 24.3633 76.8756 24.2589 77.1887 23.2848C77.3974 22.6934 77.7105 22.2759 77.9889 22.3455C78.4759 22.5194 78.5455 23.8066 78.0932 24.9895C77.7801 25.7897 77.6757 25.8244 76.1102 25.5461C73.7793 25.0939 71.9354 25.6853 71.1005 27.0769C70.1611 28.6076 70.2307 29.2686 71.4136 30.4863C72.6312 31.7039 74.2315 31.8083 75.8319 30.8342C76.8408 30.208 76.9104 30.208 77.6757 30.8342C78.7542 31.7039 80.5285 31.6691 81.6766 30.7646C82.6855 29.9992 82.8942 29.0599 82.0593 29.0599C81.3983 29.0599 81.3983 28.8164 82.0593 26.9725C83.0682 24.1197 82.6159 22.3802 80.6677 21.5453C79.2065 20.9539 75.7623 20.9191 74.6142 21.5105ZM77.3626 27.2508C77.3626 27.8075 76.2494 29.0599 75.7623 29.0599C75.1709 29.0599 75.1013 27.9814 75.6927 27.39C76.145 26.9377 77.3626 26.8334 77.3626 27.2508Z" fill="#8BEAA4"/>
<path d="M86.1644 21.406C85.3295 21.7539 85.1207 22.4149 85.6774 22.9715C86.0601 23.4238 84.1118 29.7904 83.416 30.3122C82.3028 31.2167 82.929 31.4951 85.9905 31.4951C87.6952 31.4951 89.1912 31.3907 89.2955 31.2863C89.3999 31.1472 89.3651 30.7645 89.1912 30.4166C88.7389 29.5816 90.3392 24.3631 91.1742 24.05C92.2527 23.6325 92.4266 24.3979 91.6612 26.4157C90.3044 30.0687 90.8959 31.4951 93.8182 31.4951C95.0011 31.4951 95.6621 31.2863 96.1491 30.7993C96.9841 29.9643 97.0885 28.9902 96.3231 29.2685C95.6621 29.5468 95.6621 29.3381 96.497 26.6941C97.3668 23.8761 97.3668 22.6236 96.497 21.7539C95.4881 20.745 93.3312 20.8146 92.1135 21.893L91.1394 22.6932L90.4784 21.893C89.9913 21.232 89.5043 21.0581 88.391 21.0929C87.5908 21.0929 86.5819 21.232 86.1644 21.406Z" fill="#8BEAA4"/>
<path d="M115.736 21.4061C114.901 21.754 114.692 22.415 115.249 22.9716C115.423 23.1804 115.214 24.4328 114.727 26.1027C113.753 29.3034 113.857 30.2427 115.284 30.9733C116.64 31.6691 118.032 31.6343 119.389 30.7994C120.502 30.1036 120.502 30.1036 121.198 30.7994C122.589 32.191 126.416 31.3908 126.416 29.7209C126.416 29.3382 126.277 29.0947 126.103 29.2338C125.407 29.6513 125.442 28.712 126.277 26.0679C127.669 21.5452 127.356 20.8494 124.155 21.1278C121.963 21.3017 121.198 21.7888 121.859 22.5889C122.207 22.9716 122.137 23.5978 121.546 25.5461C120.746 28.1553 120.05 29.0947 119.389 28.4336C119.145 28.1901 119.25 27.3899 119.771 25.6505C120.606 22.8673 120.676 22.0671 120.085 21.4757C119.598 20.9886 116.849 20.9538 115.736 21.4061Z" fill="#8BEAA4"/>
<path d="M131.183 21.6148C130.382 22.0671 130.208 22.3454 130.313 23.25C130.417 24.2589 130.522 24.3632 131.739 24.4676C133.27 24.6068 134.001 24.1545 134.14 22.9368C134.244 22.1367 134.314 22.1019 134.905 22.5542C135.531 23.0064 135.566 23.1804 135.183 24.5024C134.766 25.8244 134.662 25.9288 133.792 25.72C133.27 25.6157 132.47 25.4765 132.018 25.3721C130.835 25.1286 128.956 25.8592 128.156 26.8681C127.182 28.1205 127.251 29.5817 128.365 30.695C129.13 31.4604 129.478 31.5647 130.8 31.3908C131.67 31.3212 132.644 30.9733 132.957 30.695C133.479 30.2079 133.618 30.2079 134.383 30.8341C136.123 32.2605 139.637 31.0777 139.637 29.0251C139.637 28.8859 139.393 28.8163 139.115 28.9207C138.454 29.199 138.454 28.8163 139.184 26.0679C139.776 23.911 139.776 23.8414 139.08 22.9021C138.662 22.3454 137.967 21.7192 137.514 21.5105C136.331 20.8842 132.365 20.9538 131.183 21.6148ZM134.07 27.3552C134.07 28.051 133.34 29.0599 132.852 29.0599C132.122 29.0599 131.913 28.4684 132.331 27.6683C132.713 26.9377 134.07 26.6941 134.07 27.3552Z" fill="#8BEAA4"/>
<path d="M142.942 21.4755C142.559 21.6843 142.211 21.893 142.141 21.9626C142.072 21.9974 142.211 22.3105 142.42 22.6932C142.768 23.215 142.663 23.9456 141.898 26.4505C141.376 28.19 140.645 29.9295 140.228 30.347C139.289 31.3907 139.776 31.5646 143.324 31.4254L146.073 31.3211L145.968 30.3818C145.864 29.2685 146.803 25.7547 147.499 24.6066C148.125 23.6673 149.03 23.5977 149.03 24.5371C149.03 24.885 148.717 25.9982 148.334 26.9723C147.951 27.9465 147.638 29.0597 147.638 29.4076C147.638 31.4602 151.361 32.33 153.031 30.6253C154.005 29.686 154.179 28.8858 153.379 29.1989C152.648 29.4772 152.717 28.5727 153.552 26.1026C154.422 23.5629 154.422 23.1107 153.518 21.9626C152.578 20.7797 150.665 20.7102 148.96 21.893L147.743 22.6932L147.429 21.9626C147.186 21.3712 146.768 21.232 145.377 21.1624C144.438 21.0929 143.324 21.232 142.942 21.4755Z" fill="#8BEAA4"/>
<path d="M86.408 40.3665V43.6716H87.9735C89.1216 43.6716 89.539 43.5324 89.539 43.1497C89.539 42.8018 89.1911 42.6279 88.4954 42.6279C87.556 42.6279 87.4517 42.5235 87.4517 41.5842C87.4517 40.6449 87.556 40.5405 88.4954 40.5405C89.1911 40.5405 89.539 40.3665 89.539 40.0186C89.539 39.6707 89.1911 39.4968 88.4954 39.4968C87.6952 39.4968 87.4517 39.3576 87.4517 38.801C87.4517 38.2443 87.6952 38.1052 88.4954 38.1052C89.1911 38.1052 89.539 37.9312 89.539 37.5833C89.539 37.2007 89.1216 37.0615 87.9735 37.0615H86.408V40.3665Z" fill="#8BEAA4"/>
<path d="M91.9744 39.0097C91.9744 39.1141 92.2875 39.6707 92.705 40.2274L93.4008 41.2363L92.705 42.2452C91.8352 43.428 91.8004 43.6716 92.4266 43.6716C92.705 43.6716 93.1224 43.2889 93.366 42.8018C93.6095 42.3148 93.9226 41.9321 94.0618 41.9321C94.2009 41.9321 94.514 42.3148 94.7576 42.8018C95.0011 43.2889 95.4186 43.6716 95.6969 43.6716C96.3231 43.6716 96.2883 43.428 95.4186 42.2104L94.6532 41.1667L95.4186 40.1926C96.2883 39.0097 96.3231 38.801 95.6273 38.801C95.349 38.801 94.8967 39.2185 94.6532 39.7403L94.1661 40.6449L93.5399 39.7403C93.0181 38.9054 91.9744 38.4531 91.9744 39.0097Z" fill="#8BEAA4"/>
<path d="M98.5844 42.28C98.5844 45.1328 98.6888 45.759 99.1063 45.759C99.489 45.759 99.6281 45.3763 99.6281 44.3674C99.6281 43.0454 99.6629 42.9758 100.359 43.3237C101.542 43.9847 102.759 42.941 102.759 41.2363C102.759 39.5664 101.75 38.6618 100.463 39.1489C99.976 39.3576 99.5586 39.3576 99.4542 39.1489C98.8628 38.1748 98.5844 39.1489 98.5844 42.28ZM101.542 41.2363C101.542 42.3148 101.437 42.4539 100.672 42.4539C100.011 42.4539 99.7673 42.2452 99.6977 41.6538C99.5238 40.4013 99.8717 39.7751 100.741 39.9143C101.402 39.9839 101.542 40.2274 101.542 41.2363Z" fill="#8BEAA4"/>
<path d="M105.195 41.2363C105.195 43.1845 105.299 43.6716 105.716 43.6716C106.099 43.6716 106.238 43.2889 106.238 42.3148C106.238 40.8884 106.934 39.8447 107.839 39.8447C108.117 39.8447 108.326 39.6012 108.326 39.3228C108.326 38.6618 107.978 38.6618 107.004 39.3576C106.308 39.8447 106.238 39.8447 106.238 39.3576C106.238 39.0445 105.995 38.801 105.716 38.801C105.299 38.801 105.195 39.288 105.195 41.2363Z" fill="#8BEAA4"/>
<path d="M111.457 39.2532C110.726 39.6359 110.587 39.949 110.587 41.2363C110.587 42.5931 110.726 42.8366 111.526 43.2541C112.5 43.7063 114.24 43.4976 114.24 42.9062C114.24 42.6974 113.892 42.6279 113.475 42.7322C112.57 42.9758 111.457 42.4539 111.457 41.7581C111.457 41.3754 111.874 41.2363 113.022 41.2363C114.657 41.2363 114.97 40.8188 114.17 39.7751C113.509 38.9749 112.431 38.7662 111.457 39.2532ZM112.987 39.7055C113.892 40.0534 113.614 40.5405 112.5 40.5405C111.457 40.5405 111.074 40.0534 111.909 39.7403C112.118 39.6359 112.361 39.5316 112.396 39.5316C112.431 39.4968 112.674 39.6011 112.987 39.7055Z" fill="#8BEAA4"/>
<path d="M117.475 39.1489C116.223 39.6707 116.466 40.8188 117.928 41.445C119.389 42.0712 119.319 42.8366 117.754 42.6975C116.432 42.5931 116.327 43.1497 117.58 43.4628C118.623 43.7412 120.154 42.9062 120.154 42.106C120.154 41.7929 119.598 41.3059 118.937 40.9928C117.545 40.3318 117.51 39.636 118.902 39.7751C119.389 39.8099 119.806 39.7055 119.806 39.4968C119.806 39.3228 119.667 39.1489 119.493 39.1489C119.319 39.1489 118.971 39.0793 118.693 39.0097C118.449 38.9054 117.893 38.9749 117.475 39.1489Z" fill="#8BEAA4"/>
<path d="M123.042 39.1489C121.789 39.6707 122.033 40.8188 123.494 41.445C124.955 42.0712 124.886 42.8366 123.32 42.6975C121.998 42.5931 121.894 43.1497 123.146 43.4628C124.19 43.7412 125.721 42.9062 125.721 42.106C125.721 41.7929 125.164 41.3059 124.503 40.9928C123.111 40.3318 123.077 39.636 124.468 39.7751C124.955 39.8099 125.373 39.7055 125.373 39.4968C125.373 39.3228 125.233 39.1489 125.06 39.1489C124.886 39.1489 124.538 39.0793 124.259 39.0097C124.016 38.9054 123.459 38.9749 123.042 39.1489Z" fill="#8BEAA4"/>
</svg>
