<svg width="154" height="49" viewBox="0 0 154 49" fill="none" xmlns="http://www.w3.org/2000/svg">
<path d="M24.0129 0.089816C13.2851 0.858967 4.00458 7.93516 1.0377 17.6436C-0.409562 22.2926 -0.337199 27.6596 1.2186 32.1549C1.85178 33.9325 2.90104 36.0861 3.89603 37.5902C4.61966 38.6841 6.55537 41.0599 7.17046 41.5898L7.64082 42V38.9405C7.64082 36.1203 7.71318 35.3511 8.07499 34.2914C8.20163 33.9496 8.14736 33.9154 7.42373 33.9154C6.44683 33.9154 5.75938 33.5906 5.68702 33.0949C5.57847 32.4625 6.15738 31.0951 6.75437 30.5653C7.20664 30.1551 7.49609 30.0525 8.49108 29.9842L9.66698 29.8987L11.0057 26.4119C13.0861 20.9594 13.267 20.7031 15.8359 19.6775C17.8078 18.9084 19.3998 18.7033 24.2843 18.5836C33.6734 18.3785 37.9428 19.3528 39.2634 21.985C39.4624 22.3952 40.2584 24.3608 41.0182 26.3435L42.4293 29.9842H43.4424C44.7992 29.9842 45.5228 30.4115 46.0113 31.4883C46.5902 32.7531 46.6264 33.1462 46.1922 33.5564C45.9027 33.8299 45.5771 33.9154 44.9077 33.9154C44.4193 33.9154 44.0032 33.9496 44.0032 33.9837C44.0032 34.035 44.0937 34.2743 44.2203 34.5478C44.3288 34.8213 44.4736 36.4792 44.5278 38.4448L44.6364 41.8633L45.7761 40.5813C48.4173 37.6244 50.2626 34.2572 51.2395 30.6678C52.343 26.617 52.2345 21.7457 50.9862 17.6777C48.0736 8.17445 38.7388 0.876059 28.608 0.158185C27.8663 0.106908 26.9436 0.0385393 26.5456 0.00435477C26.1476 -0.0127375 25.0079 0.021447 24.0129 0.089816Z" fill="#656464"/>
<path d="M19.21 22.1636C18.4784 22.2352 17.5504 22.4144 17.1579 22.5398C16.5154 22.7548 16.3727 22.8982 15.6946 24.2957C14.7666 26.177 13.6067 29.1154 13.2677 30.4591L13 31.4446L13.571 31.5521C14.731 31.7492 21.976 32 26.3837 32C31.0055 32 37.7152 31.7133 38.5539 31.4983L39 31.3729L38.3219 29.402C37.965 28.3091 37.162 26.4099 36.5731 25.1557L35.4846 22.8802L34.5209 22.6115C34.0034 22.4502 32.8078 22.2532 31.8799 22.1456C29.8991 21.9486 21.1551 21.9486 19.21 22.1636Z" fill="#656464"/>
<path d="M9.95692 35.1774C9.27106 35.4862 9.0261 36.0628 9.00161 37.4218C8.97711 38.8013 9.19757 38.8837 12.137 38.719L14.611 38.5748L15.9583 39.3367C17.134 39.975 17.4525 40.078 18.2118 39.9544C19.1917 39.7897 20 39.2338 20 38.6778C20 37.9159 19.1182 37.0717 18.0159 36.804C17.428 36.6599 15.9828 36.2275 14.8315 35.8363C12.333 35.0126 10.8143 34.8067 9.95692 35.1774Z" fill="black"/>
<path d="M39.4484 35.193C38.8477 35.3419 37.6704 35.7248 36.8295 36.0438C35.9645 36.3416 35.0995 36.5968 34.8833 36.5968C34.4508 36.5968 32 38.7451 32 39.1279C32 39.5321 33.0812 40 34.0423 40C34.7151 40 35.3157 39.8086 35.9645 39.4044C36.9015 38.8514 37.0217 38.8302 39.7367 38.8727C42.4038 38.9365 42.5719 38.9152 42.8362 38.4686C43.1726 37.8943 42.9564 35.7886 42.4999 35.3845C42.0193 34.9591 40.6738 34.874 39.4484 35.193Z" fill="black"/>
<path d="M15 46.0803V47.1426L16.9037 47.7007C20.6521 48.799 24.1258 49.1772 28.0705 48.9251C30.7199 48.763 32.545 48.4209 35.0178 47.6467L36.8822 47.0706L36.9411 46.0263L37 45H25.9902H15V46.0803Z" fill="#656464"/>
<path d="M60.435 18.6974C59.8088 19.0801 59.0434 19.9846 58.7651 20.6456C57.8258 22.8722 58.626 24.3334 62.0354 26.5251C63.8792 27.7428 63.9836 28.8908 62.2093 29.0648C61.27 29.1692 60.8525 28.9256 59.6001 27.5688C57.7214 25.5858 57.1996 25.725 56.3646 28.4038C55.5297 31.187 56.1559 32.0219 57.9649 30.5608C58.7651 29.8998 58.7999 29.8998 60.0871 30.5608C62.6964 31.8828 66.3841 31.1522 67.6713 29.0648C69.1325 26.6643 68.4019 24.9596 65.0621 22.7678C63.7401 21.9329 63.3226 21.4458 63.3226 20.7848C63.3226 19.3236 64.6098 19.4628 66.3841 21.0979C67.2191 21.8981 68.1584 22.5243 68.4715 22.5243C68.9933 22.5243 70.1066 19.9151 70.1066 18.6278C70.1066 17.8625 68.8194 17.7929 67.8453 18.4887C67.2538 18.9062 67.0451 18.9062 66.2101 18.4887C64.7838 17.7581 61.7918 17.8625 60.435 18.6974Z" fill="#656464"/>
<path d="M106.879 18.245C106.74 18.3494 106.949 18.8365 107.367 19.2539L108.097 20.0193L106.74 24.4376C105.94 27.1165 105.175 29.0299 104.827 29.2734C104.096 29.7257 103.574 29.2734 104.131 28.7168C104.723 28.1254 104.653 26.4902 103.992 25.864C102.844 24.6812 100.896 25.6901 100.513 27.6035C100.339 28.5081 100.513 28.9255 101.348 29.8649C102.287 30.9433 102.566 31.0129 104.757 31.1521C106.706 31.2217 107.367 31.1173 108.271 30.5607C109.906 29.5518 110.463 28.4385 111.75 23.9854C112.376 21.7588 113.211 19.6366 113.594 19.2192C113.977 18.8017 114.29 18.3842 114.29 18.245C114.29 17.9319 107.158 17.9319 106.879 18.245Z" fill="#656464"/>
<path d="M73.6204 21.2371C71.3938 22.3504 71.8461 24.0899 74.3162 24.0899C75.7078 24.0899 75.8817 23.9855 76.1948 23.0114C76.4036 22.42 76.7167 22.0025 76.995 22.0721C77.482 22.246 77.5516 23.5333 77.0994 24.7161C76.7862 25.5163 76.6819 25.5511 75.1163 25.2728C72.7854 24.8205 70.9415 25.4119 70.1066 26.8035C69.1673 28.3343 69.2368 28.9953 70.4197 30.2129C71.6373 31.4306 73.2377 31.5349 74.838 30.5608C75.8469 29.9346 75.9165 29.9346 76.6819 30.5608C77.7604 31.4306 79.5346 31.3958 80.6827 30.4912C81.6916 29.7259 81.9004 28.7865 81.0654 28.7865C80.4044 28.7865 80.4044 28.543 81.0654 26.6991C82.0743 23.8464 81.622 22.1069 79.6738 21.2719C78.2126 20.6805 74.7684 20.6457 73.6204 21.2371ZM76.3688 26.9775C76.3688 27.5341 75.2555 28.7865 74.7684 28.7865C74.177 28.7865 74.1074 27.708 74.6989 27.1166C75.1511 26.6643 76.3688 26.56 76.3688 26.9775Z" fill="#656464"/>
<path d="M85.1706 21.1326C84.3357 21.4805 84.1269 22.1415 84.6836 22.6982C85.0662 23.1504 83.118 29.517 82.4222 30.0388C81.3089 30.9434 81.9352 31.2217 84.9967 31.2217C86.7014 31.2217 88.1973 31.1173 88.3017 31.0129C88.4061 30.8738 88.3713 30.4911 88.1973 30.1432C87.7451 29.3082 89.3454 24.0898 90.1804 23.7766C91.2588 23.3592 91.4328 24.1245 90.6674 26.1424C89.3106 29.7953 89.902 31.2217 92.8244 31.2217C94.0072 31.2217 94.6682 31.0129 95.1553 30.5259C95.9903 29.6909 96.0946 28.7168 95.3293 28.9951C94.6682 29.2734 94.6682 29.0647 95.5032 26.4207C96.373 23.6027 96.373 22.3503 95.5032 21.4805C94.4943 20.4716 92.3373 20.5412 91.1197 21.6197L90.1456 22.4198L89.4846 21.6197C88.9975 20.9587 88.5104 20.7847 87.3972 20.8195C86.597 20.8195 85.5881 20.9587 85.1706 21.1326Z" fill="#656464"/>
<path d="M114.742 21.1327C113.907 21.4806 113.698 22.1416 114.255 22.6983C114.429 22.907 114.22 24.1594 113.733 25.8293C112.759 29.03 112.863 29.9693 114.29 30.6999C115.647 31.3957 117.038 31.3609 118.395 30.526C119.508 29.8302 119.508 29.8302 120.204 30.526C121.596 31.9176 125.423 31.1174 125.423 29.4475C125.423 29.0648 125.283 28.8213 125.109 28.9604C124.414 29.3779 124.448 28.4386 125.283 25.7946C126.675 21.2719 126.362 20.5761 123.161 20.8544C120.969 21.0283 120.204 21.5154 120.865 22.3156C121.213 22.6983 121.143 23.3245 120.552 25.2727C119.752 27.8819 119.056 28.8213 118.395 28.1603C118.151 27.9167 118.256 27.1166 118.778 25.3771C119.613 22.5939 119.682 21.7937 119.091 21.2023C118.604 20.7152 115.855 20.6804 114.742 21.1327Z" fill="#656464"/>
<path d="M130.189 21.3415C129.389 21.7937 129.215 22.072 129.319 22.9766C129.423 23.9855 129.528 24.0899 130.745 24.1942C132.276 24.3334 133.007 23.8811 133.146 22.6635C133.25 21.8633 133.32 21.8285 133.911 22.2808C134.537 22.733 134.572 22.907 134.19 24.229C133.772 25.551 133.668 25.6554 132.798 25.4467C132.276 25.3423 131.476 25.2031 131.024 25.0988C129.841 24.8552 127.962 25.5858 127.162 26.5947C126.188 27.8472 126.257 29.3083 127.371 30.4216C128.136 31.187 128.484 31.2914 129.806 31.1174C130.676 31.0478 131.65 30.6999 131.963 30.4216C132.485 29.9346 132.624 29.9346 133.389 30.5608C135.129 31.9872 138.643 30.8043 138.643 28.7517C138.643 28.6125 138.399 28.543 138.121 28.6473C137.46 28.9256 137.46 28.543 138.19 25.7946C138.782 23.6376 138.782 23.568 138.086 22.6287C137.669 22.072 136.973 21.4458 136.52 21.2371C135.338 20.6109 131.372 20.6804 130.189 21.3415ZM133.076 27.0818C133.076 27.7776 132.346 28.7865 131.859 28.7865C131.128 28.7865 130.919 28.1951 131.337 27.3949C131.719 26.6643 133.076 26.4208 133.076 27.0818Z" fill="#656464"/>
<path d="M141.948 21.2022C141.565 21.4109 141.217 21.6196 141.148 21.6892C141.078 21.724 141.217 22.0371 141.426 22.4198C141.774 22.9417 141.669 23.6722 140.904 26.1771C140.382 27.9166 139.652 29.6561 139.234 30.0736C138.295 31.1173 138.782 31.2912 142.33 31.1521L145.079 31.0477L144.974 30.1084C144.87 28.9951 145.809 25.4813 146.505 24.3333C147.131 23.3939 148.036 23.3243 148.036 24.2637C148.036 24.6116 147.723 25.7249 147.34 26.699C146.957 27.6731 146.644 28.7864 146.644 29.1343C146.644 31.1869 150.367 32.0566 152.037 30.3519C153.011 29.4126 153.185 28.6124 152.385 28.9255C151.654 29.2038 151.724 28.2993 152.559 25.8292C153.428 23.2896 153.428 22.8373 152.524 21.6892C151.584 20.5064 149.671 20.4368 147.966 21.6196L146.749 22.4198L146.436 21.6892C146.192 21.0978 145.775 20.9586 144.383 20.8891C143.444 20.8195 142.33 20.9586 141.948 21.2022Z" fill="#656464"/>
<path d="M85.4141 40.0932V43.3982H86.9797C88.1277 43.3982 88.5452 43.259 88.5452 42.8763C88.5452 42.5284 88.1973 42.3545 87.5015 42.3545C86.5622 42.3545 86.4578 42.2501 86.4578 41.3108C86.4578 40.3715 86.5622 40.2671 87.5015 40.2671C88.1973 40.2671 88.5452 40.0932 88.5452 39.7453C88.5452 39.3974 88.1973 39.2234 87.5015 39.2234C86.7013 39.2234 86.4578 39.0842 86.4578 38.5276C86.4578 37.971 86.7013 37.8318 87.5015 37.8318C88.1973 37.8318 88.5452 37.6579 88.5452 37.31C88.5452 36.9273 88.1277 36.7881 86.9797 36.7881H85.4141V40.0932Z" fill="#656464"/>
<path d="M90.9805 38.7363C90.9805 38.8407 91.2936 39.3974 91.7111 39.954L92.4069 40.9629L91.7111 41.9718C90.8414 43.1547 90.8066 43.3982 91.4328 43.3982C91.7111 43.3982 92.1286 43.0155 92.3721 42.5284C92.6157 42.0414 92.9288 41.6587 93.0679 41.6587C93.2071 41.6587 93.5202 42.0414 93.7637 42.5284C94.0072 43.0155 94.4247 43.3982 94.703 43.3982C95.3293 43.3982 95.2945 43.1547 94.4247 41.937L93.6594 40.8933L94.4247 39.9192C95.2945 38.7363 95.3293 38.5276 94.6335 38.5276C94.3551 38.5276 93.9029 38.9451 93.6594 39.4669L93.1723 40.3715L92.5461 39.4669C92.0242 38.632 90.9805 38.1797 90.9805 38.7363Z" fill="#656464"/>
<path d="M97.5906 42.0066C97.5906 44.8594 97.695 45.4856 98.1125 45.4856C98.4951 45.4856 98.6343 45.1029 98.6343 44.094C98.6343 42.772 98.6691 42.7024 99.3649 43.0503C100.548 43.7113 101.765 42.6676 101.765 40.9629C101.765 39.293 100.756 38.3885 99.4693 38.8755C98.9822 39.0843 98.5647 39.0843 98.4604 38.8755C97.8689 37.9014 97.5906 38.8755 97.5906 42.0066ZM100.548 40.9629C100.548 42.0414 100.443 42.1806 99.678 42.1806C99.017 42.1806 98.7735 41.9718 98.7039 41.3804C98.5299 40.128 98.8778 39.5017 99.7476 39.6409C100.409 39.7105 100.548 39.954 100.548 40.9629Z" fill="#656464"/>
<path d="M104.201 40.9629C104.201 42.9111 104.305 43.3982 104.723 43.3982C105.105 43.3982 105.244 43.0155 105.244 42.0414C105.244 40.615 105.94 39.5713 106.845 39.5713C107.123 39.5713 107.332 39.3278 107.332 39.0495C107.332 38.3884 106.984 38.3884 106.01 39.0842C105.314 39.5713 105.244 39.5713 105.244 39.0842C105.244 38.7711 105.001 38.5276 104.723 38.5276C104.305 38.5276 104.201 39.0147 104.201 40.9629Z" fill="#656464"/>
<path d="M110.463 38.9799C109.732 39.3626 109.593 39.6757 109.593 40.9629C109.593 42.3197 109.732 42.5632 110.532 42.9807C111.507 43.433 113.246 43.2242 113.246 42.6328C113.246 42.4241 112.898 42.3545 112.481 42.4589C111.576 42.7024 110.463 42.1805 110.463 41.4847C110.463 41.102 110.88 40.9629 112.028 40.9629C113.664 40.9629 113.977 40.5454 113.176 39.5017C112.515 38.7015 111.437 38.4928 110.463 38.9799ZM111.994 39.4321C112.898 39.78 112.62 40.2671 111.507 40.2671C110.463 40.2671 110.08 39.78 110.915 39.4669C111.124 39.3626 111.367 39.2582 111.402 39.2582C111.437 39.2234 111.681 39.3278 111.994 39.4321Z" fill="#656464"/>
<path d="M116.482 38.8755C115.229 39.3974 115.473 40.5454 116.934 41.1717C118.395 41.7979 118.325 42.5632 116.76 42.4241C115.438 42.3197 115.333 42.8764 116.586 43.1895C117.63 43.4678 119.16 42.6328 119.16 41.8327C119.16 41.5195 118.604 41.0325 117.943 40.7194C116.551 40.0584 116.516 39.3626 117.908 39.5017C118.395 39.5365 118.812 39.4322 118.812 39.2234C118.812 39.0495 118.673 38.8755 118.499 38.8755C118.325 38.8755 117.977 38.8059 117.699 38.7364C117.456 38.632 116.899 38.7016 116.482 38.8755Z" fill="#656464"/>
<path d="M122.048 38.8755C120.795 39.3974 121.039 40.5454 122.5 41.1717C123.961 41.7979 123.892 42.5632 122.326 42.4241C121.004 42.3197 120.9 42.8764 122.152 43.1895C123.196 43.4678 124.727 42.6328 124.727 41.8327C124.727 41.5195 124.17 41.0325 123.509 40.7194C122.117 40.0584 122.083 39.3626 123.474 39.5017C123.961 39.5365 124.379 39.4322 124.379 39.2234C124.379 39.0495 124.24 38.8755 124.066 38.8755C123.892 38.8755 123.544 38.8059 123.266 38.7364C123.022 38.632 122.465 38.7016 122.048 38.8755Z" fill="#656464"/>
</svg>
