<svg width="300" height="200" viewBox="0 0 300 200" fill="none" xmlns="http://www.w3.org/2000/svg">
<path d="M295.404 122.468C300.4 78.12 262.848 37.9999 224.492 21.5999C196.312 9.54795 165.828 17.1199 138.684 28.1319C129.656 31.7799 120.8 36.152 111.56 39.232C104.684 41.52 97.7479 42.528 90.5399 41.584C81.8719 40.448 72.7519 37.8199 64.0039 39.5519C55.7879 41.1799 48.3639 46.008 42.6519 52.02C21.0039 74.8 12.8839 109.644 19.3359 139.928C19.7199 141.736 20.1506 143.533 20.6279 145.32C37.5039 208.696 106.736 180.8 138.08 179.764C169.424 178.728 201.456 193.884 238.656 184.24C264.896 177.436 291.304 158.984 295.404 122.468Z" fill="#54DD71"/>
<path opacity="0.7" d="M295.404 122.468C300.4 78.12 262.848 37.9999 224.492 21.5999C196.312 9.54795 165.828 17.1199 138.684 28.1319C129.656 31.7799 120.8 36.152 111.56 39.232C104.684 41.52 97.7479 42.528 90.5399 41.584C81.8719 40.448 72.7519 37.8199 64.0039 39.5519C55.7879 41.1799 48.3639 46.008 42.6519 52.02C21.0039 74.8 12.8839 109.644 19.3359 139.928C19.7199 141.736 20.1506 143.533 20.6279 145.32C37.5039 208.696 106.736 180.8 138.08 179.764C169.424 178.728 201.456 193.884 238.656 184.24C264.896 177.436 291.304 158.984 295.404 122.468Z" fill="white"/>
<path opacity="0.3" d="M176.66 10.4C176.66 10.4 173.64 5.46003 168.972 5.73203C164.304 6.00403 162.66 9.01203 161.288 11.2C159.916 13.388 159.368 12.02 155.8 10.924C152.232 9.82803 150.6 11.748 149.76 13.668C148.92 15.588 149.212 14.216 145.92 13.668C142.628 13.12 142.54 15.084 140.428 16.14C138.708 17 138.34 17.036 136.428 16.54C134.056 15.9 133.28 16.432 132.732 17.532H188.42C188.42 17.532 187.364 13.132 184.892 12.04C182.42 10.948 179.128 13.128 176.66 10.4Z" stroke="black" stroke-miterlimit="10"/>
<path opacity="0.3" d="M78.476 21.384C78.476 21.384 76.8 18.636 74.196 18.8C71.592 18.964 70.684 20.632 69.92 21.856C69.156 23.08 68.852 22.312 66.864 21.704C64.876 21.096 63.964 22.16 63.504 23.232C63.044 24.304 63.2 23.536 61.364 23.232C59.528 22.928 59.488 24.032 58.312 24.604C57.352 25.084 57.148 25.104 56.092 24.816C54.772 24.46 54.34 24.756 54.032 25.368H85.02C85.02 25.368 84.432 22.924 83.056 22.312C81.68 21.7 79.848 22.912 78.476 21.384Z" stroke="black" stroke-miterlimit="10"/>
<path opacity="0.3" d="M287.76 52.8201C287.76 52.8201 286.884 51.3881 285.532 51.4681C284.18 51.5481 283.704 52.4241 283.304 53.0681C282.904 53.7121 282.748 53.3041 281.704 52.9881C281.538 52.9152 281.358 52.8783 281.176 52.8797C280.995 52.8812 280.816 52.921 280.651 52.9965C280.486 53.072 280.338 53.1816 280.219 53.318C280.099 53.4544 280.009 53.6146 279.956 53.7881C279.716 54.3441 279.796 53.9481 278.84 53.7881C277.884 53.6281 277.86 54.1881 277.24 54.5041C277.072 54.6184 276.878 54.6883 276.676 54.7072C276.474 54.7261 276.27 54.6934 276.084 54.6121C275.396 54.4281 275.172 54.5841 275.012 54.9001H291.152C291.152 54.9001 290.848 53.6281 290.132 53.3001C289.416 52.9721 288.476 53.6001 287.76 52.8201Z" stroke="black" stroke-miterlimit="10"/>
<path opacity="0.3" d="M185.356 22.98C185.356 22.98 184.48 21.548 183.128 21.628C181.776 21.708 181.296 22.58 180.9 23.228C180.504 23.876 180.34 23.464 179.3 23.148C179.133 23.0744 178.953 23.0369 178.771 23.0381C178.589 23.0392 178.41 23.0788 178.244 23.1544C178.079 23.23 177.931 23.3398 177.811 23.4766C177.691 23.6134 177.601 23.774 177.548 23.948C177.312 24.504 177.388 24.104 176.436 23.948C175.484 23.792 175.456 24.348 174.836 24.664C174.668 24.7783 174.474 24.8482 174.272 24.8671C174.07 24.886 173.866 24.8533 173.68 24.772C172.992 24.588 172.768 24.744 172.608 25.06H188.748C188.748 25.06 188.444 23.788 187.728 23.46C187.012 23.132 186.072 23.776 185.356 22.98Z" stroke="black" stroke-miterlimit="10"/>
<g opacity="0.3">
<path d="M10.396 149.624H23.052V35.1759H56.34V89.6479H63.492V157.324H71.748V56.3039H87.152V15.3679H111.912V90.7479H121.268V60.7639H142.176V67.3639H160.056V156.5H167.208V140.268H186.744V156.224H196.096V75.8919H227.732V151.272H236.812V46.1799H247.816V26.9239H253.32V15.9199H262.124V87.1719H276.428V155.124H287.432" stroke="black" stroke-miterlimit="10"/>
<path d="M56.34 31.5999H23.052V35.1759H56.34V31.5999Z" stroke="black" stroke-miterlimit="10"/>
<path d="M87.1521 56.304H71.6521V58.116H87.1521V56.304Z" stroke="black" stroke-miterlimit="10"/>
<path d="M111.912 15.3679H87.0801V17.1279H111.912V15.3679Z" stroke="black" stroke-miterlimit="10"/>
<path d="M126.852 57.0239H123.236V60.7599H126.852V57.0239Z" stroke="black" stroke-miterlimit="10"/>
<path d="M136.252 58.5918H134.444V60.7598H136.252V58.5918Z" stroke="black" stroke-miterlimit="10"/>
<path d="M160.116 67.364H142.176V69.556H160.116V67.364Z" stroke="black" stroke-miterlimit="10"/>
<path d="M227.728 74.26H196.096V75.896H227.728V74.26Z" stroke="black" stroke-miterlimit="10"/>
<path d="M216.764 71.0039H204.228V74.2599H216.764V71.0039Z" stroke="black" stroke-miterlimit="10"/>
<path d="M214.108 71.1238V68.1118H223.268V74.1358" stroke="black" stroke-miterlimit="10"/>
<path d="M153.74 66.4639V42.1119H182.732V62.2879H192.704V27.9639H224.712V69.4799H234.688" stroke="black" stroke-miterlimit="10"/>
<path d="M132.864 54.404V27.5H113.148" stroke="black" stroke-miterlimit="10"/>
<path d="M70.7041 61.132H64.2081V42.344H57.9441" stroke="black" stroke-miterlimit="10"/>
<path d="M21.9959 56.0278H16.6599V129.088" stroke="black" stroke-miterlimit="10"/>
<path d="M244.428 42.576V33.76H247.212" stroke="black" stroke-miterlimit="10"/>
<path d="M263.216 33.9919H273.188V70.8719H290.12V113.548" stroke="black" stroke-miterlimit="10"/>
<path d="M91.5161 20.54H89.0281V25.412H91.5161V20.54Z" stroke="black" stroke-miterlimit="10"/>
<path d="M95.9961 20.54H93.5081V25.412H95.9961V20.54Z" stroke="black" stroke-miterlimit="10"/>
<path d="M100.476 20.54H97.988V25.412H100.476V20.54Z" stroke="black" stroke-miterlimit="10"/>
<path d="M104.956 20.54H102.468V25.412H104.956V20.54Z" stroke="black" stroke-miterlimit="10"/>
<path d="M109.436 20.54H106.948V25.412H109.436V20.54Z" stroke="black" stroke-miterlimit="10"/>
<path d="M91.5161 28.7759H89.0281V33.6479H91.5161V28.7759Z" stroke="black" stroke-miterlimit="10"/>
<path d="M95.9961 28.7759H93.5081V33.6479H95.9961V28.7759Z" stroke="black" stroke-miterlimit="10"/>
<path d="M100.476 28.7759H97.988V33.6479H100.476V28.7759Z" stroke="black" stroke-miterlimit="10"/>
<path d="M104.956 28.7759H102.468V33.6479H104.956V28.7759Z" stroke="black" stroke-miterlimit="10"/>
<path d="M109.436 28.7759H106.948V33.6479H109.436V28.7759Z" stroke="black" stroke-miterlimit="10"/>
<path d="M91.5161 37.0078H89.0281V41.8798H91.5161V37.0078Z" stroke="black" stroke-miterlimit="10"/>
<path d="M95.9961 37.0078H93.5081V41.8798H95.9961V37.0078Z" stroke="black" stroke-miterlimit="10"/>
<path d="M100.476 37.0078H97.988V41.8798H100.476V37.0078Z" stroke="black" stroke-miterlimit="10"/>
<path d="M104.956 37.0078H102.468V41.8798H104.956V37.0078Z" stroke="black" stroke-miterlimit="10"/>
<path d="M109.436 37.0078H106.948V41.8798H109.436V37.0078Z" stroke="black" stroke-miterlimit="10"/>
<path d="M91.5161 45.2439H89.0281V50.1159H91.5161V45.2439Z" stroke="black" stroke-miterlimit="10"/>
<path d="M95.9961 45.2439H93.5081V50.1159H95.9961V45.2439Z" stroke="black" stroke-miterlimit="10"/>
<path d="M100.476 45.2439H97.988V50.1159H100.476V45.2439Z" stroke="black" stroke-miterlimit="10"/>
<path d="M104.956 45.2439H102.468V50.1159H104.956V45.2439Z" stroke="black" stroke-miterlimit="10"/>
<path d="M109.436 45.2439H106.948V50.1159H109.436V45.2439Z" stroke="black" stroke-miterlimit="10"/>
<path d="M91.5161 53.4758H89.0281V58.3478H91.5161V53.4758Z" stroke="black" stroke-miterlimit="10"/>
<path d="M95.9961 53.4758H93.5081V58.3478H95.9961V53.4758Z" stroke="black" stroke-miterlimit="10"/>
<path d="M100.476 53.4758H97.988V58.3478H100.476V53.4758Z" stroke="black" stroke-miterlimit="10"/>
<path d="M104.956 53.4758H102.468V58.3478H104.956V53.4758Z" stroke="black" stroke-miterlimit="10"/>
<path d="M109.436 53.4758H106.948V58.3478H109.436V53.4758Z" stroke="black" stroke-miterlimit="10"/>
<path d="M91.5161 61.7119H89.0281V66.5839H91.5161V61.7119Z" stroke="black" stroke-miterlimit="10"/>
<path d="M95.9961 61.7119H93.5081V66.5839H95.9961V61.7119Z" stroke="black" stroke-miterlimit="10"/>
<path d="M100.476 61.7119H97.988V66.5839H100.476V61.7119Z" stroke="black" stroke-miterlimit="10"/>
<path d="M104.956 61.7119H102.468V66.5839H104.956V61.7119Z" stroke="black" stroke-miterlimit="10"/>
<path d="M109.436 61.7119H106.948V66.5839H109.436V61.7119Z" stroke="black" stroke-miterlimit="10"/>
<path d="M76.24 61.7119H73.752V66.5839H76.24V61.7119Z" stroke="black" stroke-miterlimit="10"/>
<path d="M80.7199 61.7119H78.2319V66.5839H80.7199V61.7119Z" stroke="black" stroke-miterlimit="10"/>
<path d="M85.1999 61.7119H82.7119V66.5839H85.1999V61.7119Z" stroke="black" stroke-miterlimit="10"/>
<path d="M76.24 69.7119H73.752V74.5839H76.24V69.7119Z" stroke="black" stroke-miterlimit="10"/>
<path d="M80.7199 69.7119H78.2319V74.5839H80.7199V69.7119Z" stroke="black" stroke-miterlimit="10"/>
<path d="M85.1999 69.7119H82.7119V74.5839H85.1999V69.7119Z" stroke="black" stroke-miterlimit="10"/>
<path d="M76.24 77.7158H73.752V82.5878H76.24V77.7158Z" stroke="black" stroke-miterlimit="10"/>
<path d="M80.7199 77.7158H78.2319V82.5878H80.7199V77.7158Z" stroke="black" stroke-miterlimit="10"/>
<path d="M85.1999 77.7158H82.7119V82.5878H85.1999V77.7158Z" stroke="black" stroke-miterlimit="10"/>
<path d="M76.24 85.7158H73.752V90.5878H76.24V85.7158Z" stroke="black" stroke-miterlimit="10"/>
<path d="M80.7199 85.7158H78.2319V90.5878H80.7199V85.7158Z" stroke="black" stroke-miterlimit="10"/>
<path d="M85.1999 85.7158H82.7119V90.5878H85.1999V85.7158Z" stroke="black" stroke-miterlimit="10"/>
<path d="M76.24 93.72H73.752V98.592H76.24V93.72Z" stroke="black" stroke-miterlimit="10"/>
<path d="M80.7199 93.72H78.2319V98.592H80.7199V93.72Z" stroke="black" stroke-miterlimit="10"/>
<path d="M85.1999 93.72H82.7119V98.592H85.1999V93.72Z" stroke="black" stroke-miterlimit="10"/>
<path d="M76.24 101.72H73.752V106.592H76.24V101.72Z" stroke="black" stroke-miterlimit="10"/>
<path d="M80.7199 101.72H78.2319V106.592H80.7199V101.72Z" stroke="black" stroke-miterlimit="10"/>
<path d="M85.1999 101.72H82.7119V106.592H85.1999V101.72Z" stroke="black" stroke-miterlimit="10"/>
<path d="M76.24 109.724H73.752V114.596H76.24V109.724Z" stroke="black" stroke-miterlimit="10"/>
<path d="M80.7199 109.724H78.2319V114.596H80.7199V109.724Z" stroke="black" stroke-miterlimit="10"/>
<path d="M85.1999 109.724H82.7119V114.596H85.1999V109.724Z" stroke="black" stroke-miterlimit="10"/>
<path d="M76.24 117.724H73.752V122.596H76.24V117.724Z" stroke="black" stroke-miterlimit="10"/>
<path d="M80.7199 117.724H78.2319V122.596H80.7199V117.724Z" stroke="black" stroke-miterlimit="10"/>
<path d="M85.1999 117.724H82.7119V122.596H85.1999V117.724Z" stroke="black" stroke-miterlimit="10"/>
<path d="M76.24 125.728H73.752V130.6H76.24V125.728Z" stroke="black" stroke-miterlimit="10"/>
<path d="M80.7199 125.728H78.2319V130.6H80.7199V125.728Z" stroke="black" stroke-miterlimit="10"/>
<path d="M85.1999 125.728H82.7119V130.6H85.1999V125.728Z" stroke="black" stroke-miterlimit="10"/>
<path d="M76.24 133.728H73.752V138.6H76.24V133.728Z" stroke="black" stroke-miterlimit="10"/>
<path d="M80.7199 133.728H78.2319V138.6H80.7199V133.728Z" stroke="black" stroke-miterlimit="10"/>
<path d="M85.1999 133.728H82.7119V138.6H85.1999V133.728Z" stroke="black" stroke-miterlimit="10"/>
<path d="M76.24 141.732H73.752V146.604H76.24V141.732Z" stroke="black" stroke-miterlimit="10"/>
<path d="M80.7199 141.732H78.2319V146.604H80.7199V141.732Z" stroke="black" stroke-miterlimit="10"/>
<path d="M85.1999 141.732H82.7119V146.604H85.1999V141.732Z" stroke="black" stroke-miterlimit="10"/>
<path d="M116.188 94.644H113.7V99.516H116.188V94.644Z" stroke="black" stroke-miterlimit="10"/>
<path d="M120.668 94.644H118.18V99.516H120.668V94.644Z" stroke="black" stroke-miterlimit="10"/>
<path d="M116.188 102.648H113.7V107.52H116.188V102.648Z" stroke="black" stroke-miterlimit="10"/>
<path d="M120.668 102.648H118.18V107.52H120.668V102.648Z" stroke="black" stroke-miterlimit="10"/>
<path d="M116.188 110.652H113.7V115.524H116.188V110.652Z" stroke="black" stroke-miterlimit="10"/>
<path d="M120.668 110.652H118.18V115.524H120.668V110.652Z" stroke="black" stroke-miterlimit="10"/>
<path d="M116.188 118.652H113.7V123.524H116.188V118.652Z" stroke="black" stroke-miterlimit="10"/>
<path d="M120.668 118.652H118.18V123.524H120.668V118.652Z" stroke="black" stroke-miterlimit="10"/>
<path d="M116.188 126.656H113.7V131.528H116.188V126.656Z" stroke="black" stroke-miterlimit="10"/>
<path d="M120.668 126.656H118.18V131.528H120.668V126.656Z" stroke="black" stroke-miterlimit="10"/>
<path d="M116.188 134.656H113.7V139.528H116.188V134.656Z" stroke="black" stroke-miterlimit="10"/>
<path d="M120.668 134.656H118.18V139.528H120.668V134.656Z" stroke="black" stroke-miterlimit="10"/>
<path d="M116.188 142.66H113.7V147.532H116.188V142.66Z" stroke="black" stroke-miterlimit="10"/>
<path d="M120.668 142.66H118.18V147.532H120.668V142.66Z" stroke="black" stroke-miterlimit="10"/>
<path d="M91.5161 69.9438H89.0281V74.8158H91.5161V69.9438Z" stroke="black" stroke-miterlimit="10"/>
<path d="M95.9961 69.9438H93.5081V74.8158H95.9961V69.9438Z" stroke="black" stroke-miterlimit="10"/>
<path d="M100.476 69.9438H97.988V74.8158H100.476V69.9438Z" stroke="black" stroke-miterlimit="10"/>
<path d="M104.956 69.9438H102.468V74.8158H104.956V69.9438Z" stroke="black" stroke-miterlimit="10"/>
<path d="M109.436 69.9438H106.948V74.8158H109.436V69.9438Z" stroke="black" stroke-miterlimit="10"/>
<path d="M91.5161 78.1799H89.0281V83.0519H91.5161V78.1799Z" stroke="black" stroke-miterlimit="10"/>
<path d="M95.9961 78.1799H93.5081V83.0519H95.9961V78.1799Z" stroke="black" stroke-miterlimit="10"/>
<path d="M100.476 78.1799H97.988V83.0519H100.476V78.1799Z" stroke="black" stroke-miterlimit="10"/>
<path d="M104.956 78.1799H102.468V83.0519H104.956V78.1799Z" stroke="black" stroke-miterlimit="10"/>
<path d="M109.436 78.1799H106.948V83.0519H109.436V78.1799Z" stroke="black" stroke-miterlimit="10"/>
<path d="M91.5161 86.4119H89.0281V91.2839H91.5161V86.4119Z" stroke="black" stroke-miterlimit="10"/>
<path d="M95.9961 86.4119H93.5081V91.2839H95.9961V86.4119Z" stroke="black" stroke-miterlimit="10"/>
<path d="M100.476 86.4119H97.988V91.2839H100.476V86.4119Z" stroke="black" stroke-miterlimit="10"/>
<path d="M104.956 86.4119H102.468V91.2839H104.956V86.4119Z" stroke="black" stroke-miterlimit="10"/>
<path d="M109.436 86.4119H106.948V91.2839H109.436V86.4119Z" stroke="black" stroke-miterlimit="10"/>
<path d="M91.5161 94.644H89.0281V99.516H91.5161V94.644Z" stroke="black" stroke-miterlimit="10"/>
<path d="M95.9961 94.644H93.5081V99.516H95.9961V94.644Z" stroke="black" stroke-miterlimit="10"/>
<path d="M100.476 94.644H97.988V99.516H100.476V94.644Z" stroke="black" stroke-miterlimit="10"/>
<path d="M104.956 94.644H102.468V99.516H104.956V94.644Z" stroke="black" stroke-miterlimit="10"/>
<path d="M109.436 94.644H106.948V99.516H109.436V94.644Z" stroke="black" stroke-miterlimit="10"/>
<path d="M91.5161 102.88H89.0281V107.752H91.5161V102.88Z" stroke="black" stroke-miterlimit="10"/>
<path d="M95.9961 102.88H93.5081V107.752H95.9961V102.88Z" stroke="black" stroke-miterlimit="10"/>
<path d="M100.476 102.88H97.988V107.752H100.476V102.88Z" stroke="black" stroke-miterlimit="10"/>
<path d="M104.956 102.88H102.468V107.752H104.956V102.88Z" stroke="black" stroke-miterlimit="10"/>
<path d="M109.436 102.88H106.948V107.752H109.436V102.88Z" stroke="black" stroke-miterlimit="10"/>
<path d="M91.5161 111.112H89.0281V115.984H91.5161V111.112Z" stroke="black" stroke-miterlimit="10"/>
<path d="M95.9961 111.112H93.5081V115.984H95.9961V111.112Z" stroke="black" stroke-miterlimit="10"/>
<path d="M100.476 111.112H97.988V115.984H100.476V111.112Z" stroke="black" stroke-miterlimit="10"/>
<path d="M104.956 111.112H102.468V115.984H104.956V111.112Z" stroke="black" stroke-miterlimit="10"/>
<path d="M109.436 111.112H106.948V115.984H109.436V111.112Z" stroke="black" stroke-miterlimit="10"/>
<path d="M91.5161 119.348H89.0281V124.22H91.5161V119.348Z" stroke="black" stroke-miterlimit="10"/>
<path d="M95.9961 119.348H93.5081V124.22H95.9961V119.348Z" stroke="black" stroke-miterlimit="10"/>
<path d="M100.476 119.348H97.988V124.22H100.476V119.348Z" stroke="black" stroke-miterlimit="10"/>
<path d="M104.956 119.348H102.468V124.22H104.956V119.348Z" stroke="black" stroke-miterlimit="10"/>
<path d="M109.436 119.348H106.948V124.22H109.436V119.348Z" stroke="black" stroke-miterlimit="10"/>
<path d="M91.5161 127.58H89.0281V132.452H91.5161V127.58Z" stroke="black" stroke-miterlimit="10"/>
<path d="M95.9961 127.58H93.5081V132.452H95.9961V127.58Z" stroke="black" stroke-miterlimit="10"/>
<path d="M100.476 127.58H97.988V132.452H100.476V127.58Z" stroke="black" stroke-miterlimit="10"/>
<path d="M104.956 127.58H102.468V132.452H104.956V127.58Z" stroke="black" stroke-miterlimit="10"/>
<path d="M109.436 127.58H106.948V132.452H109.436V127.58Z" stroke="black" stroke-miterlimit="10"/>
<path d="M91.5161 135.816H89.0281V140.688H91.5161V135.816Z" stroke="black" stroke-miterlimit="10"/>
<path d="M95.9961 135.816H93.5081V140.688H95.9961V135.816Z" stroke="black" stroke-miterlimit="10"/>
<path d="M100.476 135.816H97.988V140.688H100.476V135.816Z" stroke="black" stroke-miterlimit="10"/>
<path d="M104.956 135.816H102.468V140.688H104.956V135.816Z" stroke="black" stroke-miterlimit="10"/>
<path d="M109.436 135.816H106.948V140.688H109.436V135.816Z" stroke="black" stroke-miterlimit="10"/>
<path d="M91.5161 144.28H89.0281V149.152H91.5161V144.28Z" stroke="black" stroke-miterlimit="10"/>
<path d="M95.9961 144.28H93.5081V149.152H95.9961V144.28Z" stroke="black" stroke-miterlimit="10"/>
<path d="M100.476 144.28H97.988V149.152H100.476V144.28Z" stroke="black" stroke-miterlimit="10"/>
<path d="M104.956 144.28H102.468V149.152H104.956V144.28Z" stroke="black" stroke-miterlimit="10"/>
<path d="M109.436 144.28H106.948V149.152H109.436V144.28Z" stroke="black" stroke-miterlimit="10"/>
<path d="M87.1521 58.116V157.388" stroke="black" stroke-miterlimit="10"/>
<path d="M125.208 62.752V155.996" stroke="black" stroke-miterlimit="10"/>
<path d="M130.08 62.752V155.996" stroke="black" stroke-miterlimit="10"/>
<path d="M134.952 62.752V155.996" stroke="black" stroke-miterlimit="10"/>
<path d="M139.82 62.752V155.996" stroke="black" stroke-miterlimit="10"/>
<path d="M144.692 72.032V155.996" stroke="black" stroke-miterlimit="10"/>
<path d="M149.564 72.032V155.996" stroke="black" stroke-miterlimit="10"/>
<path d="M154.436 72.032V155.996" stroke="black" stroke-miterlimit="10"/>
<path d="M24.3159 40.488H54.6999" stroke="black" stroke-miterlimit="10"/>
<path d="M24.3159 46.5159H54.6999" stroke="black" stroke-miterlimit="10"/>
<path d="M24.3159 52.5479H54.6999" stroke="black" stroke-miterlimit="10"/>
<path d="M24.3159 58.5798H54.6999" stroke="black" stroke-miterlimit="10"/>
<path d="M24.3159 64.6079H54.6999" stroke="black" stroke-miterlimit="10"/>
<path d="M24.3159 70.6399H54.6999" stroke="black" stroke-miterlimit="10"/>
<path d="M24.3159 76.6719H54.6999" stroke="black" stroke-miterlimit="10"/>
<path d="M24.3159 82.7H54.6999" stroke="black" stroke-miterlimit="10"/>
<path d="M24.3159 88.7319H54.6999" stroke="black" stroke-miterlimit="10"/>
<path d="M24.3159 94.76H54.6999" stroke="black" stroke-miterlimit="10"/>
<path d="M24.3159 100.792H54.6999" stroke="black" stroke-miterlimit="10"/>
<path d="M24.3159 106.824H54.6999" stroke="black" stroke-miterlimit="10"/>
<path d="M24.3159 112.852H54.6999" stroke="black" stroke-miterlimit="10"/>
<path d="M24.3159 118.884H54.6999" stroke="black" stroke-miterlimit="10"/>
<path d="M24.3159 124.916H54.6999" stroke="black" stroke-miterlimit="10"/>
<path d="M24.3159 130.944H54.6999" stroke="black" stroke-miterlimit="10"/>
<path d="M24.3159 136.976H54.6999" stroke="black" stroke-miterlimit="10"/>
<path d="M24.3159 143.008H54.6999" stroke="black" stroke-miterlimit="10"/>
<path d="M24.3159 149.036H54.6999" stroke="black" stroke-miterlimit="10"/>
<path d="M24.3159 155.068H54.6999" stroke="black" stroke-miterlimit="10"/>
<path d="M24.3159 161.096H54.6999" stroke="black" stroke-miterlimit="10"/>
<path d="M28.2561 31.4399V162.488" stroke="black" stroke-miterlimit="10"/>
<path d="M237.004 57.188H243.732V60.436H237.004" stroke="black" stroke-miterlimit="10"/>
<path d="M276.204 93.604H268.552V96.848H276.204" stroke="black" stroke-miterlimit="10"/>
<path d="M276.204 101.256H268.552V104.504H276.204" stroke="black" stroke-miterlimit="10"/>
<path d="M276.204 108.912H268.552V112.156H276.204" stroke="black" stroke-miterlimit="10"/>
<path d="M276.204 116.564H268.552V119.812H276.204" stroke="black" stroke-miterlimit="10"/>
<path d="M276.204 124.22H268.552V127.468H276.204" stroke="black" stroke-miterlimit="10"/>
<path d="M276.204 131.872H268.552V135.12H276.204" stroke="black" stroke-miterlimit="10"/>
<path d="M276.204 139.528H268.552V142.776H276.204" stroke="black" stroke-miterlimit="10"/>
<path d="M276.204 147.18H268.552V150.428H276.204" stroke="black" stroke-miterlimit="10"/>
<path d="M237.004 66H243.732V69.248H237.004" stroke="black" stroke-miterlimit="10"/>
<path d="M237.004 74.8159H243.732V78.0639H237.004" stroke="black" stroke-miterlimit="10"/>
<path d="M237.004 83.6279H243.732V86.8759H237.004" stroke="black" stroke-miterlimit="10"/>
<path d="M237.004 92.4438H243.732V95.6878H237.004" stroke="black" stroke-miterlimit="10"/>
<path d="M237.004 101.256H243.732V104.504H237.004" stroke="black" stroke-miterlimit="10"/>
<path d="M237.004 110.072H243.732V113.316H237.004" stroke="black" stroke-miterlimit="10"/>
<path d="M237.004 118.884H243.732V122.132H237.004" stroke="black" stroke-miterlimit="10"/>
<path d="M237.004 127.7H243.732V130.944H237.004" stroke="black" stroke-miterlimit="10"/>
<path d="M237.004 136.512H243.732V139.76H237.004" stroke="black" stroke-miterlimit="10"/>
<path d="M226.336 78.292H197.112V81.076H226.336V78.292Z" stroke="black" stroke-miterlimit="10"/>
<path d="M226.336 83.1638H197.112V85.9478H226.336V83.1638Z" stroke="black" stroke-miterlimit="10"/>
<path d="M226.336 88.0359H197.112V90.8199H226.336V88.0359Z" stroke="black" stroke-miterlimit="10"/>
<path d="M226.336 92.908H197.112V95.692H226.336V92.908Z" stroke="black" stroke-miterlimit="10"/>
<path d="M226.336 97.7759H197.112V100.56H226.336V97.7759Z" stroke="black" stroke-miterlimit="10"/>
<path d="M226.336 102.648H197.112V105.432H226.336V102.648Z" stroke="black" stroke-miterlimit="10"/>
<path d="M226.336 107.52H197.112V110.304H226.336V107.52Z" stroke="black" stroke-miterlimit="10"/>
<path d="M226.336 112.388H197.112V115.172H226.336V112.388Z" stroke="black" stroke-miterlimit="10"/>
<path d="M226.336 117.26H197.112V120.044H226.336V117.26Z" stroke="black" stroke-miterlimit="10"/>
<path d="M226.336 122.132H197.112V124.916H226.336V122.132Z" stroke="black" stroke-miterlimit="10"/>
<path d="M226.336 127.004H197.112V129.788H226.336V127.004Z" stroke="black" stroke-miterlimit="10"/>
<path d="M226.336 131.872H197.112V134.656H226.336V131.872Z" stroke="black" stroke-miterlimit="10"/>
<path d="M226.336 136.744H197.112V139.528H226.336V136.744Z" stroke="black" stroke-miterlimit="10"/>
<path d="M226.336 141.616H197.112V144.4H226.336V141.616Z" stroke="black" stroke-miterlimit="10"/>
<path d="M226.336 146.484H197.112V149.268H226.336V146.484Z" stroke="black" stroke-miterlimit="10"/>
<path d="M226.336 151.356H197.112V154.14H226.336V151.356Z" stroke="black" stroke-miterlimit="10"/>
<path d="M226.336 156.228H197.112V159.012H226.336V156.228Z" stroke="black" stroke-miterlimit="10"/>
<path d="M247.908 49.532V157.156" stroke="black" stroke-miterlimit="10"/>
<path d="M253.936 29.124V157.156" stroke="black" stroke-miterlimit="10"/>
<path d="M184.588 132.568H169.976V140.224H184.588V132.568Z" stroke="black" stroke-miterlimit="10"/>
<path d="M181.108 119.116H173.452V132.568H181.108V119.116Z" stroke="black" stroke-miterlimit="10"/>
<path d="M111.912 90.748V157.204" stroke="black" stroke-miterlimit="10"/>
<path d="M195.844 83.4639H160.36" stroke="black" stroke-miterlimit="10"/>
<path d="M195.844 87.4319H160.36" stroke="black" stroke-miterlimit="10"/>
<path d="M167.356 90.4038H161.944V94.3678H167.356V90.4038Z" stroke="black" stroke-miterlimit="10"/>
<path d="M174.032 90.4038H168.62V94.3678H174.032V90.4038Z" stroke="black" stroke-miterlimit="10"/>
<path d="M180.708 90.4038H175.296V94.3678H180.708V90.4038Z" stroke="black" stroke-miterlimit="10"/>
<path d="M187.384 90.4038H181.972V94.3678H187.384V90.4038Z" stroke="black" stroke-miterlimit="10"/>
<path d="M194.06 90.4038H188.648V94.3678H194.06V90.4038Z" stroke="black" stroke-miterlimit="10"/>
<path d="M167.356 96.5479H161.944V100.512H167.356V96.5479Z" stroke="black" stroke-miterlimit="10"/>
<path d="M174.032 96.5479H168.62V100.512H174.032V96.5479Z" stroke="black" stroke-miterlimit="10"/>
<path d="M180.708 96.5479H175.296V100.512H180.708V96.5479Z" stroke="black" stroke-miterlimit="10"/>
<path d="M187.384 96.5479H181.972V100.512H187.384V96.5479Z" stroke="black" stroke-miterlimit="10"/>
<path d="M194.06 96.5479H188.648V100.512H194.06V96.5479Z" stroke="black" stroke-miterlimit="10"/>
<path d="M167.356 102.692H161.944V106.656H167.356V102.692Z" stroke="black" stroke-miterlimit="10"/>
<path d="M174.032 102.692H168.62V106.656H174.032V102.692Z" stroke="black" stroke-miterlimit="10"/>
<path d="M180.708 102.692H175.296V106.656H180.708V102.692Z" stroke="black" stroke-miterlimit="10"/>
<path d="M187.384 102.692H181.972V106.656H187.384V102.692Z" stroke="black" stroke-miterlimit="10"/>
<path d="M194.06 102.692H188.648V106.656H194.06V102.692Z" stroke="black" stroke-miterlimit="10"/>
<path d="M167.356 113.796H161.944V117.76H167.356V113.796Z" stroke="black" stroke-miterlimit="10"/>
<path d="M174.032 113.796H168.62V117.76H174.032V113.796Z" stroke="black" stroke-miterlimit="10"/>
<path d="M180.708 113.796H175.296V117.76H180.708V113.796Z" stroke="black" stroke-miterlimit="10"/>
<path d="M187.384 113.796H181.972V117.76H187.384V113.796Z" stroke="black" stroke-miterlimit="10"/>
<path d="M194.06 113.796H188.648V117.76H194.06V113.796Z" stroke="black" stroke-miterlimit="10"/>
</g>
<path d="M280.4 174.096C280.4 174.096 280.584 173.432 280.588 173.388C280.66 172.884 280.5 171.868 279.984 171.62C279.898 171.581 279.805 171.56 279.71 171.56C279.616 171.559 279.522 171.578 279.435 171.616C279.349 171.653 279.271 171.709 279.207 171.778C279.143 171.848 279.094 171.93 279.064 172.02C279.019 172.22 279.017 172.428 279.06 172.628C279.102 172.829 279.186 173.019 279.308 173.184C279.625 173.54 279.993 173.848 280.4 174.096Z" fill="#263238"/>
<path d="M270.26 173.88C270.72 174.002 271.196 174.054 271.672 174.036C271.672 174.036 271.456 173.38 271.44 173.34C271.22 172.88 270.524 172.12 269.956 172.2C269.863 172.215 269.774 172.25 269.695 172.302C269.615 172.353 269.548 172.421 269.497 172.501C269.446 172.581 269.413 172.67 269.399 172.764C269.385 172.857 269.391 172.953 269.416 173.044C269.488 173.236 269.6 173.41 269.746 173.555C269.892 173.699 270.067 173.81 270.26 173.88Z" fill="#263238"/>
<path d="M270.608 176.8C271.079 176.799 271.547 176.726 271.996 176.584C272.145 177.095 272.327 177.596 272.54 178.084C272.664 178.368 272.796 178.652 272.94 178.932C272.86 178.812 272.784 178.708 272.772 178.692C272.44 178.292 271.572 177.76 271.044 177.984C270.958 178.023 270.881 178.081 270.818 178.152C270.755 178.223 270.708 178.307 270.68 178.397C270.652 178.488 270.643 178.583 270.654 178.677C270.665 178.772 270.695 178.862 270.744 178.944C270.865 179.109 271.02 179.247 271.199 179.347C271.377 179.447 271.576 179.508 271.78 179.524C272.239 179.526 272.695 179.455 273.132 179.316C273.184 179.424 273.236 179.532 273.292 179.64C273.552 180.156 273.812 180.668 274.052 181.18C274.136 181.36 274.212 181.54 274.292 181.72C274.216 181.616 274.156 181.524 274.144 181.512C273.812 181.112 272.944 180.58 272.416 180.804C272.329 180.843 272.252 180.9 272.189 180.971C272.126 181.042 272.078 181.126 272.05 181.216C272.022 181.307 272.013 181.403 272.024 181.497C272.036 181.592 272.067 181.683 272.116 181.764C272.237 181.929 272.392 182.067 272.571 182.167C272.749 182.267 272.948 182.328 273.152 182.344C273.598 182.347 274.042 182.281 274.468 182.148C274.54 182.336 274.616 182.52 274.676 182.704C274.736 182.888 274.764 182.952 274.8 183.104C274.836 183.256 274.868 183.356 274.904 183.48C274.964 183.724 275.024 183.976 275.076 184.216C275.112 184.384 275.144 184.54 275.176 184.7C275.096 184.52 274.928 184.172 274.908 184.144C274.64 183.712 273.86 183.04 273.308 183.18C273.216 183.206 273.131 183.25 273.058 183.311C272.986 183.372 272.926 183.448 272.885 183.533C272.843 183.618 272.82 183.712 272.817 183.807C272.814 183.902 272.832 183.996 272.868 184.084C272.961 184.266 273.092 184.426 273.253 184.553C273.414 184.679 273.601 184.769 273.8 184.816C274.264 184.884 274.736 184.884 275.2 184.816C275.252 185.08 275.304 185.34 275.344 185.584C275.496 186.428 275.588 187.136 275.644 187.636H276.044V187.592C275.972 187.088 275.864 186.372 275.696 185.52C275.64 185.252 275.58 184.964 275.512 184.672C275.779 184.564 276.039 184.441 276.292 184.304C276.636 184.6 277.02 184.846 277.432 185.036C277.328 185.288 277.228 185.528 277.128 185.756C276.788 186.556 276.472 187.188 276.244 187.636H276.668C276.88 187.192 277.152 186.596 277.44 185.888C277.544 185.636 277.652 185.36 277.756 185.088C278.213 185.193 278.684 185.229 279.152 185.196C279.354 185.164 279.548 185.088 279.718 184.974C279.889 184.86 280.032 184.711 280.14 184.536C280.182 184.451 280.205 184.358 280.209 184.263C280.212 184.168 280.196 184.074 280.161 183.986C280.126 183.897 280.073 183.818 280.005 183.751C279.938 183.685 279.857 183.633 279.768 183.6C279.224 183.42 278.4 184.032 278.096 184.444C278.096 184.468 277.916 184.752 277.816 184.932C277.856 184.82 277.9 184.708 277.944 184.588C278.028 184.352 278.108 184.116 278.196 183.86C278.232 183.736 278.268 183.608 278.308 183.48C278.348 183.352 278.376 183.22 278.408 183.08C278.484 182.768 278.544 182.452 278.596 182.132C279.019 182.302 279.465 182.405 279.92 182.436C280.125 182.435 280.327 182.389 280.513 182.302C280.699 182.215 280.864 182.089 280.996 181.932C281.05 181.854 281.087 181.766 281.104 181.673C281.122 181.58 281.12 181.484 281.099 181.392C281.077 181.299 281.037 181.213 280.98 181.137C280.923 181.061 280.851 180.998 280.768 180.952C280.26 180.692 279.352 181.176 278.992 181.532C278.968 181.556 278.736 181.844 278.616 182.004C278.644 181.812 278.676 181.604 278.7 181.424C278.768 180.856 278.824 180.28 278.88 179.708C278.88 179.532 278.916 179.356 278.932 179.184C279.371 179.358 279.833 179.465 280.304 179.504C280.508 179.503 280.71 179.457 280.895 179.37C281.08 179.283 281.244 179.157 281.376 179C281.431 178.922 281.468 178.834 281.487 178.741C281.505 178.648 281.503 178.552 281.482 178.46C281.461 178.368 281.421 178.281 281.364 178.205C281.307 178.129 281.235 178.066 281.152 178.02C280.644 177.76 279.736 178.24 279.372 178.6C279.344 178.628 279.016 179.04 278.936 179.152C278.976 178.752 279.02 178.38 279.08 178.004C279.157 177.495 279.266 176.991 279.408 176.496C279.847 176.673 280.311 176.783 280.784 176.82C280.989 176.82 281.192 176.775 281.378 176.688C281.564 176.601 281.729 176.474 281.86 176.316C281.914 176.238 281.952 176.15 281.97 176.057C281.988 175.963 281.986 175.868 281.965 175.775C281.943 175.683 281.902 175.596 281.845 175.52C281.788 175.444 281.715 175.382 281.632 175.336C281.128 175.076 280.216 175.56 279.856 175.92C279.832 175.944 279.58 176.256 279.456 176.408H279.428C279.572 175.895 279.764 175.397 280 174.92C280.132 174.664 280.268 174.428 280.4 174.204C280.809 174.421 281.249 174.574 281.704 174.66C281.908 174.683 282.114 174.66 282.308 174.595C282.502 174.529 282.68 174.422 282.828 174.28C282.891 174.209 282.938 174.125 282.967 174.035C282.995 173.944 283.004 173.848 282.993 173.754C282.982 173.66 282.952 173.569 282.903 173.487C282.855 173.405 282.79 173.335 282.712 173.28C282.236 172.964 281.28 173.344 280.88 173.68C280.88 173.68 280.656 173.896 280.512 174.044L280.708 173.74C280.944 173.38 281.184 173.068 281.4 172.792C281.524 172.632 281.64 172.496 281.748 172.364C282.208 172.371 282.667 172.306 283.108 172.172C283.3 172.097 283.473 171.982 283.615 171.833C283.757 171.685 283.866 171.507 283.932 171.312C283.954 171.22 283.957 171.125 283.94 171.032C283.923 170.939 283.887 170.851 283.833 170.773C283.78 170.695 283.711 170.629 283.631 170.579C283.551 170.529 283.461 170.497 283.368 170.484C282.8 170.42 282.124 171.2 281.916 171.664C281.916 171.704 281.692 172.368 281.704 172.368C281.596 172.488 281.48 172.62 281.36 172.768C281.14 173.04 280.892 173.348 280.644 173.704C280.373 174.089 280.124 174.49 279.9 174.904C279.645 175.361 279.432 175.84 279.264 176.336C279.264 176.168 279.264 175.704 279.264 175.668C279.2 175.16 278.776 174.224 278.216 174.12C278.121 174.102 278.023 174.105 277.929 174.128C277.835 174.152 277.747 174.195 277.671 174.255C277.595 174.316 277.533 174.391 277.489 174.478C277.445 174.564 277.42 174.659 277.416 174.756C277.431 174.962 277.491 175.162 277.592 175.343C277.693 175.523 277.832 175.679 278 175.8C278.394 176.057 278.824 176.254 279.276 176.384C279.117 176.892 278.993 177.411 278.904 177.936C278.848 178.24 278.804 178.548 278.76 178.86C278.76 178.716 278.76 178.584 278.76 178.568C278.692 178.064 278.268 177.124 277.708 177.02C277.613 177.003 277.515 177.006 277.421 177.03C277.327 177.053 277.24 177.097 277.164 177.157C277.088 177.217 277.026 177.293 276.982 177.379C276.938 177.465 276.913 177.559 276.908 177.656C276.917 177.861 276.97 178.061 277.064 178.244C277.158 178.426 277.29 178.586 277.452 178.712C277.833 178.966 278.251 179.159 278.692 179.284C278.692 179.404 278.66 179.524 278.648 179.644C278.58 180.216 278.512 180.788 278.432 181.348C278.404 181.544 278.368 181.748 278.332 181.928C278.332 181.8 278.332 181.692 278.332 181.676C278.264 181.172 277.84 180.232 277.28 180.128C277.185 180.111 277.087 180.114 276.993 180.138C276.899 180.161 276.812 180.205 276.736 180.265C276.66 180.325 276.598 180.401 276.554 180.487C276.51 180.573 276.485 180.667 276.48 180.764C276.488 180.969 276.541 181.17 276.635 181.352C276.729 181.535 276.862 181.694 277.024 181.82C277.393 182.068 277.798 182.258 278.224 182.384C278.184 182.58 278.14 182.784 278.092 182.964C278.056 183.092 278.028 183.22 277.984 183.344L277.864 183.72C277.78 183.956 277.692 184.2 277.604 184.428C277.544 184.588 277.48 184.736 277.42 184.888C277.452 184.692 277.504 184.308 277.504 184.276C277.498 183.827 277.377 183.388 277.152 183C277.156 182.951 277.156 182.901 277.152 182.852C277.14 182.758 277.108 182.667 277.059 182.586C277.01 182.505 276.944 182.435 276.866 182.381C276.787 182.327 276.699 182.29 276.606 182.273C276.512 182.255 276.416 182.258 276.324 182.28C275.772 182.424 275.424 183.392 275.396 183.904C275.396 183.932 275.416 184.26 275.432 184.468C275.404 184.348 275.38 184.228 275.348 184.108C275.292 183.864 275.224 183.62 275.156 183.36C275.12 183.236 275.08 183.112 275.044 182.984C275.008 182.856 274.952 182.728 274.908 182.584C274.8 182.288 274.676 181.992 274.54 181.696C274.987 181.604 275.416 181.442 275.812 181.216C275.983 181.103 276.127 180.954 276.234 180.779C276.342 180.604 276.409 180.408 276.432 180.204C276.434 180.109 276.417 180.015 276.381 179.928C276.345 179.84 276.291 179.761 276.222 179.696C276.153 179.631 276.072 179.581 275.982 179.549C275.893 179.517 275.798 179.505 275.704 179.512C275.136 179.576 274.644 180.48 274.54 180.976C274.54 181.008 274.5 181.376 274.488 181.576C274.404 181.4 274.324 181.22 274.236 181.044C273.984 180.532 273.712 180.024 273.436 179.516L273.192 179.048C273.654 178.953 274.099 178.788 274.512 178.56C274.682 178.445 274.826 178.295 274.933 178.119C275.039 177.944 275.108 177.748 275.132 177.544C275.134 177.449 275.116 177.355 275.079 177.268C275.043 177.181 274.988 177.102 274.919 177.037C274.85 176.972 274.768 176.923 274.679 176.891C274.589 176.86 274.494 176.848 274.4 176.856C273.832 176.916 273.34 177.82 273.24 178.32C273.24 178.356 273.184 178.884 273.176 179.02C273 178.676 272.824 178.332 272.664 177.984C272.447 177.517 272.261 177.036 272.108 176.544C272.573 176.449 273.02 176.284 273.436 176.056C273.606 175.942 273.749 175.792 273.855 175.618C273.962 175.443 274.029 175.247 274.052 175.044C274.055 174.949 274.038 174.855 274.002 174.767C273.966 174.679 273.912 174.6 273.843 174.535C273.775 174.469 273.693 174.419 273.603 174.388C273.514 174.356 273.419 174.344 273.324 174.352C272.756 174.412 272.264 175.316 272.16 175.816C272.16 175.848 272.12 176.252 272.104 176.444H272.072C271.93 175.946 271.834 175.436 271.784 174.92C271.752 174.64 271.736 174.364 271.728 174.1C272.189 174.055 272.64 173.942 273.068 173.764C273.249 173.669 273.408 173.536 273.533 173.373C273.658 173.211 273.746 173.024 273.792 172.824C273.806 172.73 273.799 172.634 273.773 172.543C273.747 172.452 273.702 172.367 273.64 172.294C273.579 172.222 273.503 172.163 273.418 172.122C273.332 172.081 273.239 172.058 273.144 172.056C272.572 172.056 271.984 172.9 271.828 173.384C271.828 173.412 271.764 173.688 271.724 173.892C271.724 173.772 271.724 173.648 271.724 173.532C271.724 173.1 271.752 172.704 271.776 172.356C271.776 172.156 271.812 171.976 271.832 171.812C272.22 171.561 272.566 171.252 272.86 170.896C272.979 170.729 273.059 170.537 273.096 170.336C273.133 170.134 273.124 169.926 273.072 169.728C273.043 169.637 272.995 169.552 272.931 169.481C272.866 169.41 272.787 169.354 272.699 169.316C272.611 169.278 272.516 169.259 272.42 169.261C272.325 169.263 272.23 169.286 272.144 169.328C271.636 169.588 271.504 170.608 271.588 171.112C271.588 171.156 271.784 171.82 271.796 171.816C271.796 171.98 271.752 172.152 271.732 172.34C271.696 172.692 271.66 173.084 271.652 173.52C271.635 173.987 271.646 174.454 271.684 174.92C271.724 175.441 271.811 175.958 271.944 176.464C271.852 176.324 271.588 175.936 271.544 175.912C271.212 175.512 270.344 174.976 269.816 175.2C269.73 175.239 269.653 175.297 269.59 175.368C269.527 175.439 269.48 175.523 269.452 175.613C269.424 175.704 269.415 175.799 269.426 175.893C269.437 175.988 269.467 176.078 269.516 176.16C269.635 176.344 269.796 176.498 269.986 176.61C270.176 176.721 270.389 176.786 270.608 176.8Z" fill="#263238"/>
<path opacity="0.3" d="M270.26 173.88C270.72 174.002 271.196 174.054 271.672 174.036C271.672 174.036 271.456 173.38 271.44 173.34C271.22 172.88 270.524 172.12 269.956 172.2C269.863 172.215 269.774 172.25 269.695 172.302C269.615 172.353 269.548 172.421 269.497 172.501C269.446 172.581 269.413 172.67 269.399 172.764C269.385 172.857 269.391 172.953 269.416 173.044C269.488 173.236 269.6 173.41 269.746 173.555C269.892 173.699 270.067 173.81 270.26 173.88Z" fill="#263238"/>
<path opacity="0.3" d="M280.4 174.096C280.4 174.096 280.584 173.432 280.588 173.388C280.66 172.884 280.5 171.868 279.984 171.62C279.898 171.581 279.805 171.56 279.71 171.56C279.616 171.559 279.522 171.578 279.435 171.616C279.349 171.653 279.271 171.709 279.207 171.778C279.143 171.848 279.094 171.93 279.064 172.02C279.019 172.22 279.017 172.428 279.06 172.628C279.102 172.829 279.186 173.019 279.308 173.184C279.625 173.54 279.993 173.848 280.4 174.096Z" fill="#263238"/>
<path opacity="0.3" d="M270.608 176.8C271.079 176.799 271.547 176.726 271.996 176.584C272.145 177.095 272.327 177.596 272.54 178.084C272.664 178.368 272.796 178.652 272.94 178.932C272.86 178.812 272.784 178.708 272.772 178.692C272.44 178.292 271.572 177.76 271.044 177.984C270.958 178.023 270.881 178.081 270.818 178.152C270.755 178.223 270.708 178.307 270.68 178.397C270.652 178.488 270.643 178.583 270.654 178.677C270.665 178.772 270.695 178.862 270.744 178.944C270.865 179.109 271.02 179.247 271.199 179.347C271.377 179.447 271.576 179.508 271.78 179.524C272.239 179.526 272.695 179.455 273.132 179.316C273.184 179.424 273.236 179.532 273.292 179.64C273.552 180.156 273.812 180.668 274.052 181.18C274.136 181.36 274.212 181.54 274.292 181.72C274.216 181.616 274.156 181.524 274.144 181.512C273.812 181.112 272.944 180.58 272.416 180.804C272.329 180.843 272.252 180.9 272.189 180.971C272.126 181.042 272.078 181.126 272.05 181.216C272.022 181.307 272.013 181.403 272.024 181.497C272.036 181.592 272.067 181.683 272.116 181.764C272.237 181.929 272.392 182.067 272.571 182.167C272.749 182.267 272.948 182.328 273.152 182.344C273.598 182.347 274.042 182.281 274.468 182.148C274.54 182.336 274.616 182.52 274.676 182.704C274.736 182.888 274.764 182.952 274.8 183.104C274.836 183.256 274.868 183.356 274.904 183.48C274.964 183.724 275.024 183.976 275.076 184.216C275.112 184.384 275.144 184.54 275.176 184.7C275.096 184.52 274.928 184.172 274.908 184.144C274.64 183.712 273.86 183.04 273.308 183.18C273.216 183.206 273.131 183.25 273.058 183.311C272.986 183.372 272.926 183.448 272.885 183.533C272.843 183.618 272.82 183.712 272.817 183.807C272.814 183.902 272.832 183.996 272.868 184.084C272.961 184.266 273.092 184.426 273.253 184.553C273.414 184.679 273.601 184.769 273.8 184.816C274.264 184.884 274.736 184.884 275.2 184.816C275.252 185.08 275.304 185.34 275.344 185.584C275.496 186.428 275.588 187.136 275.644 187.636H276.044V187.592C275.972 187.088 275.864 186.372 275.696 185.52C275.64 185.252 275.58 184.964 275.512 184.672C275.779 184.564 276.039 184.441 276.292 184.304C276.636 184.6 277.02 184.846 277.432 185.036C277.328 185.288 277.228 185.528 277.128 185.756C276.788 186.556 276.472 187.188 276.244 187.636H276.668C276.88 187.192 277.152 186.596 277.44 185.888C277.544 185.636 277.652 185.36 277.756 185.088C278.213 185.193 278.684 185.229 279.152 185.196C279.354 185.164 279.548 185.088 279.718 184.974C279.889 184.86 280.032 184.711 280.14 184.536C280.182 184.451 280.205 184.358 280.209 184.263C280.212 184.168 280.196 184.074 280.161 183.986C280.126 183.897 280.073 183.818 280.005 183.751C279.938 183.685 279.857 183.633 279.768 183.6C279.224 183.42 278.4 184.032 278.096 184.444C278.096 184.468 277.916 184.752 277.816 184.932C277.856 184.82 277.9 184.708 277.944 184.588C278.028 184.352 278.108 184.116 278.196 183.86C278.232 183.736 278.268 183.608 278.308 183.48C278.348 183.352 278.376 183.22 278.408 183.08C278.484 182.768 278.544 182.452 278.596 182.132C279.019 182.302 279.465 182.405 279.92 182.436C280.125 182.435 280.327 182.389 280.513 182.302C280.699 182.215 280.864 182.089 280.996 181.932C281.05 181.854 281.087 181.766 281.104 181.673C281.122 181.58 281.12 181.484 281.099 181.392C281.077 181.299 281.037 181.213 280.98 181.137C280.923 181.061 280.851 180.998 280.768 180.952C280.26 180.692 279.352 181.176 278.992 181.532C278.968 181.556 278.736 181.844 278.616 182.004C278.644 181.812 278.676 181.604 278.7 181.424C278.768 180.856 278.824 180.28 278.88 179.708C278.88 179.532 278.916 179.356 278.932 179.184C279.371 179.358 279.833 179.465 280.304 179.504C280.508 179.503 280.71 179.457 280.895 179.37C281.08 179.283 281.244 179.157 281.376 179C281.431 178.922 281.468 178.834 281.487 178.741C281.505 178.648 281.503 178.552 281.482 178.46C281.461 178.368 281.421 178.281 281.364 178.205C281.307 178.129 281.235 178.066 281.152 178.02C280.644 177.76 279.736 178.24 279.372 178.6C279.344 178.628 279.016 179.04 278.936 179.152C278.976 178.752 279.02 178.38 279.08 178.004C279.157 177.495 279.266 176.991 279.408 176.496C279.847 176.673 280.311 176.783 280.784 176.82C280.989 176.82 281.192 176.775 281.378 176.688C281.564 176.601 281.729 176.474 281.86 176.316C281.914 176.238 281.952 176.15 281.97 176.057C281.988 175.963 281.986 175.868 281.965 175.775C281.943 175.683 281.902 175.596 281.845 175.52C281.788 175.444 281.715 175.382 281.632 175.336C281.128 175.076 280.216 175.56 279.856 175.92C279.832 175.944 279.58 176.256 279.456 176.408H279.428C279.572 175.895 279.764 175.397 280 174.92C280.132 174.664 280.268 174.428 280.4 174.204C280.809 174.421 281.249 174.574 281.704 174.66C281.908 174.683 282.114 174.66 282.308 174.595C282.502 174.529 282.68 174.422 282.828 174.28C282.891 174.209 282.938 174.125 282.967 174.035C282.995 173.944 283.004 173.848 282.993 173.754C282.982 173.66 282.952 173.569 282.903 173.487C282.855 173.405 282.79 173.335 282.712 173.28C282.236 172.964 281.28 173.344 280.88 173.68C280.88 173.68 280.656 173.896 280.512 174.044L280.708 173.74C280.944 173.38 281.184 173.068 281.4 172.792C281.524 172.632 281.64 172.496 281.748 172.364C282.208 172.371 282.667 172.306 283.108 172.172C283.3 172.097 283.473 171.982 283.615 171.833C283.757 171.685 283.866 171.507 283.932 171.312C283.954 171.22 283.957 171.125 283.94 171.032C283.923 170.939 283.887 170.851 283.833 170.773C283.78 170.695 283.711 170.629 283.631 170.579C283.551 170.529 283.461 170.497 283.368 170.484C282.8 170.42 282.124 171.2 281.916 171.664C281.916 171.704 281.692 172.368 281.704 172.368C281.596 172.488 281.48 172.62 281.36 172.768C281.14 173.04 280.892 173.348 280.644 173.704C280.373 174.089 280.124 174.49 279.9 174.904C279.645 175.361 279.432 175.84 279.264 176.336C279.264 176.168 279.264 175.704 279.264 175.668C279.2 175.16 278.776 174.224 278.216 174.12C278.121 174.102 278.023 174.105 277.929 174.128C277.835 174.152 277.747 174.195 277.671 174.255C277.595 174.316 277.533 174.391 277.489 174.478C277.445 174.564 277.42 174.659 277.416 174.756C277.431 174.962 277.491 175.162 277.592 175.343C277.693 175.523 277.832 175.679 278 175.8C278.394 176.057 278.824 176.254 279.276 176.384C279.117 176.892 278.993 177.411 278.904 177.936C278.848 178.24 278.804 178.548 278.76 178.86C278.76 178.716 278.76 178.584 278.76 178.568C278.692 178.064 278.268 177.124 277.708 177.02C277.613 177.003 277.515 177.006 277.421 177.03C277.327 177.053 277.24 177.097 277.164 177.157C277.088 177.217 277.026 177.293 276.982 177.379C276.938 177.465 276.913 177.559 276.908 177.656C276.917 177.861 276.97 178.061 277.064 178.244C277.158 178.426 277.29 178.586 277.452 178.712C277.833 178.966 278.251 179.159 278.692 179.284C278.692 179.404 278.66 179.524 278.648 179.644C278.58 180.216 278.512 180.788 278.432 181.348C278.404 181.544 278.368 181.748 278.332 181.928C278.332 181.8 278.332 181.692 278.332 181.676C278.264 181.172 277.84 180.232 277.28 180.128C277.185 180.111 277.087 180.114 276.993 180.138C276.899 180.161 276.812 180.205 276.736 180.265C276.66 180.325 276.598 180.401 276.554 180.487C276.51 180.573 276.485 180.667 276.48 180.764C276.488 180.969 276.541 181.17 276.635 181.352C276.729 181.535 276.862 181.694 277.024 181.82C277.393 182.068 277.798 182.258 278.224 182.384C278.184 182.58 278.14 182.784 278.092 182.964C278.056 183.092 278.028 183.22 277.984 183.344L277.864 183.72C277.78 183.956 277.692 184.2 277.604 184.428C277.544 184.588 277.48 184.736 277.42 184.888C277.452 184.692 277.504 184.308 277.504 184.276C277.498 183.827 277.377 183.388 277.152 183C277.156 182.951 277.156 182.901 277.152 182.852C277.14 182.758 277.108 182.667 277.059 182.586C277.01 182.505 276.944 182.435 276.866 182.381C276.787 182.327 276.699 182.29 276.606 182.273C276.512 182.255 276.416 182.258 276.324 182.28C275.772 182.424 275.424 183.392 275.396 183.904C275.396 183.932 275.416 184.26 275.432 184.468C275.404 184.348 275.38 184.228 275.348 184.108C275.292 183.864 275.224 183.62 275.156 183.36C275.12 183.236 275.08 183.112 275.044 182.984C275.008 182.856 274.952 182.728 274.908 182.584C274.8 182.288 274.676 181.992 274.54 181.696C274.987 181.604 275.416 181.442 275.812 181.216C275.983 181.103 276.127 180.954 276.234 180.779C276.342 180.604 276.409 180.408 276.432 180.204C276.434 180.109 276.417 180.015 276.381 179.928C276.345 179.84 276.291 179.761 276.222 179.696C276.153 179.631 276.072 179.581 275.982 179.549C275.893 179.517 275.798 179.505 275.704 179.512C275.136 179.576 274.644 180.48 274.54 180.976C274.54 181.008 274.5 181.376 274.488 181.576C274.404 181.4 274.324 181.22 274.236 181.044C273.984 180.532 273.712 180.024 273.436 179.516L273.192 179.048C273.654 178.953 274.099 178.788 274.512 178.56C274.682 178.445 274.826 178.295 274.933 178.119C275.039 177.944 275.108 177.748 275.132 177.544C275.134 177.449 275.116 177.355 275.079 177.268C275.043 177.181 274.988 177.102 274.919 177.037C274.85 176.972 274.768 176.923 274.679 176.891C274.589 176.86 274.494 176.848 274.4 176.856C273.832 176.916 273.34 177.82 273.24 178.32C273.24 178.356 273.184 178.884 273.176 179.02C273 178.676 272.824 178.332 272.664 177.984C272.447 177.517 272.261 177.036 272.108 176.544C272.573 176.449 273.02 176.284 273.436 176.056C273.606 175.942 273.749 175.792 273.855 175.618C273.962 175.443 274.029 175.247 274.052 175.044C274.055 174.949 274.038 174.855 274.002 174.767C273.966 174.679 273.912 174.6 273.843 174.535C273.775 174.469 273.693 174.419 273.603 174.388C273.514 174.356 273.419 174.344 273.324 174.352C272.756 174.412 272.264 175.316 272.16 175.816C272.16 175.848 272.12 176.252 272.104 176.444H272.072C271.93 175.946 271.834 175.436 271.784 174.92C271.752 174.64 271.736 174.364 271.728 174.1C272.189 174.055 272.64 173.942 273.068 173.764C273.249 173.669 273.408 173.536 273.533 173.373C273.658 173.211 273.746 173.024 273.792 172.824C273.806 172.73 273.799 172.634 273.773 172.543C273.747 172.452 273.702 172.367 273.64 172.294C273.579 172.222 273.503 172.163 273.418 172.122C273.332 172.081 273.239 172.058 273.144 172.056C272.572 172.056 271.984 172.9 271.828 173.384C271.828 173.412 271.764 173.688 271.724 173.892C271.724 173.772 271.724 173.648 271.724 173.532C271.724 173.1 271.752 172.704 271.776 172.356C271.776 172.156 271.812 171.976 271.832 171.812C272.22 171.561 272.566 171.252 272.86 170.896C272.979 170.729 273.059 170.537 273.096 170.336C273.133 170.134 273.124 169.926 273.072 169.728C273.043 169.637 272.995 169.552 272.931 169.481C272.866 169.41 272.787 169.354 272.699 169.316C272.611 169.278 272.516 169.259 272.42 169.261C272.325 169.263 272.23 169.286 272.144 169.328C271.636 169.588 271.504 170.608 271.588 171.112C271.588 171.156 271.784 171.82 271.796 171.816C271.796 171.98 271.752 172.152 271.732 172.34C271.696 172.692 271.66 173.084 271.652 173.52C271.635 173.987 271.646 174.454 271.684 174.92C271.724 175.441 271.811 175.958 271.944 176.464C271.852 176.324 271.588 175.936 271.544 175.912C271.212 175.512 270.344 174.976 269.816 175.2C269.73 175.239 269.653 175.297 269.59 175.368C269.527 175.439 269.48 175.523 269.452 175.613C269.424 175.704 269.415 175.799 269.426 175.893C269.437 175.988 269.467 176.078 269.516 176.16C269.635 176.344 269.796 176.498 269.986 176.61C270.176 176.721 270.389 176.786 270.608 176.8Z" fill="#263238"/>
<path d="M263.052 68.692C263.052 90.58 244.328 108.324 221.228 108.324C198.128 108.324 179.404 90.58 179.404 68.692C179.404 46.804 198.132 15.124 221.228 15.124C244.324 15.124 263.052 46.8 263.052 68.692Z" fill="#54DD71"/>
<path opacity="0.32" d="M263.052 68.692C263.052 90.58 244.328 108.324 221.228 108.324C198.128 108.324 179.404 90.58 179.404 68.692C179.404 46.804 198.132 15.124 221.228 15.124C244.324 15.124 263.052 46.8 263.052 68.692Z" fill="white"/>
<path d="M217.672 187.272L218.336 102.1L205.672 83.0081L218.324 97.0961V82.4321L211.424 60.0041L218.9 77.8321L220.196 48.6841L220.912 80.4201L221.2 85.5961L241.328 66.9041L222.06 89.6201L221.772 97.0961L230.112 90.1961L238.452 77.5441L232.568 89.4121L245.64 88.7601L231.552 90.9081L222.348 99.8241L222.924 187.252L217.672 187.272Z" fill="#787878"/>
<path d="M102.844 68.692C102.844 90.58 84.12 108.324 61.02 108.324C37.92 108.324 19.2 90.58 19.2 68.692C19.2 46.804 37.92 15.124 61.02 15.124C84.12 15.124 102.844 46.8 102.844 68.692Z" fill="#54DD71"/>
<path opacity="0.32" d="M102.844 68.692C102.844 90.58 84.12 108.324 61.02 108.324C37.92 108.324 19.2 90.58 19.2 68.692C19.2 46.804 37.92 15.124 61.02 15.124C84.12 15.124 102.844 46.8 102.844 68.692Z" fill="white"/>
<path d="M57.4639 187.272L58.1239 102.1L45.4639 83.0081L58.1119 97.0961V82.4321L51.2119 60.0041L58.6879 77.8321L59.9879 48.6841L60.6999 80.4201L60.9879 85.5961L81.1159 66.9041L61.8519 89.6201L61.5639 97.0961L69.9039 90.1961L78.2399 77.5441L72.3599 89.4121L85.4319 88.7601L71.3399 90.9081L62.1399 99.8241L62.7159 187.252L57.4639 187.272Z" fill="#787878"/>
<path d="M100.692 52.9761V137.24H162.8V52.9761H100.692ZM155.388 109.128C155.388 110.234 154.949 111.294 154.167 112.077C153.386 112.859 152.326 113.299 151.22 113.3H114.592C113.486 113.299 112.426 112.859 111.644 112.077C110.863 111.294 110.424 110.234 110.424 109.128V68.6721C110.424 67.5663 110.863 66.5057 111.644 65.7234C112.426 64.9412 113.486 64.5011 114.592 64.5001H151.22C152.326 64.5011 153.386 64.9412 154.167 65.7234C154.949 66.5057 155.388 67.5663 155.388 68.6721V109.128Z" fill="#636363" stroke="#263238" stroke-miterlimit="10"/>
<path d="M116.908 77.72C116.908 77.72 117.24 80.336 117.072 81.124C116.904 81.912 116.74 83.124 116.74 83.124L122.26 86.568L122.844 83.288C122.844 83.288 120.104 81.256 118.816 80.132C118.037 79.4519 117.391 78.6342 116.908 77.72Z" fill="#ABABAB" stroke="#263238" stroke-miterlimit="10"/>
<path d="M127.6 74.6921C127.6 74.6921 128.68 75.0641 128 75.4401C127.32 75.8161 124.928 75.6041 124.928 75.6041L125.012 74.9841C125.012 74.9841 126.952 74.4441 127.6 74.6921Z" fill="#263238" stroke="#263238" stroke-miterlimit="10"/>
<path d="M116.8 78.552C116.8 78.552 117.3 80.38 117.964 81.084C118.628 81.788 121.036 84.32 122.764 84.032C124.492 83.744 125.048 81.748 125.336 80.628C125.6 79.3121 125.698 77.9683 125.628 76.628C125.544 76.172 125.228 74.428 125.228 74.428L116.468 75.228C116.468 75.228 116.4 77.472 116.8 78.552Z" fill="#ABABAB" stroke="#263238" stroke-miterlimit="10"/>
<path d="M117.572 76.8001C117.572 76.8001 117.24 75.8041 116.448 76.3441C115.656 76.8841 115.576 78.2121 116.16 78.6281C116.568 78.887 117.045 79.0166 117.528 79.0001" fill="#ABABAB"/>
<path d="M117.572 76.8001C117.572 76.8001 117.24 75.8041 116.448 76.3441C115.656 76.8841 115.576 78.2121 116.16 78.6281C116.568 78.887 117.045 79.0166 117.528 79.0001" stroke="#263238" stroke-miterlimit="10"/>
<path d="M122.428 76.2279C122.428 76.2279 121.14 75.9799 120.352 76.5999" stroke="#263238" stroke-linecap="round" stroke-linejoin="round"/>
<path d="M125.456 76.2279C125.306 76.1709 125.144 76.1524 124.984 76.1741C124.825 76.1957 124.674 76.2569 124.544 76.3519C124.347 76.6322 124.215 76.9528 124.158 77.2905C124.1 77.6281 124.119 77.9744 124.212 78.3039" stroke="#263238" stroke-linecap="round" stroke-linejoin="round"/>
<path d="M123.92 79.7561C123.12 79.7961 122.552 79.9201 122.136 79.7161C122.136 79.7161 119.852 79.7161 119.604 80.6281C119.358 81.2984 119.373 82.0369 119.648 82.6961C120.612 83.4961 121.788 84.1921 122.76 84.0321C123.908 83.8401 124.532 82.9081 124.908 81.9721C124.934 81.8159 124.952 81.6583 124.96 81.5001C125 80.4001 124.712 79.7161 123.92 79.7561ZM124.472 81.9601C124.156 82.7601 123.632 83.5241 122.668 83.6841C121.868 83.8201 120.868 83.2241 120.056 82.5641C119.827 82.0114 119.816 81.3928 120.024 80.8321C120.232 80.0641 122.148 80.0641 122.148 80.0641C122.496 80.2401 122.98 80.1321 123.644 80.1001C124.308 80.0681 124.548 80.6201 124.516 81.5601C124.508 81.6941 124.494 81.8276 124.472 81.9601Z" fill="#263238"/>
<path d="M120.8 80.6279C120.8 80.6279 122.5 81.4999 123.956 80.7519" stroke="#263238" stroke-linecap="round" stroke-linejoin="round"/>
<path d="M124.296 79.3402C124.296 79.3402 124.42 79.6322 123.92 79.7402C123.42 79.8482 122.508 80.0722 122.136 79.7002C121.764 79.3282 122.136 79.0762 122.136 79.0762" stroke="#263238" stroke-linecap="round" stroke-linejoin="round"/>
<path d="M121.14 77.8441C121.323 77.8441 121.472 77.64 121.472 77.3881C121.472 77.1363 121.323 76.9321 121.14 76.9321C120.957 76.9321 120.808 77.1363 120.808 77.3881C120.808 77.64 120.957 77.8441 121.14 77.8441Z" fill="#263238"/>
<path d="M124.896 77.42C124.896 77.632 124.772 77.82 124.616 77.82C124.46 77.82 124.336 77.648 124.336 77.42C124.336 77.192 124.46 77.02 124.616 77.02C124.772 77.02 124.896 77.2 124.896 77.42Z" fill="#263238"/>
<path d="M119.728 77.8879C120.146 77.917 120.554 78.0299 120.928 78.2199" stroke="#263238" stroke-linecap="round" stroke-linejoin="round"/>
<path d="M116 76.3121C116 76.3121 120.984 74.6521 125.716 75.0641C125.716 75.0641 125.964 72.6641 125.256 71.6201C124.548 70.5761 121.896 69.4201 120.36 69.5441C118.824 69.6681 115.96 71.9121 115.504 72.6561C115.048 73.4001 116 76.3121 116 76.3121Z" fill="white" stroke="#263238" stroke-miterlimit="10"/>
<path d="M118 75.936C118 75.936 122.192 76.436 123.688 75.688C125.184 74.94 127.688 74.856 127.632 74.692C127.576 74.528 127.092 74.292 123.772 74.524C121.783 74.6727 119.833 75.1498 118 75.936Z" fill="white" stroke="#263238" stroke-miterlimit="10"/>
<path d="M113.352 120.9L109.872 135.68H134.848L130.88 121.024L113.352 120.9Z" fill="#969696" stroke="#263238" stroke-miterlimit="10"/>
<path d="M106.696 99.3481C106.696 99.3481 108.04 117.42 108.836 119.008C109.632 120.596 111.336 120.84 112.436 120.84H136.68C136.68 120.84 138.632 116.996 138.572 116.26C138.512 115.524 137.716 115.652 137.228 115.652L121.352 115.528C121.352 115.528 117.884 114.88 117.112 113.588C116.34 112.296 116.1 112.964 115.552 110.276C115.004 107.588 113.72 100.936 113.048 99.4081C112.376 97.8801 108.04 95.6841 106.696 99.3481Z" fill="#263238" stroke="#263238" stroke-miterlimit="10"/>
<path d="M139.736 107.068C139.736 107.068 144.344 107.192 145.216 107.444C146.088 107.696 146.712 108.604 146.752 110.224C146.718 111.579 146.436 112.915 145.92 114.168C145.712 114.664 142.268 122.344 141.52 124.544C140.772 126.744 140.36 130.648 140.32 130.772C140.28 130.896 140.448 130.812 139.656 130.896C138.864 130.98 136.792 130.192 136.668 130.096C136.544 130 137.54 125.156 137.916 122.208C138.292 119.26 138.992 115.152 139.2 114.608C139.408 114.064 139.824 113.032 139.824 113.032L139.736 107.068Z" fill="#ABABAB" stroke="#263238" stroke-miterlimit="10"/>
<path d="M139.82 113.048C139.82 113.048 141.148 112.672 141.648 112.052" stroke="#263238" stroke-miterlimit="10"/>
<path d="M129.152 107.028C131.523 106.772 133.907 106.647 136.292 106.656C139.28 106.736 140.192 106.78 140.192 106.78C140.192 106.78 140.36 111.98 139.696 113.836C139.032 115.692 138.948 115.912 138.948 115.912C138.948 115.912 123.88 115.62 122.844 115.62C121.808 115.62 119.644 115.868 118.36 114.956C117.664 114.502 117.07 113.908 116.616 113.212C116.616 113.212 116.824 110.516 118.484 109.724C120.144 108.932 123.84 106.448 125.284 106.24C126.728 106.032 129.152 107.028 129.152 107.028Z" fill="white" stroke="#263238" stroke-miterlimit="10"/>
<path d="M120.932 112.092L121.596 112.3C121.596 112.3 122.096 111.844 122.396 112.008C122.619 112.174 122.804 112.387 122.936 112.632C123.006 112.596 123.085 112.576 123.164 112.576C123.243 112.576 123.321 112.596 123.392 112.632C123.593 112.721 123.802 112.791 124.016 112.84C124.016 112.84 124.556 112.924 126.384 113.048C128.212 113.172 135.14 112.964 135.928 112.84C136.716 112.716 137.632 112.592 138.172 112.756C138.597 112.845 139.037 112.831 139.456 112.716" stroke="#263238" stroke-miterlimit="10"/>
<path d="M126.244 107.692C126.244 107.692 124.712 112.384 123.672 113.752" stroke="#263238" stroke-miterlimit="10"/>
<path d="M125.248 107.444C125.248 107.444 123.092 113.172 121.764 114.708" stroke="#263238" stroke-miterlimit="10"/>
<path d="M123.464 109.808C123.464 109.808 122.012 112.052 121.064 112.964" stroke="#263238" stroke-miterlimit="10"/>
<path d="M123.796 87.228L118.996 83.864C116.508 82.12 116.924 81.956 115.884 82.788C114.844 83.62 113.6 86.108 112.896 88.432C112.192 90.756 111.608 93.08 111.816 94.948C112.024 96.816 114.472 107.444 114.596 108.604C114.66 109.83 114.972 111.03 115.512 112.132C115.86 112.788 116.426 113.303 117.112 113.588C117.112 113.588 118.712 113.212 121.68 111.468C123.482 110.408 124.971 108.89 125.996 107.068L126.828 107.568C126.828 107.568 128.86 107.524 129.068 107.524C129.276 107.524 129.98 106.904 130.268 106.116C130.556 105.328 130.476 103.084 128.316 97.024C126.156 90.964 124.316 88.432 124.208 88.1C124.086 87.8024 123.948 87.5113 123.796 87.228Z" fill="#54DD71" stroke="#263238" stroke-miterlimit="10"/>
<path d="M118.776 103.176C122.912 102.884 126.476 101.712 129.24 99.7639C129.072 99.2279 128.884 98.6479 128.668 98.0239C123.292 102.152 115.592 101.6 113.068 101.276C113.196 101.88 113.328 102.476 113.468 103.084C114.531 103.196 115.599 103.252 116.668 103.252C117.32 103.252 118.032 103.228 118.776 103.176Z" fill="#263238"/>
<path d="M129.652 101.152C124.404 105.552 116.624 105.12 113.816 104.792C113.956 105.448 114.084 106.056 114.196 106.592C114.996 106.672 116.02 106.736 117.196 106.736C117.86 106.736 118.572 106.736 119.316 106.664C123.62 106.356 127.316 105.1 130.116 103.008C130 102.472 129.848 101.86 129.652 101.152Z" fill="#263238"/>
<path d="M116.988 87.144L116.2 84.24L117.696 84.156L118.732 86.524L116.988 87.144Z" fill="#263238"/>
<path d="M141.064 129.4C141.064 129.4 140.484 129.196 140.236 129.568L139.6 130.48C139.6 130.48 136.32 128.86 135.948 129.28C135.765 129.47 135.629 129.701 135.55 129.953C135.47 130.204 135.451 130.471 135.492 130.732C135.532 131.4 135.324 134.76 135.492 135.176C135.66 135.592 136.236 135.632 136.692 135.632L145.656 135.672C146.196 135.672 147.36 135.672 147.36 134.8C147.386 134.486 147.312 134.172 147.147 133.904C146.982 133.635 146.736 133.426 146.444 133.308C146.044 133.184 143.788 131.896 142.668 131.232C141.548 130.568 141.272 129.6 141.064 129.4Z" fill="white" stroke="#263238" stroke-miterlimit="10"/>
<path d="M135.712 134.796H147.376" stroke="#263238" stroke-miterlimit="10"/>
<path d="M111.336 93.056L109.812 88C109.812 88 111.52 84.092 110.42 80.612C109.32 77.132 107.492 76.52 106.148 77.68C104.804 78.84 104.256 87.756 104.256 88.916C104.256 90.076 104.804 92.152 105.352 95.876C105.9 99.6 107.248 103.388 109.568 103.268C111.888 103.148 113.536 101.312 112.864 98.688C112.192 96.064 111.336 93.056 111.336 93.056Z" fill="#969696" stroke="#263238" stroke-miterlimit="10"/>
<path d="M116.16 116.8C115.693 115.642 115.293 114.459 114.96 113.256C114.044 110.328 112.456 109.348 110.808 110.144C109.16 110.94 108.856 113.624 110.076 117.044C110.076 117.044 110.876 120.892 113.008 121.684C115.14 122.476 135.66 121.684 135.66 121.684C135.66 121.684 136.332 121.624 136.944 120.156C137.556 118.688 137.248 119.304 137.248 119.304L118.076 118.632C118.076 118.632 116.652 118.58 116.16 116.8Z" fill="#969696" stroke="#263238" stroke-miterlimit="10"/>
<path d="M138.736 99.8759L143.304 99.3679L146.276 101.472L149.54 97.4839L147 96.0319L145.48 90.4399L138.736 99.8759Z" fill="#263238" stroke="#263238" stroke-miterlimit="10"/>
<path d="M149.54 95.96C149.54 95.96 144.244 100.964 144.536 101.324C144.828 101.684 149.336 109.592 149.336 109.592L155.136 101.472L151.496 99.6C151.496 99.6 151.568 96.992 151.568 96.7C151.504 96.5018 151.396 96.3208 151.251 96.1708C151.107 96.0208 150.93 95.9057 150.735 95.8343C150.539 95.763 150.33 95.7372 150.123 95.759C149.916 95.7807 149.716 95.8495 149.54 95.96Z" fill="#263238" stroke="#263238" stroke-miterlimit="10"/>
<path d="M158.304 97.384L145.064 106.268V135.668H158.304V97.384Z" fill="#969696" stroke="#263238" stroke-miterlimit="10"/>
<path d="M135.908 104.248C135.771 104.248 135.636 104.211 135.519 104.14C135.401 104.068 135.306 103.966 135.243 103.844C135.179 103.723 135.151 103.586 135.16 103.449C135.17 103.312 135.217 103.18 135.296 103.068L146.972 86.6081C147.087 86.4463 147.262 86.3369 147.458 86.3039C147.653 86.2709 147.854 86.317 148.016 86.4321C148.178 86.5472 148.287 86.7219 148.32 86.9176C148.353 87.1134 148.307 87.3143 148.192 87.4761L136.516 103.932C136.448 104.03 136.357 104.11 136.251 104.165C136.145 104.22 136.027 104.249 135.908 104.248Z" fill="#263238" stroke="#263238" stroke-miterlimit="10"/>
<path d="M125.292 98.8001L129.816 97.8121C131.62 97.4121 133.456 97.1281 135.204 96.5281C136.644 96.0321 138.528 95.1441 139.444 93.8601C140.068 92.9881 140.316 92.6161 140.856 92.5321C141.396 92.4481 142.352 93.0321 143.18 93.1961C144.008 93.3601 144.428 93.6961 144.512 94.1121C144.596 94.5281 144.112 94.9121 144.012 95.0641C143.912 95.2161 143.972 95.8641 143.512 96.3121C143.214 96.5993 142.862 96.8249 142.476 96.9761C142.476 96.9761 142.436 97.1841 142.104 97.3081C141.251 97.439 140.391 97.5085 139.528 97.5161C139.196 97.5161 136.912 99.2561 134.632 100.296C132.352 101.336 124.336 104.78 123.508 105.096C123.347 105.177 123.172 105.224 122.993 105.236C122.813 105.248 122.634 105.225 122.463 105.167C122.293 105.109 122.137 105.017 122.002 104.898C121.868 104.779 121.758 104.634 121.68 104.472C121.472 103.892 120.02 100.872 120.02 100.872L125 98.3001L125.292 98.8001Z" fill="#ABABAB" stroke="#263238" stroke-miterlimit="10"/>
<path d="M116.948 86.4C116.948 86.4 114.5 89.2 114.832 91.176C115.164 93.152 119.272 101.676 119.272 101.676L126.204 98.564C126.204 98.564 123.672 89.972 122.052 87.728C120.432 85.484 117.904 85.36 116.948 86.4Z" fill="white" stroke="#263238" stroke-miterlimit="10"/>
<path d="M223.096 139.52H166.78V166.164H223.096V139.52Z" fill="#636363" stroke="#263238" stroke-miterlimit="10"/>
<path d="M227.884 150.504C227.256 148.42 222.812 121.748 217.228 119.228C192.304 108 168.992 106.484 168.992 106.484L165.192 108.152V171.652L168.84 166.352V166.32C168.84 152.62 180.528 141.52 194.944 141.52C209.244 141.52 220.852 152.448 221.04 165.996H227.884C227.884 165.996 228.512 152.588 227.884 150.504Z" fill="white" stroke="#263238" stroke-miterlimit="10"/>
<path d="M228.024 151.332C222.128 139.604 209.532 131.504 194.944 131.504C182.692 131.504 171.844 137.22 165.192 145.996V166.632L168.84 166.352V166.32C168.84 152.62 180.528 141.52 194.944 141.52C209.244 141.52 220.852 152.448 221.04 165.996H227.884C227.884 165.996 228.4 154.908 228.024 151.332Z" fill="white" stroke="#263238" stroke-miterlimit="10"/>
<path d="M218.324 156.324C219.809 159.337 220.604 162.642 220.652 166H227.852C227.852 166 228.152 159.936 228.144 155.328H218.324V156.324Z" fill="#263238" stroke="#263238" stroke-miterlimit="10"/>
<path d="M218.056 137.028V121.532C218.058 119.639 218.812 117.825 220.151 116.487C221.491 115.15 223.307 114.399 225.2 114.4H229.56C231.197 114.4 232.767 113.75 233.924 112.592C235.082 111.435 235.732 109.865 235.732 108.228V103.548" stroke="#263238" stroke-width="4" stroke-linecap="round" stroke-linejoin="round"/>
<path d="M235.652 100.604C235.652 100.604 228.852 100.488 227.796 101.18C226.74 101.872 226.644 104.184 227.452 105.8C228.26 107.416 229.992 109.032 230.452 109.264C230.912 109.496 234.728 109.264 235.996 108.572C237.264 107.88 236.46 100.832 235.652 100.604Z" fill="#263238" stroke="#263238" stroke-miterlimit="10"/>
<path d="M230.436 109.256C231.796 109.208 233.768 108.976 234.612 108.556C235.88 107.924 235.072 101.504 234.264 101.296C234.264 101.296 229.632 101.224 227.424 101.552C226.744 102.496 226.752 104.404 227.452 105.8C228.184 107.155 229.202 108.334 230.436 109.256Z" fill="white" stroke="#263238" stroke-miterlimit="10"/>
<path d="M215.476 136.952L217 132.932H218.94L220.328 138.06C220.328 138.06 221.156 138.892 221.712 139.584C222.268 140.276 222.404 142.632 222.404 142.632C222.404 142.632 217 138.06 215.476 136.952Z" fill="#263238" stroke="#263238" stroke-miterlimit="10"/>
<path d="M222.036 142.552C221.036 142.372 218.436 142.18 219.856 145.44C221.6 149.44 222.156 152.016 225.092 151.672C226.216 151.544 227.208 151.404 228.004 151.272C226.469 148.079 224.457 145.138 222.036 142.552Z" fill="white" stroke="#263238" stroke-miterlimit="10"/>
<path d="M196.596 187.44C208.26 187.44 217.716 177.984 217.716 166.32C217.716 154.656 208.26 145.2 196.596 145.2C184.932 145.2 175.476 154.656 175.476 166.32C175.476 177.984 184.932 187.44 196.596 187.44Z" fill="#263238" stroke="#263238" stroke-miterlimit="10"/>
<path d="M199.79 179.704C207.172 177.935 211.721 170.516 209.952 163.135C208.182 155.753 200.764 151.204 193.382 152.973C186.001 154.743 181.451 162.161 183.221 169.542C184.99 176.924 192.409 181.473 199.79 179.704Z" fill="white" stroke="#263238" stroke-miterlimit="10"/>
<path d="M196.596 171.516C199.466 171.516 201.792 169.19 201.792 166.32C201.792 163.45 199.466 161.124 196.596 161.124C193.726 161.124 191.4 163.45 191.4 166.32C191.4 169.19 193.726 171.516 196.596 171.516Z" fill="#263238" stroke="#263238" stroke-miterlimit="10"/>
<path d="M196.596 159.972C197.002 159.972 197.332 159.642 197.332 159.236C197.332 158.83 197.002 158.5 196.596 158.5C196.189 158.5 195.86 158.83 195.86 159.236C195.86 159.642 196.189 159.972 196.596 159.972Z" fill="#263238" stroke="#263238" stroke-miterlimit="10"/>
<path d="M193.028 160.156C192.942 160.038 192.824 159.948 192.687 159.898C192.551 159.847 192.403 159.838 192.261 159.872C192.119 159.906 191.991 159.981 191.892 160.088C191.793 160.195 191.728 160.328 191.705 160.472C191.682 160.616 191.703 160.763 191.763 160.895C191.824 161.028 191.923 161.139 192.047 161.215C192.171 161.291 192.315 161.329 192.46 161.324C192.605 161.318 192.746 161.269 192.864 161.184C192.942 161.127 193.009 161.056 193.059 160.973C193.11 160.891 193.144 160.799 193.159 160.704C193.174 160.609 193.17 160.511 193.148 160.417C193.125 160.323 193.085 160.234 193.028 160.156Z" fill="#263238" stroke="#263238" stroke-miterlimit="10"/>
<path d="M190.084 163.432C189.945 163.388 189.797 163.385 189.657 163.425C189.517 163.466 189.392 163.546 189.298 163.657C189.204 163.768 189.145 163.904 189.129 164.049C189.112 164.193 189.139 164.339 189.205 164.469C189.271 164.598 189.375 164.705 189.502 164.776C189.629 164.847 189.774 164.878 189.919 164.867C190.064 164.855 190.202 164.801 190.316 164.71C190.43 164.62 190.515 164.498 190.56 164.36C190.59 164.268 190.601 164.171 190.593 164.074C190.586 163.977 190.559 163.883 190.515 163.797C190.47 163.711 190.41 163.634 190.336 163.572C190.262 163.509 190.176 163.461 190.084 163.432Z" fill="#263238" stroke="#263238" stroke-miterlimit="10"/>
<path d="M189.632 167.812C189.452 167.877 189.305 168.009 189.221 168.18C189.137 168.351 189.122 168.549 189.181 168.73C189.24 168.912 189.367 169.064 189.535 169.154C189.704 169.244 189.9 169.264 190.084 169.212C190.179 169.185 190.267 169.139 190.344 169.077C190.421 169.015 190.484 168.938 190.531 168.851C190.577 168.764 190.606 168.668 190.615 168.57C190.623 168.471 190.612 168.372 190.582 168.278C190.552 168.184 190.503 168.097 190.438 168.023C190.373 167.948 190.294 167.887 190.206 167.844C190.117 167.8 190.021 167.775 189.922 167.769C189.823 167.764 189.725 167.778 189.632 167.812Z" fill="#263238" stroke="#263238" stroke-miterlimit="10"/>
<path d="M191.836 171.62C191.779 171.699 191.738 171.788 191.716 171.883C191.694 171.977 191.691 172.075 191.706 172.171C191.722 172.267 191.756 172.359 191.807 172.441C191.858 172.524 191.925 172.595 192.004 172.652C192.083 172.709 192.172 172.749 192.266 172.772C192.361 172.794 192.459 172.797 192.555 172.782C192.651 172.766 192.742 172.732 192.825 172.681C192.907 172.63 192.979 172.563 193.036 172.484C193.15 172.325 193.197 172.127 193.166 171.933C193.134 171.74 193.027 171.567 192.868 171.452C192.709 171.338 192.511 171.291 192.317 171.322C192.124 171.354 191.95 171.461 191.836 171.62Z" fill="#263238" stroke="#263238" stroke-miterlimit="10"/>
<path d="M195.86 173.408C195.86 173.554 195.903 173.696 195.984 173.817C196.065 173.938 196.18 174.032 196.314 174.088C196.449 174.144 196.597 174.158 196.739 174.13C196.882 174.102 197.013 174.031 197.116 173.929C197.219 173.826 197.289 173.694 197.318 173.552C197.346 173.409 197.332 173.261 197.276 173.126C197.22 172.992 197.126 172.877 197.005 172.796C196.884 172.715 196.741 172.672 196.596 172.672C196.401 172.673 196.214 172.751 196.077 172.889C195.939 173.027 195.861 173.213 195.86 173.408Z" fill="#263238" stroke="#263238" stroke-miterlimit="10"/>
<path d="M200.168 172.484C200.253 172.602 200.372 172.692 200.509 172.743C200.645 172.793 200.794 172.802 200.936 172.768C201.078 172.734 201.206 172.659 201.305 172.552C201.404 172.445 201.469 172.31 201.491 172.166C201.514 172.022 201.493 171.875 201.432 171.742C201.37 171.61 201.271 171.499 201.146 171.423C201.021 171.348 200.877 171.311 200.731 171.317C200.586 171.324 200.445 171.373 200.328 171.46C200.25 171.517 200.184 171.588 200.134 171.67C200.084 171.752 200.05 171.844 200.035 171.939C200.021 172.034 200.025 172.131 200.047 172.225C200.07 172.318 200.111 172.406 200.168 172.484Z" fill="#263238" stroke="#263238" stroke-miterlimit="10"/>
<path d="M203.108 169.2C203.293 169.261 203.496 169.245 203.67 169.156C203.844 169.068 203.975 168.914 204.036 168.728C204.096 168.542 204.081 168.34 203.992 168.166C203.903 167.992 203.749 167.861 203.564 167.8C203.472 167.77 203.375 167.759 203.279 167.766C203.182 167.774 203.088 167.8 203.002 167.844C202.916 167.888 202.839 167.948 202.776 168.022C202.713 168.095 202.666 168.18 202.636 168.272C202.606 168.364 202.594 168.461 202.602 168.557C202.609 168.654 202.636 168.748 202.68 168.834C202.723 168.92 202.784 168.997 202.857 169.06C202.931 169.122 203.016 169.17 203.108 169.2Z" fill="#263238" stroke="#263238" stroke-miterlimit="10"/>
<path d="M203.564 164.832C203.702 164.787 203.824 164.702 203.914 164.587C204.004 164.473 204.058 164.334 204.07 164.189C204.081 164.044 204.049 163.899 203.978 163.772C203.907 163.645 203.799 163.542 203.67 163.476C203.54 163.41 203.393 163.384 203.249 163.401C203.104 163.419 202.968 163.478 202.858 163.573C202.747 163.667 202.667 163.793 202.627 163.933C202.588 164.073 202.591 164.222 202.636 164.36C202.697 164.545 202.829 164.698 203.003 164.787C203.177 164.875 203.378 164.891 203.564 164.832Z" fill="#263238" stroke="#263238" stroke-miterlimit="10"/>
<path d="M201.356 161.02C201.441 160.902 201.49 160.762 201.495 160.616C201.501 160.471 201.463 160.327 201.387 160.203C201.311 160.079 201.2 159.98 201.067 159.92C200.935 159.859 200.788 159.839 200.644 159.861C200.5 159.884 200.367 159.949 200.26 160.048C200.153 160.147 200.078 160.276 200.044 160.417C200.01 160.559 200.019 160.707 200.07 160.844C200.12 160.98 200.21 161.099 200.328 161.184C200.406 161.241 200.495 161.283 200.589 161.305C200.683 161.328 200.781 161.332 200.876 161.317C200.972 161.302 201.063 161.267 201.146 161.217C201.228 161.166 201.3 161.099 201.356 161.02Z" fill="#263238" stroke="#263238" stroke-miterlimit="10"/>
<path d="M176.576 107.428V136.036" stroke="#263238" stroke-miterlimit="10"/>
<path d="M156.54 135.648H104.32V148.948H156.54V135.648Z" fill="#969696" stroke="#263238" stroke-miterlimit="10"/>
<path d="M156.54 135.648H104.32V139.248H156.54V135.648Z" fill="white" stroke="#263238" stroke-miterlimit="10"/>
<path d="M156.54 146.848H104.32V160.148H156.54V146.848Z" fill="#969696" stroke="#263238" stroke-miterlimit="10"/>
<path d="M156.54 146.848H104.32V150.448H156.54V146.848Z" fill="white" stroke="#263238" stroke-miterlimit="10"/>
<path d="M156.54 158.26H104.32V171.56H156.54V158.26Z" fill="#969696" stroke="#263238" stroke-miterlimit="10"/>
<path d="M156.54 158.26H104.32V161.86H156.54V158.26Z" fill="white" stroke="#263238" stroke-miterlimit="10"/>
<path d="M104.744 158.604H104.32V157.004H104.744C105.372 157.003 105.973 156.753 106.417 156.309C106.861 155.866 107.111 155.264 107.112 154.636V107.848C107.111 107.22 106.861 106.619 106.417 106.175C105.973 105.731 105.372 105.481 104.744 105.48V103.88C105.796 103.886 106.804 104.307 107.548 105.052C108.293 105.796 108.714 106.804 108.72 107.856V154.624C108.715 155.677 108.294 156.686 107.55 157.431C106.805 158.176 105.797 158.598 104.744 158.604Z" fill="white" stroke="#263238" stroke-miterlimit="10"/>
<path d="M156.544 158.756C155.538 158.755 154.574 158.355 153.862 157.644C153.151 156.934 152.75 155.97 152.748 154.964V117.136C152.749 116.359 153.058 115.614 153.608 115.065C154.158 114.516 154.903 114.208 155.68 114.208H158.06V115.808H155.68C155.33 115.808 154.994 115.947 154.747 116.195C154.499 116.442 154.36 116.778 154.36 117.128V154.956C154.361 155.535 154.592 156.09 155.001 156.499C155.41 156.909 155.965 157.139 156.544 157.14V158.756Z" fill="white" stroke="#263238" stroke-miterlimit="10"/>
<path d="M169.276 161.412V176.616H166.78V166.632L169.276 161.412Z" fill="#263238" stroke="#263238" stroke-miterlimit="10"/>
<path d="M11.5239 45.9561C11.5239 45.9561 165.9 45.3601 168.876 45.9561C171.852 46.5521 171.856 48.6361 171.856 51.0201C171.856 53.4041 170.112 55.692 170.112 55.692L173.092 103.692V121.916C173.092 121.916 168.324 129.66 168.324 132.64V171.66H158.8V59.66H103.776V173.44H95.4559L91.4279 166.172H12.3159" fill="white"/>
<path d="M11.5239 45.9561C11.5239 45.9561 165.9 45.3601 168.876 45.9561C171.852 46.5521 171.856 48.6361 171.856 51.0201C171.856 53.4041 170.112 55.692 170.112 55.692L173.092 103.692V121.916C173.092 121.916 168.324 129.66 168.324 132.64V171.66H158.8V59.66H103.776V173.44H95.4559L91.4279 166.172H12.3159" stroke="#263238" stroke-miterlimit="10"/>
<path d="M157.46 59.5361C112.8 59.6001 59.9999 59.6001 15.2639 59.5361" stroke="#263238" stroke-miterlimit="10"/>
<path d="M168.876 45.956C168.688 45.916 167.924 45.884 166.664 45.856C166.329 46.6984 166.158 47.5972 166.16 48.504C166.16 51.752 168.256 54.384 170.84 54.384H170.916C171.485 53.3517 171.807 52.2016 171.856 51.024C171.856 48.636 171.856 46.552 168.876 45.956Z" fill="#263238" stroke="#263238" stroke-miterlimit="10"/>
<path d="M162.964 62.0001V94.7241C162.965 96.2014 163.331 97.6555 164.028 98.9575C164.726 100.26 165.734 101.369 166.964 102.188C168.438 103.169 170.169 103.692 171.94 103.692H173.096L170.116 55.6921H169.268C168.44 55.6916 167.619 55.8544 166.854 56.1713C166.089 56.4882 165.393 56.9529 164.808 57.5388C164.222 58.1247 163.758 58.8203 163.442 59.5859C163.125 60.3514 162.963 61.1718 162.964 62.0001Z" fill="#263238" stroke="#263238" stroke-miterlimit="10"/>
<path d="M159.456 56.72H156.664V173.308H159.456V56.72Z" fill="#263238" stroke="#263238" stroke-miterlimit="10"/>
<path d="M96.8521 166.948V161.552H12.3161V166.948H96.8521Z" fill="#263238" stroke="#263238" stroke-miterlimit="10"/>
<path d="M96.856 136.872V131.476H12.32V136.872H96.856Z" fill="#263238" stroke="#263238" stroke-miterlimit="10"/>
<path d="M96.856 119.508V114.112H12.32V119.508H96.856Z" fill="#263238" stroke="#263238" stroke-miterlimit="10"/>
<path d="M96.8521 104.004V100.032H12.3161V104.004H96.8521Z" fill="#263238" stroke="#263238" stroke-miterlimit="10"/>
<path d="M105.38 56.72H102.588V173.308H105.38V56.72Z" fill="#263238" stroke="#263238" stroke-miterlimit="10"/>
<path d="M95.768 59.6841H59.488V96.4081H95.768V59.6841Z" fill="#263238" stroke="#263238" stroke-miterlimit="10"/>
<path d="M95.768 76.1321H59.488V78.0441H95.768V76.1321Z" fill="white" stroke="#263238" stroke-miterlimit="10"/>
<path d="M56.076 59.6841H12.116V96.4081H56.076V59.6841Z" fill="#263238" stroke="#263238" stroke-miterlimit="10"/>
<path d="M56.076 76.1321H12.116V78.0441H56.076V76.1321Z" fill="white" stroke="#263238" stroke-miterlimit="10"/>
<path d="M160 62.4H173.376C175.079 62.4001 176.738 61.861 178.116 60.86L180.604 59.052C181.927 58.0904 183.52 57.5723 185.156 57.572H193.156C194.207 57.572 195.216 57.9897 195.959 58.7331C196.702 59.4764 197.12 60.4847 197.12 61.536V63.912" stroke="#263238" stroke-width="4" stroke-linecap="round" stroke-linejoin="round"/>
<path d="M160 65.736H173.376C175.079 65.7379 176.739 65.1987 178.116 64.196L180.604 62.388C181.927 61.4263 183.52 60.9082 185.156 60.908H197.128" stroke="#263238" stroke-width="4" stroke-linecap="round" stroke-linejoin="round"/>
<path d="M197.012 64.228H196.352C195.986 64.2281 195.624 64.3037 195.288 64.4502C194.953 64.5967 194.651 64.8109 194.402 65.0794C194.153 65.3479 193.962 65.6648 193.841 66.0105C193.721 66.3561 193.672 66.7229 193.7 67.088L194.992 84.148H199.52C199.52 84.148 200.972 78.34 200.844 68.02C200.832 67.011 200.424 66.0472 199.706 65.3374C198.989 64.6276 198.021 64.229 197.012 64.228Z" fill="#263238" stroke="#263238" stroke-width="4" stroke-linecap="round" stroke-linejoin="round"/>
<path d="M170.112 46.3682V55.6922C170.112 55.6922 171.856 53.4002 171.856 51.0202C171.856 49.0282 171.848 47.2482 170.112 46.3682Z" fill="white" stroke="#263238" stroke-miterlimit="10"/>
<path d="M82.9599 69.54H79.9399V187.284H82.9599V69.54Z" fill="white" stroke="#263238" stroke-miterlimit="10"/>
<path d="M86.7359 51.428H76.164C74.8318 51.428 73.752 52.5079 73.752 53.84V81.624C73.752 82.9561 74.8318 84.036 76.164 84.036H86.7359C88.0681 84.036 89.1479 82.9561 89.1479 81.624V53.84C89.1479 52.5079 88.0681 51.428 86.7359 51.428Z" fill="white" stroke="#263238" stroke-miterlimit="10"/>
<path d="M73.752 75.3359V81.9999C73.752 82.5371 73.9651 83.0523 74.3445 83.4325C74.724 83.8127 75.2388 84.0269 75.776 84.0279H87.124C87.6611 84.0269 88.1759 83.8127 88.5554 83.4325C88.9348 83.0523 89.148 82.5371 89.1479 81.9999V75.3359H73.752Z" fill="#54DD71" stroke="#263238" stroke-miterlimit="10"/>
<path d="M76.932 63.008H76.532C76.332 63.008 76.208 62.82 76.208 62.512C76.208 61.6453 76.208 60.7773 76.208 59.908C76.208 59.592 76.328 59.416 76.532 59.408C76.66 59.408 76.788 59.408 76.932 59.408V59.236C76.932 58.784 76.932 58.328 76.956 57.88C77.02 56.94 77.564 56.108 78.156 55.98C78.2493 55.9597 78.3445 55.949 78.44 55.948H84.312C84.94 55.948 85.404 56.392 85.688 57.264C85.784 57.5776 85.8312 57.9041 85.828 58.232V59.408H86.184C86.444 59.408 86.556 59.576 86.556 59.976V62.44C86.556 62.84 86.444 63.004 86.192 63.008H85.828V63.152C85.828 64.9653 85.828 66.7773 85.828 68.588C85.8259 68.653 85.8396 68.7175 85.868 68.776C86.0141 69.0273 86.0901 69.3133 86.088 69.604C86.088 69.912 86.088 70.224 86.088 70.532C86.088 71.248 85.752 71.732 85.288 71.772H85.2C85.2 71.832 85.2 71.884 85.2 71.936V72.952C85.2 73.26 85.112 73.4 84.916 73.4H83.92C83.732 73.4 83.644 73.26 83.64 72.972V71.94C83.64 71.888 83.64 71.84 83.64 71.78H79.14C79.14 71.836 79.14 71.888 79.14 71.94C79.14 72.284 79.14 72.628 79.14 72.972C79.14 73.316 79.048 73.4 78.86 73.4H77.86C77.676 73.4 77.584 73.256 77.584 72.964C77.584 72.564 77.584 72.184 77.584 71.804C77.4589 71.777 77.3359 71.7409 77.216 71.696C77.047 71.5798 76.91 71.4228 76.8177 71.2397C76.7254 71.0565 76.6808 70.853 76.688 70.648C76.688 70.276 76.688 69.904 76.688 69.532C76.6927 69.2752 76.7615 69.0236 76.888 68.8C76.9204 68.7437 76.9395 68.6808 76.944 68.616V63.108C76.9417 63.0745 76.9377 63.0411 76.932 63.008ZM77.856 59.6V65.236H80.876C80.96 65.236 80.988 65.208 80.988 65.064V59.6H77.856ZM81.796 59.6C81.796 59.648 81.796 59.692 81.796 59.732C81.796 61.516 81.796 63.2987 81.796 65.08C81.796 65.216 81.828 65.236 81.904 65.236H84.928V59.6H81.796ZM81.396 57.136H80.844C80.512 57.136 80.176 57.136 79.84 57.136C79.504 57.136 79.368 57.56 79.468 57.968C79.4754 58.0716 79.52 58.1691 79.5934 58.2426C79.6669 58.316 79.7644 58.3606 79.868 58.368H82.884C82.9212 58.3721 82.9588 58.3721 82.996 58.368C83.0812 58.3388 83.1561 58.2854 83.2115 58.2144C83.2669 58.1434 83.3004 58.0578 83.308 57.968C83.408 57.568 83.216 57.168 82.908 57.168L81.396 57.136ZM78.552 68.336C78.656 68.336 78.76 68.336 78.864 68.336C79.084 68.336 79.24 68.108 79.264 67.776C79.264 67.524 79.264 67.268 79.264 67.02C79.264 66.692 79.092 66.468 78.864 66.46C78.636 66.452 78.44 66.46 78.228 66.46C78.016 66.46 77.828 66.72 77.828 67.072C77.828 67.288 77.828 67.508 77.828 67.728C77.828 68.08 77.992 68.328 78.228 68.336C78.336 68.36 78.44 68.356 78.544 68.356L78.552 68.336ZM84.24 68.336C84.348 68.336 84.452 68.336 84.556 68.336C84.78 68.336 84.956 68.08 84.956 67.728C84.956 67.508 84.956 67.288 84.956 67.072C84.956 66.72 84.788 66.468 84.556 66.46C84.324 66.452 84.132 66.46 83.92 66.46C83.708 66.46 83.552 66.692 83.52 67.02C83.52 67.2707 83.52 67.5227 83.52 67.776C83.52 68.108 83.696 68.328 83.92 68.336C84.024 68.36 84.128 68.356 84.232 68.356L84.24 68.336Z" fill="#263238"/>
<path d="M261.344 187.44H10.6399" stroke="#263238" stroke-miterlimit="10"/>
<path d="M293.42 187.44H265.848" stroke="#263238" stroke-miterlimit="10"/>
</svg>
