<svg width="91" height="50" viewBox="0 0 91 50" fill="none" xmlns="http://www.w3.org/2000/svg">
<path d="M55.0323 0.361969C53.75 0.950165 53.4839 1.6741 53.4839 4.68294C53.5081 7.10359 53.5565 7.42031 54.0403 7.96326C55.0565 9.13965 55.879 9.27539 61.6371 9.27539C66.3065 9.27539 67.0081 9.23014 67.7581 8.84556C69.2339 8.12162 69.5484 7.48818 69.6452 5.06753C69.7661 2.44328 69.379 1.26689 68.121 0.497706C67.2984 0.0226259 67.0807 2.86102e-06 61.5403 2.86102e-06C56.9194 2.86102e-06 55.6371 0.067872 55.0323 0.361969Z" fill="#343433"/>
<path d="M14.9435 3.93628C13.7581 4.34349 13.3952 4.63759 12.4516 6.01759C10.4435 8.95857 2.60484 23.6861 1.70968 26.2425C1.58871 26.5592 1.27419 27.3736 1.00806 28.0523C0.548387 29.1382 0.5 29.7943 0.5 33.6175C0.5 38.5267 0.645161 39.1375 2.12097 40.2008C3.62097 41.3093 3.95968 41.3998 6.62097 41.3998H9.16129L9.33064 42.5762C9.98387 47.6437 15.6694 51.2181 20.4597 49.5893C23.0242 48.7296 24.7177 47.3949 25.7339 45.4041C26.2177 44.4991 26.871 42.1916 26.871 41.4677C26.871 41.4224 31.1532 41.3998 36.379 41.3998H45.8629L46.1774 42.9155C46.5645 44.748 47.3871 46.2637 48.7903 47.5532C49.7823 48.4808 50.3387 48.8201 52.3468 49.6345C54.5968 50.5395 58.4194 49.7024 60.6452 47.8021C62.3387 46.3316 63.4032 44.2955 63.4032 42.4631C63.4032 41.8749 63.5242 41.3998 63.6452 41.3998C63.7903 41.3998 63.8871 41.9201 63.8871 42.5309C63.8871 43.8883 65.0242 46.2411 66.1129 47.2139C66.5 47.5759 67.0081 48.0283 67.2258 48.2319C67.4436 48.4581 67.7339 48.6391 67.879 48.6391C68.0242 48.6391 68.2661 48.7522 68.4113 48.888C68.9436 49.3857 71.2661 49.9739 72.6452 49.9965C76.9758 50.0191 81.3064 46.0601 81.3064 42.0785V41.3998H84.6452C87.4516 41.3998 88.1532 41.3319 88.9516 40.97C90.2581 40.3818 90.5 39.7483 90.5 37.1015C90.5 34.9297 90.4758 34.8618 89.7742 34.2283C89.3871 33.889 88.8064 33.527 88.5161 33.4365C88.2016 33.3687 75.7419 33.3008 60.8145 33.2782C43.8306 33.2556 33.4516 33.1651 33.0645 33.0293L32.4355 32.8031V19.1841C32.4355 8.73234 32.3629 5.40677 32.121 4.97694C31.9516 4.66022 31.4435 4.23038 30.9839 4.02678C30.2339 3.66481 29.3145 3.61957 23 3.61957C17.6774 3.64219 15.6452 3.71006 14.9435 3.93628ZM27.2823 8.64185C27.4032 9.04906 27.4274 12.1484 27.3548 15.5192L27.2339 21.6726L26.629 22.1477C26.0484 22.6002 25.7581 22.6002 18.2339 22.6228C13.6855 22.6228 10.3952 22.5323 10.2984 22.4192C10.129 22.1251 11.5565 18.1208 12.9597 15.0441C13.129 14.6595 13.7823 13.2117 14.4113 11.8091C15.0887 10.3386 15.8871 8.95857 16.2742 8.57398L17 7.91792H22.0323H27.0887L27.2823 8.64185ZM19.8065 38.21C21.7419 39.1375 22.5887 40.8569 22.0565 42.7119C21.5484 44.5444 19.9758 45.6982 18.0645 45.6982C14.8952 45.6982 12.8871 42.6441 14.2903 39.9519C15.2823 38.0064 17.7742 37.2372 19.8065 38.21ZM56.8226 38.3231C58.0806 38.9339 58.7097 39.7483 58.9516 41.0831C59.3629 43.5942 57.4516 45.6982 54.7177 45.6982C53.7258 45.6982 53.3387 45.5624 52.4677 44.9516C50.629 43.6395 50.121 41.8523 51.0645 39.9746C52.0806 37.9837 54.5726 37.2598 56.8226 38.3231ZM74.629 38.3005C75.7661 38.8887 76.8064 40.6306 76.7823 41.8749C76.7581 43.9336 74.7742 45.6982 72.4758 45.6982C68.2419 45.6982 66.8387 40.1103 70.5887 38.2552C71.8226 37.6444 73.4435 37.667 74.629 38.3005Z" fill="#343433"/>
<path d="M46.7097 10.7908C44.8226 11.3564 44.5323 11.9446 44.5323 15.3154C44.5323 19.659 44.5565 19.6816 52.4436 19.6816C60.2823 19.6816 60.4516 19.5911 60.4758 15.1571C60.5 12.6007 60.1129 11.6279 58.8065 11.0397C58.0807 10.6777 57.2339 10.6325 52.5162 10.6551C49.5162 10.6551 46.9033 10.723 46.7097 10.7908Z" fill="#343433"/>
<path d="M64.25 11.0171C62.8226 11.741 62.7016 12.0578 62.6774 15.1571C62.6774 17.9623 62.6774 18.0076 63.379 18.7768L64.0807 19.5686L70.2258 19.6364C74 19.6817 76.6371 19.6138 77.0242 19.4781C78.2823 19.0256 78.6452 18.0528 78.6452 15.2023C78.6452 12.9627 78.5726 12.5781 78.1129 11.8994C77.3145 10.7683 76.5161 10.6325 70.3952 10.6325C65.8952 10.6551 64.8548 10.723 64.25 11.0171Z" fill="#343433"/>
<path d="M37.1532 21.5369C36.8871 21.6726 36.379 22.0346 36.0161 22.3513C35.3387 22.9395 35.3387 22.9621 35.3387 25.8805C35.3629 29.1382 35.4355 29.3418 36.9597 30.1336C37.6129 30.4955 38.4355 30.5408 43.3709 30.5408C48.3306 30.5408 49.0806 30.4955 49.6371 30.1336C51.1613 29.1834 51.1855 29.1155 51.1855 25.8805C51.1855 22.6228 51.0645 22.306 49.5645 21.5821C48.7419 21.1749 37.9274 21.1296 37.1532 21.5369Z" fill="#343433"/>
<path d="M55.371 21.4237C55.129 21.469 54.9355 21.6274 54.9355 21.7405C54.9355 21.8536 54.7903 21.9441 54.621 21.9441C54.4516 21.9441 54.1371 22.2382 53.8952 22.6001C53.5807 23.1205 53.4839 23.7991 53.4839 25.9031C53.4839 28.2332 53.5323 28.6178 53.992 29.1382C55.129 30.5181 55.2742 30.5408 61.492 30.5408H67.2016L68.1936 29.8621C69.4516 29.025 69.7903 27.9618 69.6452 25.3375C69.5 23.0752 69.1855 22.3287 68.0726 21.7178C67.2984 21.288 66.8387 21.2654 61.5161 21.288C58.371 21.3106 55.5887 21.3559 55.371 21.4237Z" fill="#343433"/>
<path d="M73.25 21.6726C71.9919 22.4644 71.8952 22.7585 71.871 25.7221C71.871 28.9119 72.0645 29.5001 73.371 30.1109C74.1694 30.4955 74.8226 30.5408 79.7339 30.5408C84.7177 30.5408 85.2742 30.4955 86.1452 30.0883C87.5726 29.4096 87.8387 28.7309 87.8387 25.8578C87.8387 23.8444 87.7661 23.3014 87.3548 22.6906C86.4839 21.3333 86.0726 21.2654 79.6855 21.2654C74.5323 21.2654 73.8548 21.3106 73.25 21.6726Z" fill="#343433"/>
</svg>
