<svg width="64" height="67" viewBox="0 0 64 67" fill="none" xmlns="http://www.w3.org/2000/svg">
<path d="M11.4241 0.801552C10.6902 1.28646 10.4936 1.78448 10.3756 3.35716C10.1921 5.67687 9.52375 7.17092 7.96418 8.66497C6.49634 10.0673 4.96298 10.7488 2.86607 10.9323C1.76519 11.024 1.25407 11.273 0.756051 11.9414C0.520148 12.269 0.480831 12.4787 0.507043 13.5403C0.520148 14.2087 0.624994 15.6241 0.742945 16.6988C0.926425 18.4549 1.07059 19.4247 1.7914 23.6972C2.15836 25.8465 3.03644 29.1754 3.91452 31.7572C4.85813 34.4963 4.97608 34.7977 6.24733 37.6547C6.73224 38.7294 7.23026 39.8827 7.34821 40.2104C7.83312 41.4685 10.4674 45.8458 12.0532 48.0082C12.4725 48.5849 12.8526 49.1484 12.8919 49.2664C13.0099 49.5547 14.5957 51.6123 15.1985 52.2414C15.4606 52.5297 16.2732 53.4209 16.994 54.2334C18.7108 56.1731 19.9428 57.405 21.8955 59.0825C22.7736 59.8427 23.7041 60.6421 23.9531 60.878C24.556 61.4285 26.797 63.0798 27.7669 63.6958C28.1862 63.9579 29.1299 64.5869 29.8769 65.0981C31.1743 65.9892 31.253 66.0286 32 66.0286C32.747 66.0286 32.8257 65.9892 34.1231 65.0981C34.8701 64.5869 35.8138 63.9579 36.2331 63.6958C37.2292 63.0667 39.444 61.4285 40.0207 60.878C40.2828 60.6552 41.2133 59.8427 42.0914 59.0825C44.0441 57.405 45.2761 56.1993 47.006 54.2334C47.7268 53.4209 48.5394 52.5297 48.8015 52.2414C49.4044 51.6123 50.9901 49.5547 51.1081 49.2664C51.1474 49.1484 51.5275 48.5849 51.96 48.0082C53.4671 45.9506 56.1407 41.5209 56.547 40.3938C56.7304 39.9089 57.5823 37.9824 58.5521 35.8724C59.7841 33.1726 61.6582 26.9343 62.2086 23.6972C62.9294 19.4247 63.0736 18.4549 63.2571 16.6988C63.375 15.6241 63.4799 14.2087 63.493 13.5403C63.5192 12.4787 63.4799 12.269 63.244 11.9414C62.7459 11.273 62.2348 11.024 61.1339 10.9323C59.037 10.7488 57.5037 10.0673 56.0358 8.66497C54.4763 7.17092 53.8079 5.67687 53.6244 3.35716C53.5064 1.78448 53.3098 1.28646 52.5759 0.801552L52.1434 0.500122H32H11.8566L11.4241 0.801552ZM49.614 5.16574C49.732 6.01762 50.4397 8.08831 50.8198 8.65186C50.9901 8.92708 51.1343 9.2154 51.1343 9.32025C51.1343 9.41199 51.5144 9.96243 51.9862 10.5522C52.8905 11.7055 54.0569 12.7408 55.2626 13.4748C55.9965 13.9072 58.2769 14.7853 58.7094 14.7853C59.2598 14.7984 59.2729 14.9164 59.0501 16.8298C58.657 20.2242 57.9624 23.7627 56.9794 27.2619C56.7435 28.1531 56.4945 29.0967 56.4552 29.372C56.2848 30.2762 54.4631 34.8501 53.3885 37.065C52.1565 39.5813 51.0163 41.7306 50.2169 43.0281C49.5616 44.1159 47.7268 46.8025 47.5958 46.8943C47.4647 46.986 46.0231 48.8077 45.5382 49.5154C44.9484 50.3542 43.4413 51.9793 41.6982 53.6437C40.8725 54.43 40.1124 55.1771 40.0338 55.295C39.7717 55.6358 37.4651 57.5885 37.0326 57.8244C36.8229 57.9424 36.1807 58.4142 35.6041 58.886C35.0274 59.3578 33.979 60.131 33.2844 60.6028L32 61.4809L30.7288 60.6028C30.021 60.131 28.9726 59.3578 28.3959 58.886C27.8193 58.4142 27.1771 57.9424 26.9674 57.8244C26.5218 57.5754 24.3725 55.7537 23.8614 55.2033C23.6779 54.9936 22.826 54.1417 21.961 53.3029C20.3228 51.7172 18.8943 50.1576 18.3701 49.3843C17.9638 48.8077 16.5353 46.986 16.4042 46.8943C16.2732 46.8025 14.4384 44.1159 13.7831 43.0281C11.4896 39.293 8.10834 31.862 7.49237 29.2016C7.40063 28.8084 7.0992 27.6289 6.82398 26.5804C5.88037 23.0026 5.31683 20.0145 4.93676 16.7643C4.72707 14.9164 4.74018 14.7984 5.29062 14.7853C5.7231 14.7853 8.00349 13.9072 8.73741 13.4748C9.94314 12.7408 11.1095 11.7055 12.0138 10.5522C12.4856 9.96243 12.8657 9.41199 12.8657 9.32025C12.8657 9.2154 13.0099 8.92708 13.1802 8.65186C13.5603 8.08831 14.268 6.01762 14.386 5.16574L14.4777 4.56289H32H49.5223L49.614 5.16574Z" fill="#343433"/>
<path d="M28.7891 9.92282C25.5258 10.6043 23.56 11.5217 20.5588 13.7759C19.222 14.785 18.8812 15.1258 17.9376 16.397C16.1421 18.8085 15.3951 20.1846 14.7267 22.2553C14.0846 24.2867 13.8749 25.6234 13.8749 27.8252C13.8749 31.1409 14.5301 33.6572 16.0897 36.4487C17.5051 38.9388 18.9074 40.6164 20.7291 41.9793C24.3987 44.7053 27.282 45.78 31.4103 45.9242C35.5648 46.0814 39.1688 44.9674 42.6156 42.4643C45.1319 40.6426 45.8527 39.8169 48.1069 36.1866C48.2511 35.9507 48.5787 35.2168 48.8408 34.5615C50.1121 31.403 50.4921 27.7728 49.8762 24.6143C49.5092 22.7402 48.7622 20.5122 48.1987 19.6341C48.0414 19.3851 47.6744 18.7954 47.3992 18.3236C47.124 17.8518 46.4032 16.8426 45.8134 16.0825C44.9878 15.0209 44.4504 14.4967 43.5068 13.8021C40.7677 11.7576 38.7101 10.7485 36.0628 10.1063C34.1494 9.6476 30.5453 9.55586 28.7891 9.92282ZM33.8217 14.0642C35.3813 14.2215 35.8662 14.3394 36.954 14.7719C39.0116 15.5845 40.06 16.2922 41.8293 18.0615C43.651 19.8831 44.5684 21.3248 45.2892 23.4872C45.5513 24.2604 45.8921 26.7112 45.8921 27.8252C45.8921 31.1409 44.7519 34.3911 42.8908 36.4094C42.5239 36.8026 42.2225 37.1696 42.2225 37.2089C42.2225 37.2613 41.6065 37.8248 40.8464 38.4801C38.2252 40.7212 35.6434 41.6517 32.0656 41.6517C27.9635 41.6517 25.054 40.4591 22.2363 37.6545C19.7462 35.1644 18.5536 32.7005 18.226 29.4241C17.8328 25.4137 18.8157 21.8621 21.0437 19.241C21.9873 18.1401 23.9531 16.3577 24.8181 15.8466C25.919 15.1913 27.6227 14.4836 28.6057 14.2608C28.9988 14.1822 29.8507 14.0642 30.4929 14.0118C31.1482 13.9463 31.7379 13.8938 31.8165 13.8807C31.9083 13.8807 32.7995 13.9594 33.8217 14.0642Z" fill="#343433"/>
<path d="M39.1819 21.7841C38.9853 21.889 38.0286 22.6622 37.0587 23.4879C36.0758 24.3266 35.224 25.0081 35.1584 25.0081C35.0929 25.0081 34.9225 25.1523 34.7915 25.3227C34.6604 25.493 33.3629 26.6463 31.9082 27.8914C30.4404 29.1364 29.2478 30.2111 29.2478 30.2766C29.2478 30.3421 28.4221 29.4379 27.413 28.2583C25.5389 26.0566 25.0539 25.6765 24.2021 25.6634C23.6123 25.6634 22.8129 26.1876 22.4721 26.7774C22.1183 27.4065 22.0921 28.0487 22.4066 28.7039C22.7736 29.4903 27.4523 34.8898 27.9765 35.1388C28.5663 35.4272 29.2084 35.414 29.7851 35.1257C30.0341 34.9947 31.2922 33.9724 32.5766 32.8715C33.861 31.7576 35.0929 30.696 35.3157 30.5125C35.5516 30.329 36.7573 29.3068 38.0024 28.219C39.2474 27.1444 40.6104 25.9517 41.0298 25.5979C41.9472 24.8115 42.0913 24.5494 42.0913 23.6582C42.0913 22.4656 41.2264 21.6007 40.0337 21.6007C39.7585 21.6007 39.3785 21.6924 39.1819 21.7841Z" fill="#343433"/>
</svg>
