<svg width="16" height="18" viewBox="0 0 16 18" fill="none" xmlns="http://www.w3.org/2000/svg">
<path d="M10.025 1.57595H5.97948V0.225952H10.025V1.57595Z" fill="black" fill-opacity="0.55"/>
<path d="M4.99818 12.6054L4.39435 11.3979L7.3242 9.93274L7.32779 5.62479L8.67779 5.62591L8.67351 10.7674L4.99818 12.6054Z" fill="black" fill-opacity="0.55"/>
<path fill-rule="evenodd" clip-rule="evenodd" d="M15.4239 10.35C15.4239 8.24864 14.5509 6.35112 13.1478 5.00037L14.3533 3.49512L13.2996 2.65124L12.0946 4.15587C10.9206 3.37804 9.51261 2.92505 7.99885 2.92505C3.89814 2.92505 0.573853 6.24933 0.573853 10.35C0.573853 14.4508 3.89814 17.775 7.99885 17.775C12.0996 17.775 15.4239 14.4508 15.4239 10.35ZM1.92385 10.35C1.92385 6.99492 4.64372 4.27505 7.99885 4.27505C11.354 4.27505 14.0739 6.99492 14.0739 10.35C14.0739 13.7052 11.354 16.425 7.99885 16.425C4.64372 16.425 1.92385 13.7052 1.92385 10.35Z" fill="black" fill-opacity="0.55"/>
</svg>
