<svg width="514" height="381" viewBox="0 0 514 381" fill="none" xmlns="http://www.w3.org/2000/svg">
<g filter="url(#filter0_d_17_980)">
<mask id="path-1-inside-1_17_980" fill="white">
<path d="M228.48 1.75299C226.64 2.71713 224.799 3.8566 224.523 4.38251C224.247 4.82074 222.13 5.259 219.921 5.259C214.95 5.259 211.637 8.41443 213.017 11.8328C213.57 13.1475 213.293 16.1276 212.373 20.2471C211.453 24.6296 211.176 28.7492 211.545 32.9564C211.913 36.9006 211.729 40.056 211.084 41.3708C210.44 42.8608 210.348 44.5262 210.992 46.5421C212.097 50.4864 210.624 61.0044 208.507 63.8969C206.206 67.2275 204.733 70.8212 204.733 73.1877C204.733 75.6419 196.081 83.4428 194.148 82.7416C192.676 82.2157 190.927 77.8332 190.927 74.7654C190.927 73.626 190.467 71.873 189.915 70.8212C187.705 66.8769 184.484 54.4306 185.036 51.8011C185.496 49.6975 185.128 48.5581 183.195 46.4545C181.907 44.8768 180.802 43.0361 180.802 42.2473C180.802 41.3708 179.79 39.7054 178.593 38.4783C175.464 35.2353 174.359 32.9564 174.359 29.3627C174.359 25.6814 172.702 22.2631 169.389 19.3706C167.18 17.3547 166.812 17.3547 164.511 18.4941C161.933 19.8089 158.712 24.1037 158.712 26.295C158.712 26.9962 157.884 28.5739 156.871 29.801C155.859 31.0281 155.03 33.2194 155.03 34.7971C155.03 36.2871 154.662 37.8648 154.11 38.1277C153.65 38.3907 153.189 39.5301 153.189 40.6696C153.189 42.9485 151.072 45.0521 147.943 45.9286C146.102 46.4545 145.826 46.2792 145.826 44.1756C145.826 40.9325 139.567 35.06 136.069 35.06C134.597 35.06 129.258 35.9365 124.196 36.9883C113.059 39.2672 105.235 39.2672 96.1228 36.9006C86.4583 34.4464 82.5005 35.4982 77.4381 41.8967C73.9405 46.5421 73.7564 46.6298 69.9826 46.1039C67.9577 45.8409 63.7237 45.315 60.6863 45.0521C54.7035 44.4385 51.482 42.5102 47.8923 37.5142C46.6037 35.6735 45.039 34.6217 43.1982 34.4464C41.7255 34.2711 38.9642 32.7811 37.2154 31.291C30.4042 25.2432 30.6803 25.3308 26.6304 26.7332C24.6055 27.4344 20.0033 27.9603 16.3216 28.0479C9.23432 28.0479 7.94572 28.6615 5.36852 33.4823C4.54013 34.9723 2.97541 36.9883 1.77885 38.0401C-0.246096 39.7054 -0.338139 40.2313 0.490247 43.825C1.0425 46.0162 1.77885 50.4864 2.14702 53.7294C2.69928 59.339 2.97541 59.9526 6.38099 62.7574C8.40594 64.4227 10.707 66.4387 11.5354 67.1399C12.6399 68.104 13.1001 70.12 13.1922 74.5901C13.2842 80.9009 14.3887 83.2675 17.3341 83.2675C18.1625 83.2675 19.0829 84.5822 19.7272 86.7735C20.2795 88.7018 21.0158 90.2795 21.476 90.2795C21.8442 90.2795 23.1328 93.1719 24.2373 96.6779C26.1702 102.55 26.9066 103.515 33.4416 109.212C38.3199 113.594 41.4493 115.61 43.6584 115.961C45.9594 116.399 47.4321 117.363 48.5366 119.116C51.2979 123.586 56.0842 126.83 61.6067 128.057C65.3805 128.845 67.2213 129.81 68.7861 131.738C73.0201 137.085 76.2415 139.276 83.8811 142.168C93.8217 145.85 97.4114 148.83 99.3443 155.053C100.909 160.487 101.277 175.388 99.8045 178.017C98.3318 180.559 94.7422 180.121 92.257 176.965C91.0605 175.563 88.7594 172.758 87.0106 170.83L83.8811 167.324L80.7516 170.216C79.0949 171.706 77.7142 173.722 77.7142 174.599C77.7142 175.475 76.7018 176.79 75.4132 177.579C72.4678 179.42 67.2213 188.097 67.9577 189.938C68.3259 190.726 67.7736 192.918 66.7611 194.934C64.4601 199.491 64.276 200.456 65.1964 203.962C66.0248 207.292 64.368 212.989 62.6192 212.989C60.7783 212.989 57.4648 216.846 57.4648 218.95C57.4648 220.177 56.4523 221.316 54.7035 222.193C51.2059 223.858 46.4197 230.081 46.4197 232.798C46.4197 233.938 47.6162 236.129 48.9968 237.707C50.4695 239.284 52.1263 241.914 52.8627 243.492C53.507 245.157 55.0717 247.085 56.2682 247.787C58.3852 249.101 58.5693 249.014 60.8704 246.384C65.1044 241.476 68.2338 243.316 70.811 252.169C71.1792 253.308 71.8235 254.185 72.2837 254.185C72.7439 254.185 73.1121 254.799 73.1121 255.5C73.1121 256.552 76.2415 263.651 79.6471 270.137C80.1073 271.014 80.4755 272.767 80.4755 274.082C80.4755 275.659 81.6721 277.675 84.0652 280.042L87.7469 283.548L86.6424 293.978L85.5379 304.408L82.2243 305.548C79.0028 306.6 72.0076 310.544 69.7065 312.648C68.9702 313.261 68.4179 317.293 68.1418 323.078L67.6816 332.456L70.719 336.927C72.4678 339.381 74.1246 343.15 74.4927 345.253C74.8609 347.445 75.8734 350.337 76.7018 351.827C78.0824 354.106 79.0028 354.632 82.5005 354.982C87.1946 355.508 89.6798 357.086 89.6798 359.453C89.6798 362.696 93.5456 368.743 96.6751 370.321C100.633 372.337 108.088 371.548 113.703 368.481C115.912 367.341 120.238 365.15 123.275 363.747C126.313 362.345 130.179 360.329 131.927 359.453C133.676 358.488 136.898 357.437 139.107 357.086C142.144 356.648 143.709 355.859 145.366 353.668C146.654 352.178 147.667 350.425 147.667 349.986C147.667 348.321 154.11 343.588 156.319 343.588C157.607 343.588 160.829 342.711 163.682 341.747C168.1 340.082 169.205 339.994 171.598 340.958C174.267 342.01 174.359 342.273 174.359 347.62C174.359 354.457 177.305 360.241 180.802 360.241C182.735 360.241 187.245 358.226 187.245 357.349C187.245 356.297 190.375 356.648 196.542 358.488C199.763 359.453 205.93 361.293 210.256 362.52C214.582 363.747 219.552 365.588 221.301 366.465C231.518 371.899 233.911 372.6 237.777 371.636C239.894 371.11 243.207 369.182 245.14 367.429C248.73 364.186 248.822 364.01 247.902 360.241C247.349 358.138 247.165 355.596 247.441 354.544C248.086 352.265 267.691 335.524 272.569 333.158C274.686 332.193 278.46 329.476 281.129 327.197C285.455 323.341 286.007 322.552 286.283 318.783C286.744 312.385 289.137 305.811 291.99 303.006C293.371 301.604 297.421 298.886 301.102 297.046C306.441 294.241 307.821 293.014 308.282 290.998C308.65 289.508 309.294 288.193 309.754 287.93C310.215 287.667 312.976 287.843 316.013 288.368C321.076 289.245 321.904 289.157 326.874 287.054C332.765 284.512 337.183 280.918 340.589 275.922C342.061 273.731 343.534 272.591 344.915 272.504C347.308 272.504 358.445 269.787 359.918 268.91C360.654 268.472 360.838 266.105 360.47 261.986L360.01 255.675L363.691 256.201C365.716 256.552 369.398 257.516 371.883 258.48C374.368 259.356 378.879 261.109 381.916 262.249C388.267 264.528 396.459 264.966 400.14 263.038C402.718 261.723 406.952 262.249 413.211 264.703C416.432 266.018 423.98 265.229 425.82 263.476C427.937 261.548 430.238 261.197 434.472 262.249C438.338 263.301 438.706 263.213 441.008 261.022C443.401 258.743 443.401 258.655 441.836 255.149C439.903 250.504 439.995 248.751 442.112 246.647C443.032 245.683 444.505 242.703 445.426 240.073C446.53 237.006 448.095 234.464 450.12 232.886C455.734 228.416 456.839 226.137 458.404 215.444C459.968 204.312 461.533 200.631 465.859 197.826C469.357 195.547 470.829 193.093 472.118 187.133C472.854 183.714 473.591 182.487 475.616 181.611C479.113 180.033 485.464 171.794 485.464 168.814C485.464 166.097 483.531 162.152 481.23 160.312C477.549 157.419 476.444 154.352 476.996 148.479C477.457 142.168 476.812 140.854 471.842 138.838C468.897 137.698 468.712 137.435 469.265 134.455C469.633 132.702 470.737 129.897 471.658 128.144C472.578 126.304 473.867 122.535 474.419 119.642C474.971 116.75 476.076 112.192 476.72 109.562C477.456 106.933 479.021 101.06 480.126 96.5026L482.243 88.3512L488.686 85.1958C492.275 83.4428 496.325 80.9009 497.706 79.4985C500.559 76.7814 500.651 75.2914 498.534 67.0522C497.982 65.1239 497.154 61.4426 496.601 58.9008C494.945 51.0123 492.552 46.9804 487.765 43.825C483.623 41.1078 483.347 41.0202 479.205 42.072C476.812 42.6855 473.499 43.9126 471.842 44.7892C470.185 45.7533 466.872 46.8928 464.478 47.4186C458.772 48.821 455.55 50.3987 450.028 54.6936C440.179 62.2315 438.522 64.1598 438.522 67.4905C438.522 75.0284 435.117 81.7774 427.201 89.9289L421.218 95.9767H410.357C399.036 96.0644 396.919 96.5026 392.777 100.184C391.212 101.499 390.66 102.989 390.66 105.706C390.66 109.913 389.648 112.017 384.493 118.503C381.272 122.622 376.854 130.423 376.854 132.001C376.854 132.351 375.197 134.192 373.172 136.033C369.858 139.101 369.49 139.977 369.49 143.746C369.49 146.113 369.95 148.304 370.411 148.567C372.067 149.531 371.423 153.913 369.398 155.666C368.294 156.543 365.808 159.523 363.784 162.24C360.194 167.236 355.684 170.041 347.124 172.67C343.994 173.547 343.35 173.459 339.484 171.443C337.091 170.216 334.79 169.164 334.33 169.164C333.317 169.164 330.096 172.758 328.347 175.914C327.703 177.053 326.598 178.981 325.862 180.208C324.481 182.663 320.615 184.941 317.946 184.941C316.381 184.941 312.24 186.344 306.257 188.973C302.667 190.463 293.647 190.639 292.358 189.061C291.898 188.535 290.609 185.38 289.505 182.224C286.56 173.898 283.89 169.953 279.012 166.535C275.422 163.993 274.41 162.678 273.397 159.085C271.096 151.284 269.163 142.519 269.163 140.152C269.163 135.332 262.26 125.69 256.922 123.061C254.989 122.096 254.529 121.308 254.897 120.08C255.173 119.116 253.976 112.893 252.228 106.144C250.387 99.3951 248.914 91.9448 248.914 89.5783C248.914 84.8452 248.086 82.6539 241.827 70.12C239.526 65.5622 237.685 60.8291 237.593 59.602C237.593 58.3749 238.513 54.606 239.526 51.2752C240.814 47.2433 241.827 40.6696 242.379 31.9922L243.207 18.8447L240.078 12.8846C238.329 9.64151 236.948 6.39847 236.948 5.78491C236.948 4.47015 233.451 0 232.53 0C232.162 0.0876465 230.321 0.876495 228.48 1.75299Z"/>
</mask>
<path d="M228.48 1.75299C226.64 2.71713 224.799 3.8566 224.523 4.38251C224.247 4.82074 222.13 5.259 219.921 5.259C214.95 5.259 211.637 8.41443 213.017 11.8328C213.57 13.1475 213.293 16.1276 212.373 20.2471C211.453 24.6296 211.176 28.7492 211.545 32.9564C211.913 36.9006 211.729 40.056 211.084 41.3708C210.44 42.8608 210.348 44.5262 210.992 46.5421C212.097 50.4864 210.624 61.0044 208.507 63.8969C206.206 67.2275 204.733 70.8212 204.733 73.1877C204.733 75.6419 196.081 83.4428 194.148 82.7416C192.676 82.2157 190.927 77.8332 190.927 74.7654C190.927 73.626 190.467 71.873 189.915 70.8212C187.705 66.8769 184.484 54.4306 185.036 51.8011C185.496 49.6975 185.128 48.5581 183.195 46.4545C181.907 44.8768 180.802 43.0361 180.802 42.2473C180.802 41.3708 179.79 39.7054 178.593 38.4783C175.464 35.2353 174.359 32.9564 174.359 29.3627C174.359 25.6814 172.702 22.2631 169.389 19.3706C167.18 17.3547 166.812 17.3547 164.511 18.4941C161.933 19.8089 158.712 24.1037 158.712 26.295C158.712 26.9962 157.884 28.5739 156.871 29.801C155.859 31.0281 155.03 33.2194 155.03 34.7971C155.03 36.2871 154.662 37.8648 154.11 38.1277C153.65 38.3907 153.189 39.5301 153.189 40.6696C153.189 42.9485 151.072 45.0521 147.943 45.9286C146.102 46.4545 145.826 46.2792 145.826 44.1756C145.826 40.9325 139.567 35.06 136.069 35.06C134.597 35.06 129.258 35.9365 124.196 36.9883C113.059 39.2672 105.235 39.2672 96.1228 36.9006C86.4583 34.4464 82.5005 35.4982 77.4381 41.8967C73.9405 46.5421 73.7564 46.6298 69.9826 46.1039C67.9577 45.8409 63.7237 45.315 60.6863 45.0521C54.7035 44.4385 51.482 42.5102 47.8923 37.5142C46.6037 35.6735 45.039 34.6217 43.1982 34.4464C41.7255 34.2711 38.9642 32.7811 37.2154 31.291C30.4042 25.2432 30.6803 25.3308 26.6304 26.7332C24.6055 27.4344 20.0033 27.9603 16.3216 28.0479C9.23432 28.0479 7.94572 28.6615 5.36852 33.4823C4.54013 34.9723 2.97541 36.9883 1.77885 38.0401C-0.246096 39.7054 -0.338139 40.2313 0.490247 43.825C1.0425 46.0162 1.77885 50.4864 2.14702 53.7294C2.69928 59.339 2.97541 59.9526 6.38099 62.7574C8.40594 64.4227 10.707 66.4387 11.5354 67.1399C12.6399 68.104 13.1001 70.12 13.1922 74.5901C13.2842 80.9009 14.3887 83.2675 17.3341 83.2675C18.1625 83.2675 19.0829 84.5822 19.7272 86.7735C20.2795 88.7018 21.0158 90.2795 21.476 90.2795C21.8442 90.2795 23.1328 93.1719 24.2373 96.6779C26.1702 102.55 26.9066 103.515 33.4416 109.212C38.3199 113.594 41.4493 115.61 43.6584 115.961C45.9594 116.399 47.4321 117.363 48.5366 119.116C51.2979 123.586 56.0842 126.83 61.6067 128.057C65.3805 128.845 67.2213 129.81 68.7861 131.738C73.0201 137.085 76.2415 139.276 83.8811 142.168C93.8217 145.85 97.4114 148.83 99.3443 155.053C100.909 160.487 101.277 175.388 99.8045 178.017C98.3318 180.559 94.7422 180.121 92.257 176.965C91.0605 175.563 88.7594 172.758 87.0106 170.83L83.8811 167.324L80.7516 170.216C79.0949 171.706 77.7142 173.722 77.7142 174.599C77.7142 175.475 76.7018 176.79 75.4132 177.579C72.4678 179.42 67.2213 188.097 67.9577 189.938C68.3259 190.726 67.7736 192.918 66.7611 194.934C64.4601 199.491 64.276 200.456 65.1964 203.962C66.0248 207.292 64.368 212.989 62.6192 212.989C60.7783 212.989 57.4648 216.846 57.4648 218.95C57.4648 220.177 56.4523 221.316 54.7035 222.193C51.2059 223.858 46.4197 230.081 46.4197 232.798C46.4197 233.938 47.6162 236.129 48.9968 237.707C50.4695 239.284 52.1263 241.914 52.8627 243.492C53.507 245.157 55.0717 247.085 56.2682 247.787C58.3852 249.101 58.5693 249.014 60.8704 246.384C65.1044 241.476 68.2338 243.316 70.811 252.169C71.1792 253.308 71.8235 254.185 72.2837 254.185C72.7439 254.185 73.1121 254.799 73.1121 255.5C73.1121 256.552 76.2415 263.651 79.6471 270.137C80.1073 271.014 80.4755 272.767 80.4755 274.082C80.4755 275.659 81.6721 277.675 84.0652 280.042L87.7469 283.548L86.6424 293.978L85.5379 304.408L82.2243 305.548C79.0028 306.6 72.0076 310.544 69.7065 312.648C68.9702 313.261 68.4179 317.293 68.1418 323.078L67.6816 332.456L70.719 336.927C72.4678 339.381 74.1246 343.15 74.4927 345.253C74.8609 347.445 75.8734 350.337 76.7018 351.827C78.0824 354.106 79.0028 354.632 82.5005 354.982C87.1946 355.508 89.6798 357.086 89.6798 359.453C89.6798 362.696 93.5456 368.743 96.6751 370.321C100.633 372.337 108.088 371.548 113.703 368.481C115.912 367.341 120.238 365.15 123.275 363.747C126.313 362.345 130.179 360.329 131.927 359.453C133.676 358.488 136.898 357.437 139.107 357.086C142.144 356.648 143.709 355.859 145.366 353.668C146.654 352.178 147.667 350.425 147.667 349.986C147.667 348.321 154.11 343.588 156.319 343.588C157.607 343.588 160.829 342.711 163.682 341.747C168.1 340.082 169.205 339.994 171.598 340.958C174.267 342.01 174.359 342.273 174.359 347.62C174.359 354.457 177.305 360.241 180.802 360.241C182.735 360.241 187.245 358.226 187.245 357.349C187.245 356.297 190.375 356.648 196.542 358.488C199.763 359.453 205.93 361.293 210.256 362.52C214.582 363.747 219.552 365.588 221.301 366.465C231.518 371.899 233.911 372.6 237.777 371.636C239.894 371.11 243.207 369.182 245.14 367.429C248.73 364.186 248.822 364.01 247.902 360.241C247.349 358.138 247.165 355.596 247.441 354.544C248.086 352.265 267.691 335.524 272.569 333.158C274.686 332.193 278.46 329.476 281.129 327.197C285.455 323.341 286.007 322.552 286.283 318.783C286.744 312.385 289.137 305.811 291.99 303.006C293.371 301.604 297.421 298.886 301.102 297.046C306.441 294.241 307.821 293.014 308.282 290.998C308.65 289.508 309.294 288.193 309.754 287.93C310.215 287.667 312.976 287.843 316.013 288.368C321.076 289.245 321.904 289.157 326.874 287.054C332.765 284.512 337.183 280.918 340.589 275.922C342.061 273.731 343.534 272.591 344.915 272.504C347.308 272.504 358.445 269.787 359.918 268.91C360.654 268.472 360.838 266.105 360.47 261.986L360.01 255.675L363.691 256.201C365.716 256.552 369.398 257.516 371.883 258.48C374.368 259.356 378.879 261.109 381.916 262.249C388.267 264.528 396.459 264.966 400.14 263.038C402.718 261.723 406.952 262.249 413.211 264.703C416.432 266.018 423.98 265.229 425.82 263.476C427.937 261.548 430.238 261.197 434.472 262.249C438.338 263.301 438.706 263.213 441.008 261.022C443.401 258.743 443.401 258.655 441.836 255.149C439.903 250.504 439.995 248.751 442.112 246.647C443.032 245.683 444.505 242.703 445.426 240.073C446.53 237.006 448.095 234.464 450.12 232.886C455.734 228.416 456.839 226.137 458.404 215.444C459.968 204.312 461.533 200.631 465.859 197.826C469.357 195.547 470.829 193.093 472.118 187.133C472.854 183.714 473.591 182.487 475.616 181.611C479.113 180.033 485.464 171.794 485.464 168.814C485.464 166.097 483.531 162.152 481.23 160.312C477.549 157.419 476.444 154.352 476.996 148.479C477.457 142.168 476.812 140.854 471.842 138.838C468.897 137.698 468.712 137.435 469.265 134.455C469.633 132.702 470.737 129.897 471.658 128.144C472.578 126.304 473.867 122.535 474.419 119.642C474.971 116.75 476.076 112.192 476.72 109.562C477.456 106.933 479.021 101.06 480.126 96.5026L482.243 88.3512L488.686 85.1958C492.275 83.4428 496.325 80.9009 497.706 79.4985C500.559 76.7814 500.651 75.2914 498.534 67.0522C497.982 65.1239 497.154 61.4426 496.601 58.9008C494.945 51.0123 492.552 46.9804 487.765 43.825C483.623 41.1078 483.347 41.0202 479.205 42.072C476.812 42.6855 473.499 43.9126 471.842 44.7892C470.185 45.7533 466.872 46.8928 464.478 47.4186C458.772 48.821 455.55 50.3987 450.028 54.6936C440.179 62.2315 438.522 64.1598 438.522 67.4905C438.522 75.0284 435.117 81.7774 427.201 89.9289L421.218 95.9767H410.357C399.036 96.0644 396.919 96.5026 392.777 100.184C391.212 101.499 390.66 102.989 390.66 105.706C390.66 109.913 389.648 112.017 384.493 118.503C381.272 122.622 376.854 130.423 376.854 132.001C376.854 132.351 375.197 134.192 373.172 136.033C369.858 139.101 369.49 139.977 369.49 143.746C369.49 146.113 369.95 148.304 370.411 148.567C372.067 149.531 371.423 153.913 369.398 155.666C368.294 156.543 365.808 159.523 363.784 162.24C360.194 167.236 355.684 170.041 347.124 172.67C343.994 173.547 343.35 173.459 339.484 171.443C337.091 170.216 334.79 169.164 334.33 169.164C333.317 169.164 330.096 172.758 328.347 175.914C327.703 177.053 326.598 178.981 325.862 180.208C324.481 182.663 320.615 184.941 317.946 184.941C316.381 184.941 312.24 186.344 306.257 188.973C302.667 190.463 293.647 190.639 292.358 189.061C291.898 188.535 290.609 185.38 289.505 182.224C286.56 173.898 283.89 169.953 279.012 166.535C275.422 163.993 274.41 162.678 273.397 159.085C271.096 151.284 269.163 142.519 269.163 140.152C269.163 135.332 262.26 125.69 256.922 123.061C254.989 122.096 254.529 121.308 254.897 120.08C255.173 119.116 253.976 112.893 252.228 106.144C250.387 99.3951 248.914 91.9448 248.914 89.5783C248.914 84.8452 248.086 82.6539 241.827 70.12C239.526 65.5622 237.685 60.8291 237.593 59.602C237.593 58.3749 238.513 54.606 239.526 51.2752C240.814 47.2433 241.827 40.6696 242.379 31.9922L243.207 18.8447L240.078 12.8846C238.329 9.64151 236.948 6.39847 236.948 5.78491C236.948 4.47015 233.451 0 232.53 0C232.162 0.0876465 230.321 0.876495 228.48 1.75299Z" fill="white" stroke="#8BEAA4" stroke-width="10" mask="url(#path-1-inside-1_17_980)"/>
<path d="M384.473 195.075C383.174 195.24 381.735 195.687 380.653 196.261C378.046 197.636 376.583 200.075 377.105 202.178C377.502 203.801 379.361 206.268 382.24 209.012C383.882 210.568 385.617 212.048 385.905 212.125C386.216 212.213 386.427 212.108 387.158 211.496C391.749 207.67 394.752 204.072 395.134 201.924C395.297 200.997 395.04 199.866 394.433 198.867C393.243 196.907 390.621 195.439 387.664 195.075C386.862 194.975 385.252 194.975 384.473 195.075ZM381.408 198.994C381.587 199.082 381.735 199.176 381.735 199.192C381.735 199.214 381.61 199.369 381.462 199.546C380.964 200.136 380.668 201.025 380.754 201.676C380.832 202.267 380.964 202.598 381.361 203.161L381.727 203.685L381.517 203.807C381.4 203.873 381.213 203.961 381.104 204.011C380.894 204.099 380.894 204.099 380.661 203.834C379.992 203.106 379.704 202.366 379.704 201.422C379.704 200.495 379.968 199.827 380.614 199.065C380.801 198.85 380.925 198.756 380.988 198.784C381.042 198.811 381.229 198.9 381.408 198.994ZM391.842 199.435C392.309 200.103 392.48 200.633 392.48 201.422C392.48 201.913 392.441 202.2 392.317 202.521C392.161 202.957 391.671 203.735 391.406 203.972L391.266 204.099L390.877 203.901C390.659 203.796 390.488 203.691 390.488 203.669C390.488 203.647 390.652 203.393 390.854 203.106C391.243 202.526 391.352 202.261 391.43 201.687C391.515 201.019 391.227 200.142 390.722 199.546C390.574 199.369 390.449 199.214 390.449 199.192C390.449 199.176 390.636 199.065 390.862 198.955L391.266 198.751L391.399 198.872C391.476 198.938 391.679 199.192 391.842 199.435ZM386.699 200.373C387.695 200.672 387.998 201.549 387.314 202.14C386.504 202.835 384.917 202.603 384.567 201.737C384.193 200.837 385.477 200.015 386.699 200.373Z" fill="#78C88A"/>
<path d="M367.883 228.92C368.023 228.92 368.093 228.99 368.093 229.13V235.346C368.093 237.754 366.861 239.14 364.439 239.14C362.017 239.14 360.813 237.754 360.813 235.346V229.13C360.813 228.99 360.883 228.92 361.023 228.92H361.905C362.045 228.92 362.115 228.99 362.115 229.13V235.346C362.115 236.97 362.829 237.992 364.439 237.992C366.077 237.992 366.791 236.97 366.791 235.346V229.13C366.791 228.99 366.861 228.92 367.001 228.92H367.883ZM374.73 237.95C374.8 238.048 374.716 238.16 374.632 238.23C374.226 238.608 373.386 239.154 372.238 239.14C370.768 239.126 369.186 238.3 369.186 235.514C369.186 232.728 370.796 231.902 372.238 231.902C373.288 231.902 373.876 232.196 374.492 232.574C374.59 232.644 374.604 232.756 374.534 232.868L374.268 233.386C374.198 233.526 374.044 233.568 373.876 233.47C373.526 233.26 372.952 233.008 372.35 233.008C371.104 233.008 370.46 233.89 370.46 235.514C370.46 237.124 371.104 238.048 372.35 238.048C372.98 238.048 373.68 237.684 374.044 237.39C374.184 237.278 374.31 237.278 374.394 237.404L374.73 237.95ZM379.248 231.902C380.662 231.902 381.614 232.518 381.614 234.618V238.79C381.614 238.93 381.544 239 381.404 239H380.578C380.438 239 380.368 238.93 380.368 238.79V235.192C380.368 233.778 380.158 233.022 378.828 233.022C377.96 233.022 377.288 233.61 376.868 234.1V238.79C376.868 238.93 376.798 239 376.658 239H375.832C375.692 239 375.622 238.93 375.622 238.79V228.71C375.622 228.57 375.692 228.5 375.832 228.5H376.658C376.798 228.5 376.868 228.57 376.868 228.71V233.036C377.33 232.546 378.128 231.902 379.248 231.902ZM383.68 230.6C384.142 230.6 384.492 230.39 384.492 229.844C384.492 229.34 384.142 229.088 383.68 229.088C383.232 229.088 382.868 229.34 382.868 229.844C382.868 230.39 383.232 230.6 383.68 230.6ZM383.274 232.042H384.1C384.24 232.042 384.31 232.112 384.31 232.252V238.79C384.31 238.93 384.24 239 384.1 239H383.274C383.134 239 383.064 238.93 383.064 238.79V232.252C383.064 232.112 383.134 232.042 383.274 232.042ZM390.756 232.728C390.756 232.826 390.728 232.882 390.658 232.98L386.878 237.95H390.532C390.672 237.95 390.742 238.02 390.742 238.16V238.79C390.742 238.93 390.672 239 390.532 239H386.36C385.548 239 385.464 238.804 385.408 238.356C385.366 238.048 385.408 237.936 385.604 237.684L389.188 233.106H385.912C385.772 233.106 385.702 233.036 385.702 232.896V232.252C385.702 232.112 385.772 232.042 385.912 232.042H390.546C390.686 232.042 390.756 232.112 390.756 232.252V232.728ZM397.347 238.79C397.375 238.93 397.277 239 397.137 239H396.815C396.395 239 396.129 238.65 396.059 238.09L396.045 237.95C395.611 238.384 394.673 239.14 393.665 239.14C392.195 239.14 391.425 238.412 391.411 236.97C391.411 235.528 392.489 234.772 394.393 234.772C394.855 234.772 395.415 234.786 395.961 234.8V234.282C395.961 233.428 395.429 233.008 394.253 233.008C393.567 233.008 393.021 233.204 392.587 233.414C392.419 233.484 392.307 233.442 392.237 233.316L391.985 232.798C391.915 232.658 391.957 232.546 392.083 232.476C392.559 232.196 393.259 231.902 394.421 231.902C396.073 231.902 397.207 232.476 397.207 234.086V237.278C397.207 237.852 397.249 238.286 397.347 238.79ZM393.889 238.048C394.729 238.048 395.541 237.348 395.961 236.928V235.808C395.387 235.794 394.813 235.78 394.393 235.78C393.147 235.78 392.685 236.298 392.685 236.97C392.685 237.614 393.007 238.048 393.889 238.048Z" fill="#656464"/>
<path d="M169.229 110.92C169.369 110.92 169.439 110.99 169.439 111.13V111.886C169.439 112.026 169.369 112.096 169.229 112.096H166.681V120.79C166.681 120.93 166.611 121 166.471 121H165.589C165.449 121 165.379 120.93 165.379 120.79V112.096H162.845C162.705 112.096 162.635 112.026 162.635 111.886V111.13C162.635 110.99 162.705 110.92 162.845 110.92H169.229ZM170.859 112.6C171.321 112.6 171.671 112.39 171.671 111.844C171.671 111.34 171.321 111.088 170.859 111.088C170.411 111.088 170.047 111.34 170.047 111.844C170.047 112.39 170.411 112.6 170.859 112.6ZM170.453 114.042H171.279C171.419 114.042 171.489 114.112 171.489 114.252V120.79C171.489 120.93 171.419 121 171.279 121H170.453C170.313 121 170.243 120.93 170.243 120.79V114.252C170.243 114.112 170.313 114.042 170.453 114.042ZM176.548 113.902C177.962 113.902 178.914 114.518 178.914 116.618V120.79C178.914 120.93 178.844 121 178.704 121H177.878C177.738 121 177.668 120.93 177.668 120.79V117.192C177.668 115.778 177.458 115.022 176.128 115.022C175.26 115.022 174.588 115.61 174.168 116.1V120.79C174.168 120.93 174.098 121 173.958 121H173.132C172.992 121 172.922 120.93 172.922 120.79V114.252C172.922 114.112 172.992 114.042 173.132 114.042H173.44C173.888 114.042 174.168 114.35 174.168 114.91V115.036C174.63 114.546 175.428 113.902 176.548 113.902ZM186.048 114.042C186.174 114.056 186.258 114.112 186.258 114.252V120.076C186.258 123.408 185.278 124.5 182.59 124.5C181.848 124.5 181.064 124.304 180.63 124.164C180.532 124.136 180.406 124.066 180.434 123.954L180.532 123.394C180.56 123.24 180.616 123.128 180.742 123.17C181.148 123.282 181.876 123.45 182.436 123.45C184.41 123.45 185.012 122.764 185.012 120.496V119.978C184.578 120.454 183.766 121.14 182.702 121.14C180.476 121.14 179.916 119.11 179.916 117.528C179.916 115.218 181.302 113.902 183.388 113.902C184.074 113.902 185.18 113.958 186.048 114.042ZM182.94 120.034C183.724 120.034 184.536 119.348 185.012 118.858V115.064C184.424 115.022 183.85 115.008 183.374 115.008C182.002 115.008 181.19 115.764 181.19 117.528C181.19 118.536 181.414 120.034 182.94 120.034ZM190.704 121.14C188.702 121.14 187.26 119.866 187.26 117.528C187.26 114.896 188.702 113.902 190.704 113.902C192.692 113.902 194.134 114.98 194.134 117.528C194.134 119.866 192.692 121.14 190.704 121.14ZM190.704 120.048C192.02 120.048 192.86 119.334 192.86 117.528C192.86 115.694 192.02 115.008 190.704 115.008C189.374 115.008 188.534 115.694 188.534 117.528C188.534 119.334 189.374 120.048 190.704 120.048ZM207.374 110.92C207.514 110.92 207.584 110.99 207.584 111.13V120.79C207.584 120.93 207.514 121 207.374 121H206.492C206.352 121 206.282 120.93 206.282 120.79L206.338 113.468L203.636 117.528C203.552 117.64 203.426 117.752 203.188 117.766C203.174 117.766 203.174 117.766 203.174 117.766C203.16 117.766 203.16 117.766 203.16 117.766C202.922 117.752 202.796 117.64 202.726 117.528L199.996 113.468L200.066 120.79C200.066 120.93 199.996 121 199.856 121H198.974C198.834 121 198.764 120.93 198.764 120.79V111.13C198.764 110.99 198.834 110.92 198.974 110.92H199.618C199.73 110.92 199.814 110.962 199.87 111.046L203.174 115.988L206.464 111.046C206.52 110.962 206.604 110.92 206.716 110.92H207.374ZM214.804 120.79C214.832 120.93 214.734 121 214.594 121H214.272C213.852 121 213.586 120.65 213.516 120.09L213.502 119.95C213.068 120.384 212.13 121.14 211.122 121.14C209.652 121.14 208.882 120.412 208.868 118.97C208.868 117.528 209.946 116.772 211.85 116.772C212.312 116.772 212.872 116.786 213.418 116.8V116.282C213.418 115.428 212.886 115.008 211.71 115.008C211.024 115.008 210.478 115.204 210.044 115.414C209.876 115.484 209.764 115.442 209.694 115.316L209.442 114.798C209.372 114.658 209.414 114.546 209.54 114.476C210.016 114.196 210.716 113.902 211.878 113.902C213.53 113.902 214.664 114.476 214.664 116.086V119.278C214.664 119.852 214.706 120.286 214.804 120.79ZM211.346 120.048C212.186 120.048 212.998 119.348 213.418 118.928V117.808C212.844 117.794 212.27 117.78 211.85 117.78C210.604 117.78 210.142 118.298 210.142 118.97C210.142 119.614 210.464 120.048 211.346 120.048ZM219.29 113.93C219.458 113.874 219.584 113.944 219.57 114.098L219.556 115.078C219.556 115.218 219.486 115.26 219.346 115.288C218.114 115.484 217.33 115.736 217.33 116.394V120.79C217.33 120.93 217.26 121 217.12 121H216.294C216.154 121 216.084 120.93 216.084 120.79V114.252C216.084 114.112 216.154 114.042 216.294 114.042H216.602C217.05 114.042 217.33 114.35 217.33 114.91V114.994C217.918 114.49 218.618 114.126 219.29 113.93ZM222.048 110.794C222.16 110.71 222.286 110.724 222.356 110.836L222.79 111.592C222.846 111.704 222.818 111.83 222.692 111.886L220.592 112.824C220.508 112.866 220.41 112.838 220.368 112.754L220.158 112.39C220.116 112.32 220.116 112.194 220.2 112.138L222.048 110.794ZM220.634 114.042H221.46C221.6 114.042 221.67 114.112 221.67 114.252V120.79C221.67 120.93 221.6 121 221.46 121H220.634C220.494 121 220.424 120.93 220.424 120.79V114.252C220.424 114.112 220.494 114.042 220.634 114.042ZM228.797 120.79C228.825 120.93 228.727 121 228.587 121H228.265C227.845 121 227.579 120.65 227.509 120.09L227.495 119.95C227.061 120.384 226.123 121.14 225.115 121.14C223.645 121.14 222.875 120.412 222.861 118.97C222.861 117.528 223.939 116.772 225.843 116.772C226.305 116.772 226.865 116.786 227.411 116.8V116.282C227.411 115.428 226.879 115.008 225.703 115.008C225.017 115.008 224.471 115.204 224.037 115.414C223.869 115.484 223.757 115.442 223.687 115.316L223.435 114.798C223.365 114.658 223.407 114.546 223.533 114.476C224.009 114.196 224.709 113.902 225.871 113.902C227.523 113.902 228.657 114.476 228.657 116.086V119.278C228.657 119.852 228.699 120.286 228.797 120.79ZM225.339 120.048C226.179 120.048 226.991 119.348 227.411 118.928V117.808C226.837 117.794 226.263 117.78 225.843 117.78C224.597 117.78 224.135 118.298 224.135 118.97C224.135 119.614 224.457 120.048 225.339 120.048Z" fill="#656464"/>
<path d="M196.473 145.075C195.174 145.24 193.735 145.687 192.653 146.261C190.046 147.636 188.583 150.075 189.105 152.178C189.502 153.801 191.361 156.268 194.24 159.012C195.882 160.568 197.617 162.048 197.905 162.125C198.216 162.213 198.427 162.108 199.158 161.496C203.749 157.67 206.752 154.072 207.134 151.924C207.297 150.997 207.04 149.866 206.433 148.867C205.243 146.907 202.621 145.439 199.664 145.075C198.862 144.975 197.252 144.975 196.473 145.075ZM193.408 148.994C193.587 149.082 193.735 149.176 193.735 149.192C193.735 149.214 193.61 149.369 193.462 149.546C192.964 150.136 192.668 151.025 192.754 151.676C192.832 152.267 192.964 152.598 193.361 153.161L193.727 153.685L193.517 153.807C193.4 153.873 193.213 153.961 193.104 154.011C192.894 154.099 192.894 154.099 192.661 153.834C191.992 153.106 191.704 152.366 191.704 151.422C191.704 150.495 191.968 149.827 192.614 149.065C192.801 148.85 192.925 148.756 192.988 148.784C193.042 148.811 193.229 148.9 193.408 148.994ZM203.842 149.435C204.309 150.103 204.48 150.633 204.48 151.422C204.48 151.913 204.441 152.2 204.317 152.521C204.161 152.957 203.671 153.735 203.406 153.972L203.266 154.099L202.877 153.901C202.659 153.796 202.488 153.691 202.488 153.669C202.488 153.647 202.652 153.393 202.854 153.106C203.243 152.526 203.352 152.261 203.43 151.687C203.515 151.019 203.227 150.142 202.722 149.546C202.574 149.369 202.449 149.214 202.449 149.192C202.449 149.176 202.636 149.065 202.862 148.955L203.266 148.751L203.399 148.872C203.476 148.938 203.679 149.192 203.842 149.435ZM198.699 150.373C199.695 150.672 199.998 151.549 199.314 152.14C198.504 152.835 196.917 152.603 196.567 151.737C196.193 150.837 197.477 150.015 198.699 150.373Z" fill="#78C88A"/>
<path d="M132.473 274.075C131.174 274.24 129.735 274.687 128.653 275.261C126.046 276.636 124.583 279.075 125.105 281.178C125.502 282.801 127.361 285.268 130.24 288.012C131.882 289.568 133.617 291.048 133.905 291.125C134.216 291.213 134.427 291.108 135.158 290.496C139.749 286.67 142.752 283.072 143.134 280.924C143.297 279.997 143.04 278.866 142.433 277.867C141.243 275.907 138.621 274.439 135.664 274.075C134.862 273.975 133.252 273.975 132.473 274.075ZM129.408 277.994C129.587 278.082 129.735 278.176 129.735 278.192C129.735 278.214 129.61 278.369 129.462 278.546C128.964 279.136 128.668 280.025 128.754 280.676C128.832 281.267 128.964 281.598 129.361 282.161L129.727 282.685L129.517 282.807C129.4 282.873 129.213 282.961 129.104 283.011C128.894 283.099 128.894 283.099 128.661 282.834C127.992 282.106 127.704 281.366 127.704 280.422C127.704 279.495 127.968 278.827 128.614 278.065C128.801 277.85 128.925 277.756 128.988 277.784C129.042 277.811 129.229 277.9 129.408 277.994ZM139.842 278.435C140.309 279.103 140.48 279.633 140.48 280.422C140.48 280.913 140.441 281.2 140.317 281.521C140.161 281.957 139.671 282.735 139.406 282.972L139.266 283.099L138.877 282.901C138.659 282.796 138.488 282.691 138.488 282.669C138.488 282.647 138.652 282.393 138.854 282.106C139.243 281.526 139.352 281.261 139.43 280.687C139.515 280.019 139.227 279.142 138.722 278.546C138.574 278.369 138.449 278.214 138.449 278.192C138.449 278.176 138.636 278.065 138.862 277.955L139.266 277.751L139.399 277.872C139.476 277.938 139.679 278.192 139.842 278.435ZM134.699 279.373C135.695 279.672 135.998 280.549 135.314 281.14C134.504 281.835 132.917 281.603 132.567 280.737C132.193 279.837 133.477 279.015 134.699 279.373Z" fill="#78C88A"/>
<path d="M114.481 319.762C114.537 319.902 114.467 320 114.313 320H113.347C113.221 320 113.151 319.944 113.109 319.832L112.339 317.536H108.167L107.397 319.832C107.355 319.944 107.285 320 107.159 320H106.193C106.039 320 105.969 319.902 106.025 319.762L109.497 310.088C109.539 309.976 109.609 309.92 109.735 309.92H110.771C110.897 309.92 110.967 309.976 111.009 310.088L114.481 319.762ZM108.559 316.36H111.947L110.253 311.32L108.559 316.36ZM120.947 319.79C120.975 319.93 120.877 320 120.737 320H120.415C119.995 320 119.729 319.65 119.659 319.09V319.034C119.169 319.524 118.343 320.14 117.251 320.14C115.795 320.14 114.955 319.342 114.955 317.424V313.252C114.955 313.112 115.025 313.042 115.165 313.042H115.991C116.131 313.042 116.201 313.112 116.201 313.252V316.71C116.201 318.432 116.523 319.034 117.839 319.034C118.581 319.034 119.155 318.558 119.561 318.096V313.252C119.561 313.112 119.631 313.042 119.771 313.042H120.597C120.737 313.042 120.807 313.112 120.807 313.252V318.278C120.807 318.852 120.849 319.286 120.947 319.79ZM127.494 318.95C127.564 319.048 127.48 319.16 127.396 319.23C126.99 319.608 126.15 320.154 125.002 320.14C123.532 320.126 121.95 319.3 121.95 316.514C121.95 313.728 123.56 312.902 125.002 312.902C126.052 312.902 126.64 313.196 127.256 313.574C127.354 313.644 127.368 313.756 127.298 313.868L127.032 314.386C126.962 314.526 126.808 314.568 126.64 314.47C126.29 314.26 125.716 314.008 125.114 314.008C123.868 314.008 123.224 314.89 123.224 316.514C123.224 318.124 123.868 319.048 125.114 319.048C125.744 319.048 126.444 318.684 126.808 318.39C126.948 318.278 127.074 318.278 127.158 318.404L127.494 318.95ZM133.972 319.79C134 319.93 133.902 320 133.762 320H133.44C133.02 320 132.754 319.65 132.684 319.09L132.67 318.95C132.236 319.384 131.298 320.14 130.29 320.14C128.82 320.14 128.05 319.412 128.036 317.97C128.036 316.528 129.114 315.772 131.018 315.772C131.48 315.772 132.04 315.786 132.586 315.8V315.282C132.586 314.428 132.054 314.008 130.878 314.008C130.192 314.008 129.646 314.204 129.212 314.414C129.044 314.484 128.932 314.442 128.862 314.316L128.61 313.798C128.54 313.658 128.582 313.546 128.708 313.476C129.184 313.196 129.884 312.902 131.046 312.902C132.698 312.902 133.832 313.476 133.832 315.086V318.278C133.832 318.852 133.874 319.286 133.972 319.79ZM130.514 319.048C131.354 319.048 132.166 318.348 132.586 317.928V316.808C132.012 316.794 131.438 316.78 131.018 316.78C129.772 316.78 129.31 317.298 129.31 317.97C129.31 318.614 129.632 319.048 130.514 319.048ZM140.594 313.042C140.748 313.042 140.846 313.126 140.79 313.266L137.08 323.262C137.024 323.416 136.926 323.5 136.772 323.5H136.002C135.862 323.5 135.792 323.416 135.834 323.262L137.066 320H136.898C136.772 320 136.702 319.944 136.66 319.832L134.336 313.28C134.294 313.14 134.35 313.042 134.504 313.042H135.428C135.554 313.042 135.624 313.098 135.666 313.21L137.528 318.698L139.46 313.238C139.502 313.112 139.558 313.042 139.684 313.042H140.594ZM147.019 319.79C147.047 319.93 146.949 320 146.809 320H146.487C146.067 320 145.801 319.65 145.731 319.09L145.717 318.95C145.283 319.384 144.345 320.14 143.337 320.14C141.867 320.14 141.097 319.412 141.083 317.97C141.083 316.528 142.161 315.772 144.065 315.772C144.527 315.772 145.087 315.786 145.633 315.8V315.282C145.633 314.428 145.101 314.008 143.925 314.008C143.239 314.008 142.693 314.204 142.259 314.414C142.091 314.484 141.979 314.442 141.909 314.316L141.657 313.798C141.587 313.658 141.629 313.546 141.755 313.476C142.231 313.196 142.931 312.902 144.093 312.902C145.745 312.902 146.879 313.476 146.879 315.086V318.278C146.879 318.852 146.921 319.286 147.019 319.79ZM143.561 319.048C144.401 319.048 145.213 318.348 145.633 317.928V316.808C145.059 316.794 144.485 316.78 144.065 316.78C142.819 316.78 142.357 317.298 142.357 317.97C142.357 318.614 142.679 319.048 143.561 319.048ZM153.493 318.95C153.563 319.048 153.479 319.16 153.395 319.23C152.989 319.608 152.149 320.154 151.001 320.14C149.531 320.126 147.949 319.3 147.949 316.514C147.949 313.728 149.559 312.902 151.001 312.902C152.051 312.902 152.639 313.196 153.255 313.574C153.353 313.644 153.367 313.756 153.297 313.868L153.031 314.386C152.961 314.526 152.807 314.568 152.639 314.47C152.289 314.26 151.715 314.008 151.113 314.008C149.867 314.008 149.223 314.89 149.223 316.514C149.223 318.124 149.867 319.048 151.113 319.048C151.743 319.048 152.443 318.684 152.807 318.39C152.947 318.278 153.073 318.278 153.157 318.404L153.493 318.95ZM160.349 319.79C160.377 319.93 160.279 320 160.139 320H159.817C159.397 320 159.131 319.65 159.061 319.09V319.034C158.571 319.524 157.745 320.14 156.653 320.14C155.197 320.14 154.357 319.342 154.357 317.424V313.252C154.357 313.112 154.427 313.042 154.567 313.042H155.393C155.533 313.042 155.603 313.112 155.603 313.252V316.71C155.603 318.432 155.925 319.034 157.241 319.034C157.983 319.034 158.557 318.558 158.963 318.096V313.252C158.963 313.112 159.033 313.042 159.173 313.042H159.999C160.139 313.042 160.209 313.112 160.209 313.252V318.278C160.209 318.852 160.251 319.286 160.349 319.79Z" fill="#656464"/>
<path d="M381.818 203.827C369.185 194.042 261.351 194.042 228.414 237.588C216.231 202.849 137.273 212.634 137.273 283.091" stroke="#7BD77F" stroke-dasharray="2 2"/>
<path d="M227.473 230.075C226.174 230.24 224.735 230.687 223.653 231.261C221.046 232.636 219.583 235.075 220.105 237.178C220.502 238.801 222.361 241.268 225.24 244.012C226.882 245.568 228.617 247.048 228.905 247.125C229.216 247.213 229.427 247.108 230.158 246.496C234.749 242.67 237.752 239.072 238.134 236.924C238.297 235.997 238.04 234.866 237.433 233.867C236.243 231.907 233.621 230.439 230.664 230.075C229.862 229.975 228.252 229.975 227.473 230.075ZM224.408 233.994C224.587 234.082 224.735 234.176 224.735 234.192C224.735 234.214 224.61 234.369 224.462 234.546C223.964 235.136 223.668 236.025 223.754 236.676C223.832 237.267 223.964 237.598 224.361 238.161L224.727 238.685L224.517 238.807C224.4 238.873 224.213 238.961 224.104 239.011C223.894 239.099 223.894 239.099 223.661 238.834C222.992 238.106 222.704 237.366 222.704 236.422C222.704 235.495 222.968 234.827 223.614 234.065C223.801 233.85 223.925 233.756 223.988 233.784C224.042 233.811 224.229 233.9 224.408 233.994ZM234.842 234.435C235.309 235.103 235.48 235.633 235.48 236.422C235.48 236.913 235.441 237.2 235.317 237.521C235.161 237.957 234.671 238.735 234.406 238.972L234.266 239.099L233.877 238.901C233.659 238.796 233.488 238.691 233.488 238.669C233.488 238.647 233.652 238.393 233.854 238.106C234.243 237.526 234.352 237.261 234.43 236.687C234.515 236.019 234.227 235.142 233.722 234.546C233.574 234.369 233.449 234.214 233.449 234.192C233.449 234.176 233.636 234.065 233.862 233.955L234.266 233.751L234.399 233.872C234.476 233.938 234.679 234.192 234.842 234.435ZM229.699 235.373C230.695 235.672 230.998 236.549 230.314 237.14C229.504 237.835 227.917 237.603 227.567 236.737C227.193 235.837 228.477 235.015 229.699 235.373Z" fill="#78C88A"/>
<path d="M209.873 246.92C210.013 246.92 210.083 246.99 210.083 247.13V256.79C210.083 256.93 210.013 257 209.873 257H208.991C208.851 257 208.781 256.93 208.781 256.79V252.464H204.077V256.79C204.077 256.93 204.007 257 203.867 257H202.985C202.845 257 202.775 256.93 202.775 256.79V247.13C202.775 246.99 202.845 246.92 202.985 246.92H203.867C204.007 246.92 204.077 246.99 204.077 247.13V251.302H208.781V247.13C208.781 246.99 208.851 246.92 208.991 246.92H209.873ZM217.703 256.79C217.731 256.93 217.633 257 217.493 257H217.171C216.751 257 216.485 256.65 216.415 256.09V256.034C215.925 256.524 215.099 257.14 214.007 257.14C212.551 257.14 211.711 256.342 211.711 254.424V250.252C211.711 250.112 211.781 250.042 211.921 250.042H212.747C212.887 250.042 212.957 250.112 212.957 250.252V253.71C212.957 255.432 213.279 256.034 214.595 256.034C215.337 256.034 215.911 255.558 216.317 255.096V250.252C216.317 250.112 216.387 250.042 216.527 250.042H217.353C217.493 250.042 217.563 250.112 217.563 250.252V255.278C217.563 255.852 217.605 256.286 217.703 256.79ZM221.141 248.754L220.931 248.39C220.889 248.32 220.903 248.194 220.973 248.138L222.821 246.794C222.933 246.71 223.059 246.724 223.129 246.836L223.563 247.592C223.633 247.704 223.591 247.83 223.465 247.886L221.379 248.824C221.281 248.866 221.183 248.838 221.141 248.754ZM224.641 256.79C224.669 256.93 224.571 257 224.431 257H224.109C223.689 257 223.423 256.65 223.353 256.09L223.339 255.95C222.905 256.384 221.967 257.14 220.959 257.14C219.489 257.14 218.719 256.412 218.705 254.97C218.705 253.528 219.783 252.772 221.687 252.772C222.149 252.772 222.709 252.786 223.255 252.8V252.282C223.255 251.428 222.723 251.008 221.547 251.008C220.861 251.008 220.315 251.204 219.881 251.414C219.713 251.484 219.601 251.442 219.531 251.316L219.279 250.798C219.209 250.658 219.251 250.546 219.377 250.476C219.853 250.196 220.553 249.902 221.715 249.902C223.367 249.902 224.501 250.476 224.501 252.086V255.278C224.501 255.852 224.543 256.286 224.641 256.79ZM221.183 256.048C222.023 256.048 222.835 255.348 223.255 254.928V253.808C222.681 253.794 222.107 253.78 221.687 253.78C220.441 253.78 219.979 254.298 219.979 254.97C219.979 255.614 220.301 256.048 221.183 256.048ZM229.547 249.902C230.961 249.902 231.913 250.518 231.913 252.618V256.79C231.913 256.93 231.843 257 231.703 257H230.877C230.737 257 230.667 256.93 230.667 256.79V253.192C230.667 251.778 230.457 251.022 229.127 251.022C228.259 251.022 227.587 251.61 227.167 252.1V256.79C227.167 256.93 227.097 257 226.957 257H226.131C225.991 257 225.921 256.93 225.921 256.79V250.252C225.921 250.112 225.991 250.042 226.131 250.042H226.439C226.887 250.042 227.167 250.35 227.167 250.91V251.036C227.629 250.546 228.427 249.902 229.547 249.902ZM239.229 256.79C239.257 256.93 239.159 257 239.019 257H238.697C238.277 257 238.011 256.65 237.941 256.09V256.034C237.451 256.524 236.625 257.14 235.533 257.14C234.077 257.14 233.237 256.342 233.237 254.424V250.252C233.237 250.112 233.307 250.042 233.447 250.042H234.273C234.413 250.042 234.483 250.112 234.483 250.252V253.71C234.483 255.432 234.805 256.034 236.121 256.034C236.863 256.034 237.437 255.558 237.843 255.096V250.252C237.843 250.112 237.913 250.042 238.053 250.042H238.879C239.019 250.042 239.089 250.112 239.089 250.252V255.278C239.089 255.852 239.131 256.286 239.229 256.79ZM245.775 255.95C245.845 256.048 245.761 256.16 245.677 256.23C245.271 256.608 244.431 257.154 243.283 257.14C241.813 257.126 240.231 256.3 240.231 253.514C240.231 250.728 241.841 249.902 243.283 249.902C244.333 249.902 244.921 250.196 245.537 250.574C245.635 250.644 245.649 250.756 245.579 250.868L245.313 251.386C245.243 251.526 245.089 251.568 244.921 251.47C244.571 251.26 243.997 251.008 243.395 251.008C242.149 251.008 241.505 251.89 241.505 253.514C241.505 255.124 242.149 256.048 243.395 256.048C244.025 256.048 244.725 255.684 245.089 255.39C245.229 255.278 245.355 255.278 245.439 255.404L245.775 255.95ZM249.68 257.14C247.678 257.14 246.236 255.866 246.236 253.528C246.236 250.896 247.678 249.902 249.68 249.902C251.668 249.902 253.11 250.98 253.11 253.528C253.11 255.866 251.668 257.14 249.68 257.14ZM249.68 256.048C250.996 256.048 251.836 255.334 251.836 253.528C251.836 251.694 250.996 251.008 249.68 251.008C248.35 251.008 247.51 251.694 247.51 253.528C247.51 255.334 248.35 256.048 249.68 256.048ZM254.213 255.754C254.269 255.614 254.409 255.572 254.535 255.642L255.347 256.104C255.473 256.174 255.515 256.314 255.417 256.44L253.947 258.428C253.877 258.512 253.779 258.526 253.681 258.484L253.331 258.288C253.247 258.232 253.205 258.134 253.247 258.036L254.213 255.754ZM219.46 268.78C221.798 268.78 222.848 269.998 222.848 271.804C222.848 274.086 220.958 274.884 219.306 274.884C218.774 274.884 218.382 274.884 218.116 274.87V278.79C218.116 278.93 218.046 279 217.906 279H217.024C216.884 279 216.814 278.93 216.814 278.79V269.13C216.814 268.99 216.884 268.934 217.024 268.92C217.892 268.836 218.774 268.78 219.46 268.78ZM219.32 273.736C220.846 273.736 221.49 272.84 221.49 271.804C221.49 270.684 220.846 269.928 219.474 269.928C219.04 269.928 218.578 269.956 218.116 269.984V273.708C218.382 273.722 218.76 273.736 219.32 273.736ZM226.161 271.902C228.695 271.902 229.339 273.792 229.339 275.024V275.038C229.339 275.626 229.115 275.99 228.387 275.99L224.187 276.018C224.299 277.572 225.195 278.076 226.539 278.048C227.407 278.02 228.163 277.6 228.597 277.264C228.709 277.18 228.807 277.264 228.891 277.404L229.185 277.908C229.241 278.02 229.171 278.104 229.059 278.174C228.611 278.524 227.701 279.14 226.287 279.14C224.747 279.14 222.899 278.286 222.899 275.528C222.899 273.106 224.187 271.902 226.161 271.902ZM224.187 275.024H228.093C228.009 273.68 227.519 273.008 226.119 273.008C224.943 273.008 224.299 273.582 224.187 275.024ZM233.567 271.93C233.735 271.874 233.861 271.944 233.847 272.098L233.833 273.078C233.833 273.218 233.763 273.26 233.623 273.288C232.391 273.484 231.607 273.736 231.607 274.394V278.79C231.607 278.93 231.537 279 231.397 279H230.571C230.431 279 230.361 278.93 230.361 278.79V272.252C230.361 272.112 230.431 272.042 230.571 272.042H230.879C231.327 272.042 231.607 272.35 231.607 272.91V272.994C232.195 272.49 232.895 272.126 233.567 271.93ZM236.801 270.754L236.577 270.39C236.535 270.32 236.549 270.194 236.619 270.138L238.481 268.794C238.593 268.71 238.719 268.724 238.789 268.836L239.223 269.592C239.279 269.704 239.251 269.83 239.125 269.886L237.025 270.824C236.941 270.866 236.843 270.838 236.801 270.754ZM240.483 278.79C240.511 278.93 240.413 279 240.273 279H239.951C239.531 279 239.265 278.65 239.195 278.09V278.034C238.705 278.524 237.879 279.14 236.787 279.14C235.331 279.14 234.491 278.342 234.491 276.424V272.252C234.491 272.112 234.561 272.042 234.701 272.042H235.527C235.667 272.042 235.737 272.112 235.737 272.252V275.71C235.737 277.432 236.059 278.034 237.375 278.034C238.117 278.034 238.691 277.558 239.097 277.096V272.252C239.097 272.112 239.167 272.042 239.307 272.042H240.133C240.273 272.042 240.343 272.112 240.343 272.252V277.278C240.343 277.852 240.385 278.286 240.483 278.79Z" fill="#656464"/>
<path d="M230 234C217.659 152.339 199.5 154 199.5 154" stroke="#7BD77F" stroke-dasharray="2 2"/>
</g>
<defs>
<filter id="filter0_d_17_980" x="0" y="0" width="514" height="381" filterUnits="userSpaceOnUse" color-interpolation-filters="sRGB">
<feFlood flood-opacity="0" result="BackgroundImageFix"/>
<feColorMatrix in="SourceAlpha" type="matrix" values="0 0 0 0 0 0 0 0 0 0 0 0 0 0 0 0 0 0 127 0" result="hardAlpha"/>
<feOffset dx="10" dy="5"/>
<feGaussianBlur stdDeviation="2"/>
<feComposite in2="hardAlpha" operator="out"/>
<feColorMatrix type="matrix" values="0 0 0 0 0 0 0 0 0 0 0 0 0 0 0 0 0 0 0.25 0"/>
<feBlend mode="normal" in2="BackgroundImageFix" result="effect1_dropShadow_17_980"/>
<feBlend mode="normal" in="SourceGraphic" in2="effect1_dropShadow_17_980" result="shape"/>
</filter>
</defs>
</svg>
